STARTFONT 2.1
FONT -FontForge-Noto Mono-Book-R-Normal--72-690-75-75-P-429-ISO8859-1
SIZE 69 75 75
FONTBOUNDINGBOX 57 95 -11 -19
COMMENT "Generated by fontforge, http://fontforge.sourceforge.net"
COMMENT "Copyright 2007 Google Inc. All Rights Reserved."
STARTPROPERTIES 41
FOUNDRY "FontForge"
FAMILY_NAME "Noto Mono"
WEIGHT_NAME "Book"
SLANT "R"
SETWIDTH_NAME "Normal"
ADD_STYLE_NAME ""
PIXEL_SIZE 72
POINT_SIZE 690
RESOLUTION_X 75
RESOLUTION_Y 75
SPACING "P"
AVERAGE_WIDTH 429
CHARSET_REGISTRY "ISO8859"
CHARSET_ENCODING "1"
FONTNAME_REGISTRY ""
CHARSET_COLLECTIONS "ISO8859-2 ISO8859-5 ISO8859-7 ISO8859-9 ISO8859-4 ISOLatin1Encoding"
FONT_NAME "NotoMono"
FACE_NAME "Noto Mono"
COPYRIGHT "Copyright 2007 Google Inc. All Rights Reserved."
FONT_VERSION "1.00"
FONT_ASCENT 58
FONT_DESCENT 14
UNDERLINE_POSITION -7
UNDERLINE_THICKNESS 4
X_HEIGHT 38
CAP_HEIGHT 50
DEFAULT_CHAR 1
RAW_ASCENT 799
RAW_DESCENT 200
NORM_SPACE 43
RELATIVE_WEIGHT 40
RELATIVE_SETWIDTH 50
SUPERSCRIPT_X 0
SUPERSCRIPT_Y 34
SUPERSCRIPT_SIZE 46
SUBSCRIPT_X 0
SUBSCRIPT_Y 10
SUBSCRIPT_SIZE 46
FIGURE_WIDTH 43
AVG_LOWERCASE_WIDTH 430
AVG_UPPERCASE_WIDTH 430
ENDPROPERTIES
CHARS 897
STARTCHAR uni0000
ENCODING 0
SWIDTH 0 0
DWIDTH 0 0
BBX 1 1 0 0
BITMAP
00
ENDCHAR
STARTCHAR uni000D
ENCODING 13
SWIDTH 600 0
DWIDTH 43 0
BBX 1 1 0 0
BITMAP
00
ENDCHAR
STARTCHAR space
ENCODING 32
SWIDTH 600 0
DWIDTH 43 0
BBX 1 1 0 0
BITMAP
00
ENDCHAR
STARTCHAR exclam
ENCODING 33
SWIDTH 600 0
DWIDTH 43 0
BBX 9 52 17 -1
BITMAP
7F00
7F00
7F00
7F00
7F00
7F00
7F00
7F00
7F00
7F00
7F00
7F00
7F00
7F00
7F00
7F00
7F00
7F00
3F00
3E00
3E00
3E00
3E00
3E00
3E00
3E00
3E00
3E00
3E00
3E00
3E00
3E00
3E00
3E00
3E00
3E00
0000
0000
0000
0000
0000
0000
1C00
7F00
FF00
FF80
FF80
FF80
FF80
FF80
7F00
3E00
ENDCHAR
STARTCHAR quotedbl
ENCODING 34
SWIDTH 600 0
DWIDTH 43 0
BBX 23 19 10 32
BITMAP
FF01FE
FF01FE
FF01FE
FF01FE
FF01FE
FF01FE
FF01FE
7F00FE
7F00FE
7F00FE
7F00FE
7E00FC
7E00FC
7E00FC
7E00FC
7E00FC
7E00FC
7E00FC
7E00FC
ENDCHAR
STARTCHAR numbersign
ENCODING 35
SWIDTH 600 0
DWIDTH 43 0
BBX 40 51 2 0
BITMAP
0001F003E0
0003F003E0
0003F003E0
0003E007C0
0003E007C0
0003E007C0
0007E007C0
0007E007C0
0007C00F80
0007C00F80
0007C00F80
000FC00F80
000FC00F80
000F801F00
000F801F00
1FFFFFFFFF
1FFFFFFFFF
1FFFFFFFFF
1FFFFFFFFF
1FFFFFFFFF
001F003E00
001F003E00
003F003E00
003E007C00
003E007C00
003E007C00
003E007C00
007E007C00
007C00F800
007C00F800
007C00F800
FFFFFFFFF8
FFFFFFFFF8
FFFFFFFFF8
FFFFFFFFF8
FFFFFFFFF8
00F801F000
01F801F000
01F003F000
01F003E000
01F003E000
01F003E000
01F003E000
03E007E000
03E007E000
03E007C000
03E007C000
03E007C000
07C00FC000
07C00FC000
07C00F8000
ENDCHAR
STARTCHAR dollar
ENCODING 36
SWIDTH 600 0
DWIDTH 43 0
BBX 30 58 6 -4
BITMAP
0007C000
0007C000
0007C000
0007C000
0007C000
0007C000
003FFE00
01FFFFE0
03FFFFF8
0FFFFFF8
1FFFFFF0
1FFFDFF0
3FC7C0E0
3F87C020
7F07C000
7E07C000
7E07C000
7E07C000
7E07C000
7E07C000
7F07C000
3F87C000
3FC7C000
1FF7C000
1FFFC000
0FFFC000
03FFF000
01FFFC00
003FFF00
000FFFC0
0007FFE0
0007FFF0
0007CFF8
0007C7F8
0007C3F8
0007C1FC
0007C0FC
0007C0FC
0007C0FC
0007C0FC
0007C1FC
0007C1FC
E007C3F8
FC07CFF8
FFF7FFF0
FFFFFFE0
FFFFFFC0
FFFFFF80
3FFFFC00
03FFE000
0007C000
0007C000
0007C000
0007C000
0007C000
0007C000
0007C000
0007C000
ENDCHAR
STARTCHAR percent
ENCODING 37
SWIDTH 600 0
DWIDTH 43 0
BBX 43 53 0 -1
BITMAP
01FC00000000
07FF0001F800
1FFF8001F000
1FFFC003F000
3F8FE003E000
7E03F007E000
7C01F007C000
7C01F00FC000
FC01F80F8000
FC01F81F8000
F800F81F0000
F800F83F0000
F800F83E0000
F800F87E0000
FC01F87C0000
FC01F8FC0000
7C01F0F80000
7C01F1F80000
7E03F1F00000
3F8FE3F00000
1FFFC3E00000
0FFFC7E00000
07FF07C00000
01FC0FC00000
00000F800000
00001F800000
00001F000000
00003F000000
00003E000000
00007E07F000
00007C1FFC00
0000FC7FFE00
0000F87FFF00
0001F8FE3F80
0001F1F80FC0
0003F1F007C0
0003E1F007C0
0007E3F007E0
0007C3F007E0
000FC3E003E0
000F83E003E0
001F83E003E0
001F03E003E0
003F03F007E0
003E03F007E0
007E01F007C0
007C01F007C0
00FC01F80FC0
00F800FE3F80
01F8007FFF00
01F0003FFE00
03F0001FFC00
00000007F000
ENDCHAR
STARTCHAR ampersand
ENCODING 38
SWIDTH 600 0
DWIDTH 43 0
BBX 41 53 2 -1
BITMAP
0007FC000000
003FFF800000
007FFFC00000
00FFFFE00000
01FFFFF00000
03FF1FF80000
03FC07F80000
07F003FC0000
07F001FC0000
07F001FC0000
07E000FC0000
07E000FC0000
07E001FC0000
07F001FC0000
07F001F80000
03F003F80000
03F807F00000
01FC0FF00000
01FC1FE00000
00FE3FC00000
00FFFF800000
007FFF000000
003FFE000000
001FF8000000
007FF0000000
00FFF0000000
03FFF8000000
07FFF8000000
0FFBFC00FE00
1FF1FE00FE00
3FE0FF00FC00
3FC07F80FC00
7F803F81FC00
7F003FC1F800
7E001FE3F800
FE000FF3F800
FE0007FFF000
FE0003FFF000
FE0003FFE000
FE0001FFC000
FE0000FFC000
FE00007F8000
FE00007F8000
7F0000FFC000
7F8001FFE000
7FC007FFF000
3FE01FFFF800
3FFFFFF3F800
1FFFFFC1FC00
0FFFFF81FE00
07FFFF00FF00
01FFFC007F80
003FE0000000
ENDCHAR
STARTCHAR quotesingle
ENCODING 39
SWIDTH 600 0
DWIDTH 43 0
BBX 8 19 17 32
BITMAP
FF
FF
FF
FF
FF
FF
FF
7F
7F
7F
7F
7E
7E
7E
7E
7E
7E
7E
7E
ENDCHAR
STARTCHAR parenleft
ENCODING 40
SWIDTH 600 0
DWIDTH 43 0
BBX 22 62 10 -11
BITMAP
0000FC
0003F8
0007F0
000FE0
001FC0
003F80
007F00
00FE00
00FC00
01FC00
03F800
03F000
07F000
0FE000
0FE000
1FC000
1FC000
3F8000
3F8000
3F0000
7F0000
7F0000
7F0000
7E0000
7E0000
FE0000
FE0000
FE0000
FE0000
FE0000
FE0000
FE0000
FE0000
FE0000
FE0000
FE0000
FE0000
FE0000
7E0000
7F0000
7F0000
7F0000
3F0000
3F8000
3F8000
1FC000
1FC000
0FE000
0FE000
07F000
07F000
03F800
01FC00
01FC00
00FE00
007F00
003F80
001FC0
000FE0
0007F0
0003F8
0000FC
ENDCHAR
STARTCHAR parenright
ENCODING 41
SWIDTH 600 0
DWIDTH 43 0
BBX 22 62 11 -11
BITMAP
FC0000
7F0000
3F8000
1FC000
0FE000
07F000
03F800
01FC00
00FC00
00FE00
007F00
003F00
003F80
001FC0
001FC0
000FE0
000FE0
0007F0
0007F0
0007F0
0003F8
0003F8
0003F8
0001F8
0001F8
0001FC
0001FC
0001FC
0001FC
0001FC
0001FC
0001FC
0001FC
0001FC
0001FC
0001FC
0001FC
0001F8
0001F8
0003F8
0003F8
0003F8
0003F0
0007F0
0007F0
000FE0
000FE0
001FC0
001FC0
003F80
003F80
007F00
00FE00
00FC00
01FC00
03F800
07F000
0FE000
1FC000
3F8000
7F0000
FC0000
ENDCHAR
STARTCHAR asterisk
ENCODING 42
SWIDTH 600 0
DWIDTH 43 0
BBX 34 33 5 22
BITMAP
0007F00000
0007F00000
0007F00000
0007F00000
0003F00000
0003F00000
0003F00000
0003E00000
0003E00000
0003E00000
4003E00180
7C03E00F80
FF83E0FF80
FFFBE7FF80
FFFFFFFF80
FFFFFFFF80
FFFFFFFFC0
01FFFFC000
0007F80000
000FF80000
001F7C0000
003F7E0000
003F3F0000
007E3F0000
00FE1F8000
01FC1FC000
01FC0FE000
03F80FE000
07F80FF000
07F807F800
03F007E000
00F0038000
0020030000
ENDCHAR
STARTCHAR plus
ENCODING 43
SWIDTH 600 0
DWIDTH 43 0
BBX 33 33 5 9
BITMAP
0003E00000
0003E00000
0003E00000
0003E00000
0003E00000
0003E00000
0003E00000
0003E00000
0003E00000
0003E00000
0003E00000
0003E00000
0003E00000
0003E00000
FFFFFFFF80
FFFFFFFF80
FFFFFFFF80
FFFFFFFF80
FFFFFFFF80
0003E00000
0003E00000
0003E00000
0003E00000
0003E00000
0003E00000
0003E00000
0003E00000
0003E00000
0003E00000
0003E00000
0003E00000
0003E00000
0003E00000
ENDCHAR
STARTCHAR comma
ENCODING 44
SWIDTH 600 0
DWIDTH 43 0
BBX 12 19 15 -10
BITMAP
0FF0
1FF0
1FF0
1FE0
1FE0
1FE0
1FC0
3FC0
3FC0
3F80
3F80
3F00
7F00
7F00
7E00
7E00
7C00
FC00
F800
ENDCHAR
STARTCHAR hyphen
ENCODING 45
SWIDTH 600 0
DWIDTH 43 0
BBX 23 6 10 16
BITMAP
FFFFFE
FFFFFE
FFFFFE
FFFFFE
FFFFFE
FFFFFE
ENDCHAR
STARTCHAR period
ENCODING 46
SWIDTH 600 0
DWIDTH 43 0
BBX 11 12 16 -1
BITMAP
1F00
7FC0
7FC0
FFE0
FFE0
FFE0
FFE0
FFE0
FFE0
7FC0
7FC0
1F00
ENDCHAR
STARTCHAR slash
ENCODING 47
SWIDTH 600 0
DWIDTH 43 0
BBX 29 51 7 0
BITMAP
000001F8
000003F0
000003F0
000007E0
000007E0
00000FE0
00000FC0
00001FC0
00001F80
00003F80
00003F00
00003F00
00007E00
00007E00
0000FE00
0000FC00
0001FC00
0001F800
0003F800
0003F000
0003F000
0007E000
0007E000
000FE000
000FC000
001FC000
001F8000
003F8000
003F0000
003F0000
007E0000
007E0000
00FE0000
00FC0000
01FC0000
01F80000
03F80000
03F00000
03F00000
07E00000
07E00000
0FE00000
0FC00000
1FC00000
1F800000
3F800000
3F000000
3F000000
7E000000
7E000000
FC000000
ENDCHAR
STARTCHAR zero
ENCODING 48
SWIDTH 600 0
DWIDTH 43 0
BBX 33 53 5 -1
BITMAP
000FF80000
003FFE0000
00FFFF8000
01FFFFC000
03FFFFE000
07FF7FF000
0FF007F800
0FE003F800
1FC001FC00
1F8000FC00
3F8000FE00
3F00007E00
3F00007E00
7F00007F00
7F00007F00
7E00003F00
7E00003F00
7E00003F00
FE00003F80
FE00003F80
FE00003F80
FE00003F80
FE00003F80
FE00003F80
FE00003F80
FE00003F80
FE00003F80
FE00003F80
FE00003F80
FE00003F80
FE00003F80
FE00003F80
FE00003F80
FE00003F80
FE00003F80
7E00003F00
7E00003F00
7E00003F00
7F00007F00
7F00007F00
3F00007E00
3F00007E00
3F8000FE00
1F8000FC00
1FC001FC00
0FE003F800
0FF007F800
07FF7FF000
03FFFFE000
01FFFFC000
00FFFF8000
003FFE0000
000FF80000
ENDCHAR
STARTCHAR one
ENCODING 49
SWIDTH 600 0
DWIDTH 43 0
BBX 19 51 7 0
BITMAP
0007E0
000FE0
001FE0
007FE0
00FFE0
01FFE0
07FFE0
0FFFE0
1FE7E0
7FC7E0
FF87E0
7F07E0
7E07E0
3807E0
1007E0
0007E0
0007E0
0007E0
0007E0
0007E0
0007E0
0007E0
0007E0
0007E0
0007E0
0007E0
0007E0
0007E0
0007E0
0007E0
0007E0
0007E0
0007E0
0007E0
0007E0
0007E0
0007E0
0007E0
0007E0
0007E0
0007E0
0007E0
0007E0
0007E0
0007E0
0007E0
0007E0
0007E0
0007E0
0007E0
0007E0
ENDCHAR
STARTCHAR two
ENCODING 50
SWIDTH 600 0
DWIDTH 43 0
BBX 31 52 6 0
BITMAP
001FE000
01FFFC00
07FFFF00
0FFFFF80
3FFFFFC0
7FFDFFE0
7FC01FE0
3F000FF0
3C0007F0
180003F0
000003F8
000003F8
000003F8
000003F8
000003F8
000003F8
000003F8
000003F8
000003F0
000003F0
000007F0
000007E0
00000FE0
00001FC0
00001FC0
00003F80
00007F00
00007F00
0000FE00
0001FC00
0003F800
0007F800
000FF000
001FE000
001FC000
003F8000
007F0000
00FE0000
01FC0000
03FC0000
07F80000
0FF00000
0FE00000
1FC00000
3F800000
7F000000
FFFFFFFE
FFFFFFFE
FFFFFFFE
FFFFFFFE
FFFFFFFE
FFFFFFFE
ENDCHAR
STARTCHAR three
ENCODING 51
SWIDTH 600 0
DWIDTH 43 0
BBX 32 53 5 -1
BITMAP
003FF000
01FFFE00
0FFFFF80
1FFFFFC0
7FFFFFE0
FFFCFFF0
7F800FF0
3E0007F8
380003F8
100001FC
000001FC
000001FC
000001FC
000001FC
000001FC
000001FC
000001FC
000001F8
000003F8
000007F0
00000FF0
00001FE0
0000FFC0
00FFFF00
00FFFC00
00FFF000
00FFFF00
00FFFFC0
0003FFF0
00000FF8
000003FC
000001FE
000000FE
0000007E
0000007F
0000007F
0000007F
0000007F
0000007F
0000007F
0000007F
0000007F
000000FE
000000FE
800001FE
E00003FC
FC000FF8
FFFBFFF8
FFFFFFF0
FFFFFFC0
FFFFFF80
1FFFFE00
01FFE000
ENDCHAR
STARTCHAR four
ENCODING 52
SWIDTH 600 0
DWIDTH 43 0
BBX 38 51 2 0
BITMAP
000001FC00
000003FC00
000003FC00
000007FC00
00000FFC00
00000FFC00
00001FFC00
00003FFC00
00003EFC00
00007EFC00
0000FCFC00
0000FCFC00
0001F8FC00
0003F0FC00
0007F0FC00
0007E0FC00
000FC0FC00
001FC0FC00
001F80FC00
003F00FC00
007F00FC00
007E00FC00
00FC00FC00
01F800FC00
01F800FC00
03F000FC00
07E000FC00
07E000FC00
0FC000FC00
1F8000FC00
1F8000FC00
3F0000FC00
7E0000FC00
7E0000FC00
FFFFFFFFFC
FFFFFFFFFC
FFFFFFFFFC
FFFFFFFFFC
FFFFFFFFFC
FFFFFFFFFC
000000FC00
000000FC00
000000FC00
000000FC00
000000FC00
000000FC00
000000FC00
000000FC00
000000FC00
000000FC00
000000FC00
ENDCHAR
STARTCHAR five
ENCODING 53
SWIDTH 600 0
DWIDTH 43 0
BBX 31 52 6 -1
BITMAP
1FFFFFE0
1FFFFFE0
1FFFFFE0
1FFFFFE0
1FFFFFE0
3FFFFFE0
3F000000
3F000000
3F000000
3F000000
3F000000
3F000000
3F000000
3F000000
3F000000
3F000000
3F000000
3E000000
7E000000
7E000000
7EFFE000
7FFFFC00
7FFFFF00
7FFFFFC0
7FFFFFE0
1FF7FFF0
00001FF8
000007F8
000003FC
000001FC
000001FC
000000FE
000000FE
000000FE
000000FE
000000FE
000000FE
000000FE
000000FE
000000FE
000000FC
000001FC
000001FC
800003F8
C00007F8
F8001FF0
FFF7FFE0
FFFFFFC0
FFFFFF80
FFFFFF00
1FFFF800
03FFC000
ENDCHAR
STARTCHAR six
ENCODING 54
SWIDTH 600 0
DWIDTH 43 0
BBX 33 53 5 -1
BITMAP
00007FF000
0003FFF800
000FFFF800
003FFFF800
007FFFF800
01FFFCF800
01FF000000
03FC000000
07F8000000
0FF0000000
0FE0000000
1FC0000000
1FC0000000
3F80000000
3F80000000
3F00000000
3F00000000
7F00000000
7E00000000
7E00000000
7E03FE0000
7E0FFF8000
FE3FFFE000
FE7FFFF000
FEFFFFF800
FFFC07FC00
FFE001FE00
FFC000FE00
FF80007F00
FF00003F00
FF00003F00
FE00003F80
FE00001F80
FE00001F80
FE00001F80
FE00001F80
FE00001F80
7E00001F80
7E00001F80
7E00003F80
7F00003F80
3F00003F00
3F80007F00
3F80007F00
1FC000FE00
0FE001FE00
0FF803FC00
07FFBFF800
03FFFFF800
01FFFFE000
00FFFFC000
003FFF0000
0007F80000
ENDCHAR
STARTCHAR seven
ENCODING 55
SWIDTH 600 0
DWIDTH 43 0
BBX 33 51 5 0
BITMAP
FFFFFFFF80
FFFFFFFF80
FFFFFFFF80
FFFFFFFF80
FFFFFFFF80
FFFFFFFF80
0000003F00
0000003F00
0000007F00
0000007E00
000000FE00
000000FC00
000000FC00
000001FC00
000001F800
000003F800
000003F000
000007F000
000007E000
000007E000
00000FE000
00000FC000
00001FC000
00001F8000
00003F8000
00003F0000
00003F0000
00007F0000
00007E0000
0000FE0000
0000FC0000
0001FC0000
0001FC0000
0001F80000
0003F80000
0003F00000
0007F00000
0007E00000
000FE00000
000FE00000
000FC00000
001FC00000
001F800000
003F800000
003F800000
007F000000
007F000000
00FE000000
00FE000000
00FC000000
01FC000000
ENDCHAR
STARTCHAR eight
ENCODING 56
SWIDTH 600 0
DWIDTH 43 0
BBX 33 53 5 -1
BITMAP
000FF80000
007FFF0000
01FFFFC000
03FFFFE000
07FFFFF000
0FFF7FF800
1FF007FC00
1FC001FC00
1F8000FC00
3F8000FE00
3F00007E00
3F00007E00
3F00007E00
3F00007E00
3F00007E00
3F8000FE00
1F8000FC00
1FC001FC00
0FC003F800
0FF007F800
07F80FF000
03FE3FE000
01FFFFC000
00FFFF0000
007FFE0000
003FFE0000
00FFFF8000
03FFFFC000
07FC7FE000
0FF01FF800
1FE007FC00
3FC001FC00
3F8000FE00
7F00007F00
7E00003F00
FE00003F00
FE00003F80
FC00001F80
FC00001F80
FC00001F80
FC00001F80
FC00003F80
FE00003F80
7E00003F00
7F00007F00
7F8000FE00
3FC003FE00
1FFF7FFC00
1FFFFFF800
07FFFFF000
03FFFFE000
00FFFF8000
001FFC0000
ENDCHAR
STARTCHAR nine
ENCODING 57
SWIDTH 600 0
DWIDTH 43 0
BBX 33 53 5 -1
BITMAP
000FF00000
007FFE0000
01FFFF8000
03FFFFC000
0FFFFFE000
0FFEFFF000
1FE00FF800
3FC003F800
3F8001FC00
7F0000FC00
7E0000FE00
7E00007E00
FE00007F00
FE00003F00
FC00003F00
FC00003F00
FC00003F80
FC00003F80
FC00003F80
FC00003F80
FC00003F80
FE00003F80
7E00007F80
7E00007F80
7F0000FF80
3F8001FF80
3FC007FF80
1FF01FFF80
0FFFFFBF80
07FFFF3F80
03FFFE3F80
00FFF83F00
003FE03F00
0000003F00
0000003F00
0000007F00
0000007E00
0000007E00
000000FE00
000000FE00
000000FC00
000001FC00
000003F800
000007F800
00000FF000
00001FE000
00007FC000
0C03FF8000
0FFFFF0000
0FFFFE0000
0FFFF80000
0FFFE00000
0FFF000000
ENDCHAR
STARTCHAR colon
ENCODING 58
SWIDTH 600 0
DWIDTH 43 0
BBX 9 41 17 -1
BITMAP
3E00
7F00
FF80
FF80
FF80
FF80
FF80
FF80
7F00
3E00
0000
0000
0000
0000
0000
0000
0000
0000
0000
0000
0000
0000
0000
0000
0000
0000
0000
0000
0000
0000
0000
3E00
7F00
FF80
FF80
FF80
FF80
FF80
FF80
7F00
3E00
ENDCHAR
STARTCHAR semicolon
ENCODING 59
SWIDTH 600 0
DWIDTH 43 0
BBX 13 50 13 -10
BITMAP
03E0
07F0
0FF8
0FF8
0FF8
0FF8
0FF8
0FF8
07F0
03E0
0000
0000
0000
0000
0000
0000
0000
0000
0000
0000
0000
0000
0000
0000
0000
0000
0000
0000
0000
0000
0000
0000
0FF0
1FF0
1FF0
1FE0
1FE0
1FE0
1FC0
3FC0
3F80
3F80
3F80
7F00
7F00
7E00
7E00
7C00
FC00
FC00
ENDCHAR
STARTCHAR less
ENCODING 60
SWIDTH 600 0
DWIDTH 43 0
BBX 33 35 5 8
BITMAP
0000000080
0000000380
0000000F80
0000003F80
000000FF80
000007FF80
00001FFE00
00007FF800
0001FFE000
0007FF8000
001FFE0000
007FF00000
01FFC00000
07FF000000
1FFC000000
FFF0000000
FFC0000000
FE00000000
FFC0000000
FFF0000000
3FFC000000
07FF000000
01FFC00000
007FF00000
001FFE0000
0007FF8000
0001FFE000
00007FF800
00001FFE00
000007FF80
000000FF80
0000003F80
0000000F80
0000000380
0000000080
ENDCHAR
STARTCHAR equal
ENCODING 61
SWIDTH 600 0
DWIDTH 43 0
BBX 33 20 5 15
BITMAP
FFFFFFFF80
FFFFFFFF80
FFFFFFFF80
FFFFFFFF80
FFFFFFFF80
0000000000
0000000000
0000000000
0000000000
0000000000
0000000000
0000000000
0000000000
0000000000
0000000000
FFFFFFFF80
FFFFFFFF80
FFFFFFFF80
FFFFFFFF80
FFFFFFFF80
ENDCHAR
STARTCHAR greater
ENCODING 62
SWIDTH 600 0
DWIDTH 43 0
BBX 33 35 5 8
BITMAP
8000000000
E000000000
F800000000
FE00000000
FF80000000
FFF0000000
3FFC000000
0FFF000000
03FFC00000
00FFF00000
003FFC0000
0007FF0000
0001FFC000
00007FF000
00001FFE00
000007FF80
000001FF80
0000003F80
000001FF80
000007FF80
00001FFC00
00007FF000
0001FFC000
0007FF0000
003FFC0000
00FFF00000
03FFC00000
0FFF000000
3FFC000000
FFF0000000
FF80000000
FE00000000
F800000000
E000000000
8000000000
ENDCHAR
STARTCHAR question
ENCODING 63
SWIDTH 600 0
DWIDTH 43 0
BBX 31 53 6 -1
BITMAP
007FF000
07FFFE00
3FFFFF80
FFFFFFE0
FFFFFFF0
7FFFFFF8
7F000FF8
380003FC
200001FC
000000FE
000000FE
000000FE
0000007E
0000007E
000000FE
000000FE
000000FE
000000FC
000001FC
000003F8
000007F8
00000FF0
00001FE0
00007FC0
0000FF80
0001FF00
0003FC00
0007F800
000FF000
000FE000
001FC000
001F8000
001F8000
003F0000
003F0000
003F0000
003F0000
00000000
00000000
00000000
00000000
00000000
00000000
000E0000
003F8000
007FC000
007FC000
007FC000
007FC000
007FC000
007FC000
003F8000
001F0000
ENDCHAR
STARTCHAR at
ENCODING 64
SWIDTH 600 0
DWIDTH 43 0
BBX 41 57 1 -6
BITMAP
00007FC00000
0003FFF80000
000FFFFE0000
003FFFFF8000
007FFFFFC000
00FF803FE000
01FE000FF000
03F80003F000
03F00001F800
07E00000FC00
0FC00000FC00
0F8000007E00
1F8000003E00
1F0000003E00
3F001FE03F00
3E00FFFE1F00
3E01FFFE1F00
7E03FFFE1F00
7C07FFFE1F00
7C07E07E0F80
7C0FC07E0F80
7C1F807E0F80
F81F807C0F80
F81F007C0F80
F81F007C0F80
F83F00FC0F80
F83F00FC0F80
F83F00FC0F80
F83F00FC0F80
F83F00FC0F80
F83F00FC0F80
F83F00FC0F80
F83F00FC0F00
F83F00FC0F00
F83F01FC1F00
F81F01FC1F00
F81F81FC1E00
7C1F83DE3E00
7C0FFFDFFE00
7C0FFF9FFC00
7C07FF0FF800
3E03FE07F000
3E00F803E000
3F0000000000
1F0000000000
1F8000000000
0FC000000000
0FC000000000
07F000000000
03F800000000
03FE0000C000
01FF8007C000
00FFFFFFC000
003FFFFFC000
001FFFFFC000
0007FFFE0000
00007FE00000
ENDCHAR
STARTCHAR A
ENCODING 65
SWIDTH 600 0
DWIDTH 43 0
BBX 41 51 1 0
BITMAP
00007F000000
00007F000000
0000FF800000
0000FF800000
0000FF800000
0001FFC00000
0001FFC00000
0001F7C00000
0003F7E00000
0003F7E00000
0003F7E00000
0007E3F00000
0007E3F00000
0007E3F00000
000FE3F80000
000FC1F80000
000FC1F80000
001FC1FC0000
001F80FC0000
001F80FC0000
003F80FE0000
003F007E0000
003F007E0000
007F007F0000
007E003F0000
007E003F0000
00FE003F8000
00FE001F8000
00FC001F8000
01FC001FC000
01FFFFFFC000
01FFFFFFC000
03FFFFFFE000
03FFFFFFE000
03FFFFFFF000
07FFFFFFF000
07F00007F000
07E00003F800
0FE00003F800
0FE00003F800
0FC00001FC00
1FC00001FC00
1FC00001FC00
1F800000FE00
3F800000FE00
3F800000FE00
7F0000007F00
7F0000007F00
7F0000007F00
FE0000003F80
FE0000003F80
ENDCHAR
STARTCHAR B
ENCODING 66
SWIDTH 600 0
DWIDTH 43 0
BBX 35 51 5 0
BITMAP
FFFFFC0000
FFFFFFC000
FFFFFFF800
FFFFFFFC00
FFFFFFFE00
FFFFFFFF00
FE0003FF80
FE0000FF80
FE00003F80
FE00003FC0
FE00001FC0
FE00001FC0
FE00001FC0
FE00001FC0
FE00001FC0
FE00001FC0
FE00001FC0
FE00003F80
FE00003F80
FE00007F00
FE0000FE00
FE0007FC00
FFFFFFF800
FFFFFFE000
FFFFFF0000
FFFFFFE000
FFFFFFF800
FFFFFFFE00
FE0001FF00
FE00007F80
FE00003FC0
FE00001FC0
FE00001FC0
FE00000FE0
FE00000FE0
FE00000FE0
FE00000FE0
FE00000FE0
FE00000FE0
FE00000FE0
FE00001FE0
FE00001FC0
FE00003FC0
FE00007F80
FE0001FF80
FFFFFFFF00
FFFFFFFE00
FFFFFFFC00
FFFFFFF800
FFFFFFE000
FFFFFE0000
ENDCHAR
STARTCHAR C
ENCODING 67
SWIDTH 600 0
DWIDTH 43 0
BBX 36 53 5 -1
BITMAP
00003FF800
0003FFFF80
000FFFFFE0
003FFFFFF0
007FFFFFE0
00FFFFFFE0
01FFC00FC0
03FF0001C0
07FC000000
0FF8000000
0FF0000000
1FE0000000
1FC0000000
3FC0000000
3F80000000
3F80000000
7F00000000
7F00000000
7F00000000
7F00000000
FE00000000
FE00000000
FE00000000
FE00000000
FE00000000
FE00000000
FE00000000
FE00000000
FE00000000
FE00000000
FE00000000
FE00000000
FE00000000
FF00000000
7F00000000
7F00000000
7F00000000
7F80000000
3F80000000
3F80000000
3FC0000000
1FE0000000
1FE0000000
0FF0000000
0FFC000000
07FE000040
03FFC007C0
01FFFFFFC0
00FFFFFFC0
007FFFFFC0
001FFFFFC0
0007FFFF80
0000FFF000
ENDCHAR
STARTCHAR D
ENCODING 68
SWIDTH 600 0
DWIDTH 43 0
BBX 35 51 5 0
BITMAP
FFFFC00000
FFFFF80000
FFFFFF0000
FFFFFF8000
FFFFFFE000
FFFFFFF000
FE003FF800
FE000FFC00
FE0003FC00
FE0001FE00
FE0000FF00
FE00007F00
FE00007F80
FE00003F80
FE00003F80
FE00001FC0
FE00001FC0
FE00001FC0
FE00001FC0
FE00000FE0
FE00000FE0
FE00000FE0
FE00000FE0
FE00000FE0
FE00000FE0
FE00000FE0
FE00000FE0
FE00000FE0
FE00000FE0
FE00000FE0
FE00000FE0
FE00000FE0
FE00001FC0
FE00001FC0
FE00001FC0
FE00003FC0
FE00003F80
FE00003F80
FE00007F00
FE0000FF00
FE0001FE00
FE0003FE00
FE0007FC00
FE001FF800
FE007FF000
FFFFFFE000
FFFFFFC000
FFFFFF8000
FFFFFE0000
FFFFF80000
FFFF000000
ENDCHAR
STARTCHAR E
ENCODING 69
SWIDTH 600 0
DWIDTH 43 0
BBX 29 51 8 0
BITMAP
FFFFFFF8
FFFFFFF8
FFFFFFF8
FFFFFFF8
FFFFFFF8
FFFFFFF8
FE000000
FE000000
FE000000
FE000000
FE000000
FE000000
FE000000
FE000000
FE000000
FE000000
FE000000
FE000000
FE000000
FE000000
FE000000
FFFFFFF0
FFFFFFF0
FFFFFFF0
FFFFFFF0
FFFFFFF0
FFFFFFF0
FE000000
FE000000
FE000000
FE000000
FE000000
FE000000
FE000000
FE000000
FE000000
FE000000
FE000000
FE000000
FE000000
FE000000
FE000000
FE000000
FE000000
FE000000
FFFFFFF8
FFFFFFF8
FFFFFFF8
FFFFFFF8
FFFFFFF8
FFFFFFF8
ENDCHAR
STARTCHAR F
ENCODING 70
SWIDTH 600 0
DWIDTH 43 0
BBX 29 51 9 0
BITMAP
FFFFFFF8
FFFFFFF8
FFFFFFF8
FFFFFFF8
FFFFFFF8
FFFFFFF8
FE000000
FE000000
FE000000
FE000000
FE000000
FE000000
FE000000
FE000000
FE000000
FE000000
FE000000
FE000000
FE000000
FE000000
FE000000
FE000000
FE000000
FE000000
FFFFFFF0
FFFFFFF0
FFFFFFF0
FFFFFFF0
FFFFFFF0
FFFFFFF0
FE000000
FE000000
FE000000
FE000000
FE000000
FE000000
FE000000
FE000000
FE000000
FE000000
FE000000
FE000000
FE000000
FE000000
FE000000
FE000000
FE000000
FE000000
FE000000
FE000000
FE000000
ENDCHAR
STARTCHAR G
ENCODING 71
SWIDTH 600 0
DWIDTH 43 0
BBX 34 53 4 -1
BITMAP
0000FFC000
0007FFFC00
001FFFFF00
007FFFFF80
00FFFFFF80
01FFFFFF00
03FF003F00
07FC000E00
07F8000200
0FF0000000
1FE0000000
1FC0000000
3FC0000000
3F80000000
3F80000000
7F80000000
7F00000000
7F00000000
7F00000000
FE00000000
FE00000000
FE00000000
FE00000000
FE00000000
FE00000000
FE001FFFC0
FE001FFFC0
FE001FFFC0
FE001FFFC0
FE001FFFC0
FE001FFFC0
FE00001FC0
FE00001FC0
FE00001FC0
7F00001FC0
7F00001FC0
7F00001FC0
7F00001FC0
3F80001FC0
3F80001FC0
3F80001FC0
1FC0001FC0
1FE0001FC0
0FE0001FC0
0FF0001FC0
07FC001FC0
03FF003FC0
03FFFFFFC0
01FFFFFFC0
00FFFFFFC0
003FFFFFC0
000FFFFE00
0001FFC000
ENDCHAR
STARTCHAR H
ENCODING 72
SWIDTH 600 0
DWIDTH 43 0
BBX 33 51 5 0
BITMAP
FE00003F80
FE00003F80
FE00003F80
FE00003F80
FE00003F80
FE00003F80
FE00003F80
FE00003F80
FE00003F80
FE00003F80
FE00003F80
FE00003F80
FE00003F80
FE00003F80
FE00003F80
FE00003F80
FE00003F80
FE00003F80
FE00003F80
FE00003F80
FE00003F80
FFFFFFFF80
FFFFFFFF80
FFFFFFFF80
FFFFFFFF80
FFFFFFFF80
FFFFFFFF80
FE00003F80
FE00003F80
FE00003F80
FE00003F80
FE00003F80
FE00003F80
FE00003F80
FE00003F80
FE00003F80
FE00003F80
FE00003F80
FE00003F80
FE00003F80
FE00003F80
FE00003F80
FE00003F80
FE00003F80
FE00003F80
FE00003F80
FE00003F80
FE00003F80
FE00003F80
FE00003F80
FE00003F80
ENDCHAR
STARTCHAR I
ENCODING 73
SWIDTH 600 0
DWIDTH 43 0
BBX 27 51 8 0
BITMAP
FFFFFFE0
FFFFFFE0
FFFFFFE0
FFFFFFE0
3FFFFF00
003F8000
003F8000
003F8000
003F8000
003F8000
003F8000
003F8000
003F8000
003F8000
003F8000
003F8000
003F8000
003F8000
003F8000
003F8000
003F8000
003F8000
003F8000
003F8000
003F8000
003F8000
003F8000
003F8000
003F8000
003F8000
003F8000
003F8000
003F8000
003F8000
003F8000
003F8000
003F8000
003F8000
003F8000
003F8000
003F8000
003F8000
003F8000
003F8000
003F8000
003F8000
3FFFFF80
FFFFFFE0
FFFFFFE0
FFFFFFE0
FFFFFFE0
ENDCHAR
STARTCHAR J
ENCODING 74
SWIDTH 600 0
DWIDTH 43 0
BBX 29 52 5 -1
BITMAP
000003F8
000003F8
000003F8
000003F8
000003F8
000003F8
000003F8
000003F8
000003F8
000003F8
000003F8
000003F8
000003F8
000003F8
000003F8
000003F8
000003F8
000003F8
000003F8
000003F8
000003F8
000003F8
000003F8
000003F8
000003F8
000003F8
000003F8
000003F8
000003F8
000003F8
000003F8
000003F8
000003F8
000003F8
000003F8
000003F8
000003F8
000003F8
000003F8
000003F8
000007F0
000007F0
00000FF0
00001FE0
80003FE0
F800FFC0
FFFFFF80
FFFFFF00
FFFFFE00
FFFFFC00
7FFFE000
07FF0000
ENDCHAR
STARTCHAR K
ENCODING 75
SWIDTH 600 0
DWIDTH 43 0
BBX 35 51 7 0
BITMAP
FE00001FE0
FE00003FC0
FE00007F80
FE00007F00
FE0000FE00
FE0001FC00
FE0003FC00
FE0007F800
FE000FF000
FE000FE000
FE001FC000
FE003F8000
FE007F0000
FE00FF0000
FE01FE0000
FE03FC0000
FE03F80000
FE07F00000
FE0FE00000
FE1FC00000
FE3F800000
FE3F800000
FE7F000000
FEFF800000
FFFF800000
FFFFC00000
FFFFE00000
FFEFE00000
FF87F00000
FF07F80000
FE03FC0000
FE01FC0000
FE01FE0000
FE00FF0000
FE007F0000
FE007F8000
FE003FC000
FE001FC000
FE001FE000
FE000FF000
FE0007F000
FE0007F800
FE0003FC00
FE0001FC00
FE0001FE00
FE0000FF00
FE00007F00
FE00007F80
FE00003FC0
FE00001FC0
FE00001FE0
ENDCHAR
STARTCHAR L
ENCODING 76
SWIDTH 600 0
DWIDTH 43 0
BBX 29 51 8 0
BITMAP
FE000000
FE000000
FE000000
FE000000
FE000000
FE000000
FE000000
FE000000
FE000000
FE000000
FE000000
FE000000
FE000000
FE000000
FE000000
FE000000
FE000000
FE000000
FE000000
FE000000
FE000000
FE000000
FE000000
FE000000
FE000000
FE000000
FE000000
FE000000
FE000000
FE000000
FE000000
FE000000
FE000000
FE000000
FE000000
FE000000
FE000000
FE000000
FE000000
FE000000
FE000000
FE000000
FE000000
FE000000
FE000000
FFFFFFF8
FFFFFFF8
FFFFFFF8
FFFFFFF8
FFFFFFF8
FFFFFFF8
ENDCHAR
STARTCHAR M
ENCODING 77
SWIDTH 600 0
DWIDTH 43 0
BBX 35 51 4 0
BITMAP
FF80003FE0
FF80003FE0
FF80003FE0
FF80007FE0
FFC0007FE0
FFC0007FE0
FFC0007FE0
FFC0007FE0
FFC000FBE0
FBE000FBE0
FBE000FBE0
FBE000FBE0
FBE000F3E0
F9E001F3E0
F9F001F3E0
F9F001F3E0
F9F001F3E0
F9F001E3E0
F8F003E3E0
F8F803E3E0
F8F803E3E0
F8F803C3E0
F8F807C3E0
F87C07C3E0
F87C07C3E0
F87C07C3E0
F87C0783E0
F83C0F83E0
F83E0F83E0
F83E0F83E0
F83E0F83E0
F83E0F03E0
F81E1F03E0
F81F1F03E0
F81F1F03E0
F81F1E03E0
F80F1E03E0
F80F3E03E0
F80FBE03E0
F80FBE03E0
F80FBC03E0
F807FC03E0
F807FC03E0
F807FC03E0
F807F803E0
F807F803E0
F803F803E0
F803F803E0
F803F803E0
F803F003E0
F801F003E0
ENDCHAR
STARTCHAR N
ENCODING 78
SWIDTH 600 0
DWIDTH 43 0
BBX 33 51 5 0
BITMAP
FF00001F80
FF00001F80
FF80001F80
FF80001F80
FFC0001F80
FFC0001F80
FFE0001F80
FFE0001F80
FFE0001F80
FBF0001F80
FBF0001F80
FDF8001F80
FDF8001F80
FCFC001F80
FCFC001F80
FC7E001F80
FC7E001F80
FC3F001F80
FC3F001F80
FC1F801F80
FC1F801F80
FC0FC01F80
FC0FC01F80
FC07E01F80
FC07E01F80
FC03F01F80
FC03F01F80
FC03F01F80
FC01F81F80
FC01F81F80
FC00FC1F80
FC00FC1F80
FC007E1F80
FC007E1F80
FC003F1F80
FC003F1F80
FC001F9F80
FC001F9F80
FC000FDF80
FC000FDF80
FC0007FF80
FC0007FF80
FC0007FF80
FC0003FF80
FC0003FF80
FC0001FF80
FC0001FF80
FC0000FF80
FC0000FF80
FC00007F80
FC00007F80
ENDCHAR
STARTCHAR O
ENCODING 79
SWIDTH 600 0
DWIDTH 43 0
BBX 37 53 3 -1
BITMAP
0003FE0000
001FFFC000
007FFFF000
00FFFFF800
03FFFFFC00
07FFFFFE00
07FE01FF00
0FF800FF80
1FF0003F80
1FE0003FC0
1FC0001FC0
3FC0000FE0
3F80000FE0
7F80000FE0
7F000007F0
7F000007F0
7F000007F0
7F000007F0
FE000003F0
FE000003F8
FE000003F8
FE000003F8
FE000003F8
FE000003F8
FE000003F8
FE000003F8
FE000003F8
FE000003F8
FE000003F8
FE000003F8
FE000003F8
FE000003F8
FE000003F8
FE000003F8
FE000003F0
7F000007F0
7F000007F0
7F000007F0
7F000007F0
3F80000FE0
3F80000FE0
3FC0000FE0
1FC0001FC0
1FE0003FC0
1FF0003F80
0FF800FF80
07FE01FF00
07FFFFFE00
03FFFFFC00
01FFFFF800
007FFFF000
001FFFC000
0003FE0000
ENDCHAR
STARTCHAR P
ENCODING 80
SWIDTH 600 0
DWIDTH 43 0
BBX 32 51 6 0
BITMAP
FFFFF000
FFFFFF00
FFFFFFC0
FFFFFFE0
FFFFFFF0
FFFFFFF8
FE001FFC
FE0007FC
FE0001FE
FE0001FE
FE0000FE
FE0000FF
FE00007F
FE00007F
FE00007F
FE00007F
FE00007F
FE00007F
FE00007F
FE00007F
FE0000FE
FE0000FE
FE0001FE
FE0003FC
FE0007F8
FE003FF8
FFFFFFF0
FFFFFFE0
FFFFFFC0
FFFFFF00
FFFFF800
FFFE0000
FE000000
FE000000
FE000000
FE000000
FE000000
FE000000
FE000000
FE000000
FE000000
FE000000
FE000000
FE000000
FE000000
FE000000
FE000000
FE000000
FE000000
FE000000
FE000000
ENDCHAR
STARTCHAR Q
ENCODING 81
SWIDTH 600 0
DWIDTH 43 0
BBX 37 67 3 -15
BITMAP
0003FE0000
001FFFC000
007FFFF000
00FFFFF800
03FFFFFC00
07FFFFFE00
07FE01FF00
0FF800FF80
1FF0003F80
1FE0003FC0
1FC0001FC0
3FC0000FE0
3F80000FE0
7F80000FE0
7F000007F0
7F000007F0
7F000007F0
7F000007F0
FE000003F0
FE000003F8
FE000003F8
FE000003F8
FE000003F8
FE000003F8
FE000003F8
FE000003F8
FE000003F8
FE000003F8
FE000003F8
FE000003F8
FE000003F8
FE000003F8
FE000003F8
FE000003F8
FE000003F0
7F000007F0
7F000007F0
7F000007F0
7F000007F0
3F80000FE0
3F80000FE0
3FC0000FE0
1FC0001FC0
1FE0003FC0
1FF0003F80
0FF800FF80
07FE01FF00
07FFFFFE00
03FFFFFC00
01FFFFF800
007FFFF000
001FFFE000
0003FFF000
000007F000
000003F800
000003FC00
000001FE00
000000FF00
000000FF80
0000007FC0
0000003FE0
0000001FF0
0000001FF8
00000007F0
00000003E0
00000001C0
0000000080
ENDCHAR
STARTCHAR R
ENCODING 82
SWIDTH 600 0
DWIDTH 43 0
BBX 34 51 7 0
BITMAP
FFFFC00000
FFFFFC0000
FFFFFF0000
FFFFFF8000
FFFFFFE000
FFFFFFE000
FE003FF000
FE000FF800
FE0007F800
FE0003F800
FE0003FC00
FE0001FC00
FE0001FC00
FE0001FC00
FE0001FC00
FE0001FC00
FE0001FC00
FE0001FC00
FE0001F800
FE0003F800
FE0003F800
FE0007F000
FE001FF000
FE007FE000
FFFFFFC000
FFFFFF8000
FFFFFE0000
FFFFF80000
FFFFF80000
FFFFF80000
FE01FC0000
FE01FC0000
FE00FE0000
FE007F0000
FE007F0000
FE003F8000
FE003F8000
FE001FC000
FE001FE000
FE000FE000
FE0007F000
FE0007F000
FE0003F800
FE0003FC00
FE0001FC00
FE0001FE00
FE0000FF00
FE00007F00
FE00007F80
FE00003F80
FE00003FC0
ENDCHAR
STARTCHAR S
ENCODING 83
SWIDTH 600 0
DWIDTH 43 0
BBX 33 53 5 -1
BITMAP
000FFF0000
007FFFF800
01FFFFFE00
07FFFFFF00
0FFFFFFE00
1FFFFFFE00
1FF000FE00
3FC0001C00
3F80000000
7F00000000
7F00000000
7F00000000
7F00000000
7F00000000
7F00000000
7F00000000
7F00000000
3F80000000
3F80000000
3FC0000000
1FF0000000
1FFC000000
0FFF000000
07FFE00000
03FFF80000
00FFFF0000
003FFF8000
000FFFE000
0003FFF800
00007FFC00
00001FFE00
000007FE00
000001FF00
000000FF00
0000007F00
0000003F80
0000003F80
0000003F80
0000003F80
0000003F80
0000003F80
0000003F80
0000003F80
0000007F00
000000FF00
E00001FE00
FE0007FE00
FFFFFFFC00
FFFFFFF800
FFFFFFF000
FFFFFFC000
3FFFFF0000
01FFF00000
ENDCHAR
STARTCHAR T
ENCODING 84
SWIDTH 600 0
DWIDTH 43 0
BBX 36 51 3 0
BITMAP
FFFFFFFFF0
FFFFFFFFF0
FFFFFFFFF0
FFFFFFFFF0
FFFFFFFFF0
FFFFFFFFF0
0001FC0000
0001FC0000
0001FC0000
0001FC0000
0001FC0000
0001FC0000
0001FC0000
0001FC0000
0001FC0000
0001FC0000
0001FC0000
0001FC0000
0001FC0000
0001FC0000
0001FC0000
0001FC0000
0001FC0000
0001FC0000
0001FC0000
0001FC0000
0001FC0000
0001FC0000
0001FC0000
0001FC0000
0001FC0000
0001FC0000
0001FC0000
0001FC0000
0001FC0000
0001FC0000
0001FC0000
0001FC0000
0001FC0000
0001FC0000
0001FC0000
0001FC0000
0001FC0000
0001FC0000
0001FC0000
0001FC0000
0001FC0000
0001FC0000
0001FC0000
0001FC0000
0001FC0000
ENDCHAR
STARTCHAR U
ENCODING 85
SWIDTH 600 0
DWIDTH 43 0
BBX 35 52 4 -1
BITMAP
FE00000FE0
FE00000FE0
FE00000FE0
FE00000FE0
FE00000FE0
FE00000FE0
FE00000FE0
FE00000FE0
FE00000FE0
FE00000FE0
FE00000FE0
FE00000FE0
FE00000FE0
FE00000FE0
FE00000FE0
FE00000FE0
FE00000FE0
FE00000FE0
FE00000FE0
FE00000FE0
FE00000FE0
FE00000FE0
FE00000FE0
FE00000FE0
FE00000FE0
FE00000FE0
FE00000FE0
FE00000FE0
FE00000FE0
FE00000FE0
FE00000FE0
FE00000FE0
FE00000FE0
FE00000FE0
FE00000FE0
FE00000FE0
FE00000FE0
FE00000FE0
FE00000FE0
7E00001FC0
7F00001FC0
7F00001FC0
7F80003F80
3FC0007F80
3FE000FF00
1FF803FF00
0FFFFFFE00
07FFFFFC00
03FFFFF800
01FFFFF000
007FFFC000
000FFE0000
ENDCHAR
STARTCHAR V
ENCODING 86
SWIDTH 600 0
DWIDTH 43 0
BBX 41 51 1 0
BITMAP
FE0000003F80
7E0000003F80
7F0000007F00
7F0000007F00
3F0000007E00
3F800000FE00
3F800000FE00
1F800000FC00
1FC00001FC00
1FC00001FC00
0FC00001F800
0FE00003F800
0FE00003F800
07E00003F000
07F00007F000
07F00007F000
03F00007E000
03F8000FE000
03F8000FE000
01F8000FC000
01FC001FC000
01FC001FC000
00FC001F8000
00FE001F8000
00FE003F8000
007E003F0000
007E003F0000
007F007F0000
003F007E0000
003F007E0000
003F80FE0000
001F80FC0000
001F80FC0000
001FC1FC0000
000FC1F80000
000FC1F80000
000FE3F80000
0007E3F00000
0007E3F00000
0007E3F00000
0003F7E00000
0003F7E00000
0003F7E00000
0001F7C00000
0001FFC00000
0001FFC00000
0000FF800000
0000FF800000
0000FF800000
00007F000000
00007F000000
ENDCHAR
STARTCHAR W
ENCODING 87
SWIDTH 600 0
DWIDTH 43 0
BBX 43 51 0 0
BITMAP
FC00000007E0
FC00000007E0
FC00000007E0
FC00000007E0
7E00000007C0
7E0000000FC0
7E0000000FC0
7E0000000FC0
7E0000000FC0
7E0000000FC0
7E0000000FC0
3E0000000FC0
3F0000000F80
3F0000000F80
3F0000000F80
3F0000001F80
3F003F801F80
3F003F801F80
1F003F801F80
1F807FC01F80
1F807FC01F00
1F807BC01F00
1F807BE01F00
1F80FBE01F00
1F80FBE01F00
0F80FBE03F00
0F81F1F03F00
0FC1F1F03F00
0FC1F1F03E00
0FC1F1F83E00
0FC3E0F83E00
0FC3E0F83E00
0FC3E0F83E00
07C3E07C3E00
07C7C07C7E00
07C7C07C7E00
07C7C03E7C00
07CF803E7C00
07EF803E7C00
07EF803E7C00
03EF801F7C00
03EF001F7C00
03FF001F7C00
03FF000F7C00
03FF000FF800
03FE000FF800
03FE0007F800
01FE0007F800
01FC0007F800
01FC0003F800
01FC0003F800
ENDCHAR
STARTCHAR X
ENCODING 88
SWIDTH 600 0
DWIDTH 43 0
BBX 39 51 2 0
BITMAP
7F000001FC
3F800003F8
1F800003F0
1FC00007F0
0FE00007E0
0FE0000FE0
07F0001FC0
03F0001F80
03F8003F80
01FC003F00
01FC007F00
00FE00FE00
007E00FC00
007F01FC00
003F81F800
003F83F800
001FC7F000
000FC7E000
000FEFE000
0007FFC000
0007FF8000
0003FF8000
0001FF0000
0001FF0000
0000FE0000
0001FF0000
0001FF0000
0003FF8000
0007FFC000
0007EFC000
000FEFE000
000FC7E000
001F87F000
003F83F800
003F03F800
007F01FC00
007E00FC00
00FC00FE00
01FC007F00
01F8007F00
03F8003F80
03F0003F80
07F0001FC0
0FE0001FE0
0FC0000FE0
1FC00007F0
1F800007F0
3F800003F8
7F000003FC
7F000001FC
FE000001FE
ENDCHAR
STARTCHAR Y
ENCODING 89
SWIDTH 600 0
DWIDTH 43 0
BBX 41 51 1 0
BITMAP
FE0000003F80
7F0000007F00
7F0000007F00
3F800000FE00
3F800000FC00
1FC00001FC00
0FC00003F800
0FE00003F800
07E00007F000
07F00007F000
03F8000FE000
03F8000FE000
01FC001FC000
01FC001F8000
00FE003F8000
00FE003F0000
007F007F0000
003F007E0000
003F80FE0000
001F81FC0000
001FC1F80000
000FC3F80000
000FE3F00000
0007E7F00000
0007F7E00000
0003FFE00000
0001FFC00000
0001FFC00000
0000FF800000
0000FF000000
00007F000000
00007F000000
00007F000000
00007F000000
00007F000000
00007F000000
00007F000000
00007F000000
00007F000000
00007F000000
00007F000000
00007F000000
00007F000000
00007F000000
00007F000000
00007F000000
00007F000000
00007F000000
00007F000000
00007F000000
00007F000000
ENDCHAR
STARTCHAR Z
ENCODING 90
SWIDTH 600 0
DWIDTH 43 0
BBX 35 51 4 0
BITMAP
7FFFFFFFC0
7FFFFFFFC0
7FFFFFFFC0
7FFFFFFFC0
7FFFFFFFC0
7FFFFFFFC0
0000003F80
0000007F00
0000007F00
000000FE00
000000FC00
000001FC00
000003F800
000003F000
000007F000
00000FE000
00000FC000
00001FC000
00003F8000
00003F0000
00007F0000
0000FE0000
0000FC0000
0001FC0000
0003F80000
0003F00000
0007F00000
000FE00000
000FC00000
001FC00000
003F800000
003F000000
007F000000
00FE000000
00FC000000
01FC000000
03F8000000
03F0000000
07F0000000
0FE0000000
0FC0000000
1FC0000000
3F80000000
3F80000000
7F00000000
FFFFFFFFE0
FFFFFFFFE0
FFFFFFFFE0
FFFFFFFFE0
FFFFFFFFE0
FFFFFFFFE0
ENDCHAR
STARTCHAR bracketleft
ENCODING 91
SWIDTH 600 0
DWIDTH 43 0
BBX 19 62 14 -11
BITMAP
FFFFE0
FFFFE0
FFFFE0
FFFFE0
FFFFE0
FC0000
FC0000
FC0000
FC0000
FC0000
FC0000
FC0000
FC0000
FC0000
FC0000
FC0000
FC0000
FC0000
FC0000
FC0000
FC0000
FC0000
FC0000
FC0000
FC0000
FC0000
FC0000
FC0000
FC0000
FC0000
FC0000
FC0000
FC0000
FC0000
FC0000
FC0000
FC0000
FC0000
FC0000
FC0000
FC0000
FC0000
FC0000
FC0000
FC0000
FC0000
FC0000
FC0000
FC0000
FC0000
FC0000
FC0000
FC0000
FC0000
FC0000
FC0000
FC0000
FFFFE0
FFFFE0
FFFFE0
FFFFE0
FFFFE0
ENDCHAR
STARTCHAR backslash
ENCODING 92
SWIDTH 600 0
DWIDTH 43 0
BBX 29 51 7 0
BITMAP
FC000000
7E000000
7E000000
3F000000
3F000000
3F800000
1F800000
1FC00000
0FC00000
0FC00000
07E00000
07E00000
03F00000
03F00000
03F80000
01F80000
01FC0000
00FC0000
00FC0000
007E0000
007E0000
003F0000
003F0000
003F8000
001F8000
001FC000
000FC000
000FE000
0007E000
0007E000
0003F000
0003F000
0001F800
0001F800
0001FC00
0000FC00
0000FE00
00007E00
00007E00
00003F00
00003F00
00001F80
00001F80
00001FC0
00000FC0
00000FE0
000007E0
000007E0
000003F0
000003F0
000001F8
ENDCHAR
STARTCHAR bracketright
ENCODING 93
SWIDTH 600 0
DWIDTH 43 0
BBX 19 62 10 -11
BITMAP
FFFFE0
FFFFE0
FFFFE0
FFFFE0
FFFFE0
0007E0
0007E0
0007E0
0007E0
0007E0
0007E0
0007E0
0007E0
0007E0
0007E0
0007E0
0007E0
0007E0
0007E0
0007E0
0007E0
0007E0
0007E0
0007E0
0007E0
0007E0
0007E0
0007E0
0007E0
0007E0
0007E0
0007E0
0007E0
0007E0
0007E0
0007E0
0007E0
0007E0
0007E0
0007E0
0007E0
0007E0
0007E0
0007E0
0007E0
0007E0
0007E0
0007E0
0007E0
0007E0
0007E0
0007E0
0007E0
0007E0
0007E0
0007E0
0007E0
FFFFE0
FFFFE0
FFFFE0
FFFFE0
FFFFE0
ENDCHAR
STARTCHAR asciicircum
ENCODING 94
SWIDTH 600 0
DWIDTH 43 0
BBX 35 32 4 20
BITMAP
0003C00000
0003E00000
0007F00000
0007F00000
0007F80000
000FF80000
000FFC0000
001F7C0000
001F7E0000
003E3E0000
003E3F0000
007C1F0000
007C1F8000
00FC0F8000
00F80FC000
00F807C000
01F007E000
01F003E000
03E003F000
03E001F000
07E001F800
07C000FC00
0FC000FC00
0F80007E00
1F80003E00
1F00003F00
1F00001F00
3F00001F80
3E00000F80
7E00000FC0
7C000007C0
FC000007E0
ENDCHAR
STARTCHAR underscore
ENCODING 95
SWIDTH 600 0
DWIDTH 43 0
BBX 45 5 -1 -11
BITMAP
FFFFFFFFFFF8
FFFFFFFFFFF8
FFFFFFFFFFF8
FFFFFFFFFFF8
FFFFFFFFFFF8
ENDCHAR
STARTCHAR grave
ENCODING 96
SWIDTH 600 0
DWIDTH 43 0
BBX 14 12 14 44
BITMAP
FF00
FF00
7F80
3F80
1FC0
1FE0
0FE0
07F0
03F0
01F8
00FC
007C
ENDCHAR
STARTCHAR a
ENCODING 97
SWIDTH 600 0
DWIDTH 43 0
BBX 31 41 5 -1
BITMAP
001FFC00
01FFFF80
07FFFFE0
1FFFFFF0
1FFFFFF8
0FFC3FF8
0F8007FC
060003FC
000001FC
000000FE
000000FE
000000FE
0000007E
0000007E
0000007E
0000007E
0000007E
0003FFFE
007FFFFE
03FFFFFE
07FFFFFE
1FFFFC7E
3FF8007E
3FC0007E
7F80007E
7F00007E
FE0000FE
FE0000FE
FE0000FE
FE0000FE
FE0001FE
FE0001FE
FE0003FE
7F0007FE
7F000FFE
7FC07F7E
3FFFFF7E
1FFFFC3E
0FFFF83E
07FFF03E
00FF8000
ENDCHAR
STARTCHAR b
ENCODING 98
SWIDTH 600 0
DWIDTH 43 0
BBX 32 56 6 -1
BITMAP
FC000000
FC000000
FC000000
FC000000
FC000000
FC000000
FC000000
FC000000
FC000000
FC000000
FC000000
FC000000
FC000000
FC000000
FC000000
FC07F800
FC1FFF00
FC7FFF80
FCFFFFC0
FDFFFFE0
FDFC3FF0
FFE007F8
FFC003F8
FF8001FC
FF0001FC
FF0000FE
FE0000FE
FE0000FE
FE00007E
FE00007F
FE00007F
FE00007F
FC00007F
FC00007F
FC00007F
FC00007F
FC00007F
FC00007F
FC00007F
FE00007F
FE00007F
FE00007F
FE00007E
FE0000FE
FE0000FE
FF0000FE
FF0001FC
FF8001FC
FFC003F8
FFE007F8
FFFC3FF0
FDFFFFE0
F8FFFFC0
F87FFF80
F81FFF00
0007F800
ENDCHAR
STARTCHAR c
ENCODING 99
SWIDTH 600 0
DWIDTH 43 0
BBX 31 41 6 -1
BITMAP
0003FF80
001FFFF8
007FFFFE
01FFFFFC
03FFFFFC
07FFFFFC
0FFC0078
1FF00008
1FE00000
3FC00000
3F800000
7F000000
7F000000
7F000000
7E000000
FE000000
FE000000
FE000000
FE000000
FE000000
FE000000
FE000000
FE000000
FE000000
FE000000
FE000000
FE000000
7E000000
7F000000
7F000000
3F800000
3FC00000
1FC00000
1FF00004
0FFC003C
07FFFFFC
03FFFFFC
01FFFFFC
00FFFFFC
003FFFF8
0003FF80
ENDCHAR
STARTCHAR d
ENCODING 100
SWIDTH 600 0
DWIDTH 43 0
BBX 32 56 5 -1
BITMAP
0000003F
0000003F
0000003F
0000003F
0000003F
0000003F
0000003F
0000003F
0000003F
0000003F
0000003F
0000003F
0000003F
0000003F
0000003F
001FE03F
00FFF83F
01FFFE3F
03FFFF3F
07FFFFBF
0FFC3FFF
1FE007FF
1FC003FF
3F8001FF
3F8000FF
7F0000FF
7F0000FF
7F00007F
7E00007F
FE00007F
FE00007F
FE00007F
FE00007F
FE00003F
FE00003F
FE00003F
FE00003F
FE00003F
FE00003F
FE00007F
FE00007F
FE00007F
7E00007F
7E00007F
7F00007F
7F0000FF
3F8000FF
3F8001FF
1FC003FF
1FE007FF
0FFC3FBF
07FFFFBF
07FFFF3F
01FFFE1F
00FFF81F
001FC000
ENDCHAR
STARTCHAR e
ENCODING 101
SWIDTH 600 0
DWIDTH 43 0
BBX 33 41 5 -1
BITMAP
0007F80000
003FFF0000
00FFFFC000
01FFFFE000
03FFFFF000
07FE1FF800
0FF003FC00
1FC000FE00
1F8000FE00
3F80007F00
3F00007F00
7F00003F00
7E00003F80
7E00003F80
7E00003F80
FE00003F80
FFFFFFFF80
FFFFFFFF80
FFFFFFFF80
FFFFFFFF80
FFFFFFFF80
FE00000000
FE00000000
FE00000000
FE00000000
FE00000000
7E00000000
7E00000000
7F00000000
7F00000000
3F80000000
3F80000000
1FC0000000
1FE0000600
0FF8003E00
07FFFFFE00
03FFFFFE00
01FFFFFE00
007FFFFE00
003FFFF000
0003FF0000
ENDCHAR
STARTCHAR f
ENCODING 102
SWIDTH 600 0
DWIDTH 43 0
BBX 33 56 6 0
BITMAP
00001FFC00
0000FFFF80
0001FFFF80
0003FFFF00
0007FFFF00
000FFE1F00
000FF00000
000FE00000
001FC00000
001FC00000
001FC00000
001F800000
001F800000
001F800000
001F800000
001F800000
001F800000
0FFFFFFE00
FFFFFFFE00
FFFFFFFE00
FFFFFFFE00
FFFFFFFE00
001F800000
001F800000
001F800000
001F800000
001F800000
001F800000
001F800000
001F800000
001F800000
001F800000
001F800000
001F800000
001F800000
001F800000
001F800000
001F800000
001F800000
001F800000
001F800000
001F800000
001F800000
001F800000
001F800000
001F800000
001F800000
001F800000
001F800000
001F800000
001F800000
001F800000
001F800000
001F800000
001F800000
001F800000
ENDCHAR
STARTCHAR g
ENCODING 103
SWIDTH 600 0
DWIDTH 43 0
BBX 36 57 4 -17
BITMAP
0007F80000
003FFFFFF0
00FFFFFFF0
01FFFFFFF0
03FFFFFFF0
07F807FF00
0FE001F800
0FE001FC00
0FC000FC00
1FC000FE00
1F80007E00
1F80007E00
1F80007E00
1F80007E00
1FC0007E00
1FC000FE00
1FC000FE00
0FC000FC00
0FE001FC00
07F003F800
07FF3FF000
03FFFFF000
01FFFFC000
007FFF8000
00FFFC0000
01F8000000
03F0000000
03E0000000
07E0000000
07E0000000
07E0000000
07E0000000
07F8000000
03FFFFE000
03FFFFFC00
01FFFFFF00
00FFFFFF80
07FFFFFF80
1FFFFFFFC0
3F80001FC0
3F00000FE0
7E000007E0
7E000007E0
FC000007E0
FC000007E0
FC000007E0
FC000007E0
FC00000FE0
FE00001FC0
FE00003FC0
7F8000FF80
7FE007FF00
3FFFFFFE00
1FFFFFFC00
0FFFFFF800
03FFFFC000
003FFC0000
ENDCHAR
STARTCHAR h
ENCODING 104
SWIDTH 600 0
DWIDTH 43 0
BBX 31 55 6 0
BITMAP
FC000000
FC000000
FC000000
FC000000
FC000000
FC000000
FC000000
FC000000
FC000000
FC000000
FC000000
FC000000
FC000000
FC000000
FC000000
FC03FC00
FC1FFF80
FC7FFFE0
FCFFFFF0
FDFFFFF0
FDFE1FF8
FFF007FC
FFC003FC
FF8001FC
FF8000FE
FF0000FE
FF0000FE
FE0000FE
FE00007E
FE00007E
FE00007E
FE00007E
FC00007E
FC00007E
FC00007E
FC00007E
FC00007E
FC00007E
FC00007E
FC00007E
FC00007E
FC00007E
FC00007E
FC00007E
FC00007E
FC00007E
FC00007E
FC00007E
FC00007E
FC00007E
FC00007E
FC00007E
FC00007E
FC00007E
FC00007E
ENDCHAR
STARTCHAR i
ENCODING 105
SWIDTH 600 0
DWIDTH 43 0
BBX 31 55 7 0
BITMAP
00078000
000FC000
000FE000
001FE000
001FE000
000FE000
000FC000
00078000
00000000
00000000
00000000
00000000
00000000
00000000
00000000
00000000
1FFFC000
1FFFC000
1FFFC000
1FFFC000
07FFC000
000FC000
000FC000
000FC000
000FC000
000FC000
000FC000
000FC000
000FC000
000FC000
000FC000
000FC000
000FC000
000FC000
000FC000
000FC000
000FC000
000FC000
000FC000
000FC000
000FC000
000FC000
000FC000
000FC000
000FC000
000FC000
000FC000
000FC000
000FC000
000FC000
1FFFFFF0
FFFFFFFE
FFFFFFFE
FFFFFFFE
FFFFFFFE
ENDCHAR
STARTCHAR j
ENCODING 106
SWIDTH 600 0
DWIDTH 43 0
BBX 25 72 5 -17
BITMAP
00001E00
00003F00
00007F80
00007F80
00007F80
00003F80
00003F00
00001E00
00000000
00000000
00000000
00000000
00000000
00000000
00000000
00000000
0FFFFF80
0FFFFF80
0FFFFF80
0FFFFF80
00FFFF80
00001F80
00001F80
00001F80
00001F80
00001F80
00001F80
00001F80
00001F80
00001F80
00001F80
00001F80
00001F80
00001F80
00001F80
00001F80
00001F80
00001F80
00001F80
00001F80
00001F80
00001F80
00001F80
00001F80
00001F80
00001F80
00001F80
00001F80
00001F80
00001F80
00001F80
00001F80
00001F80
00001F80
00001F80
00001F80
00001F80
00001F80
00001F80
00001F80
00003F80
00003F80
00003F80
00007F00
00007F00
8001FE00
FE0FFE00
FFFFFC00
FFFFF800
FFFFF000
FFFFC000
1FFE0000
ENDCHAR
STARTCHAR k
ENCODING 107
SWIDTH 600 0
DWIDTH 43 0
BBX 33 55 8 0
BITMAP
FC00000000
FC00000000
FC00000000
FC00000000
FC00000000
FC00000000
FC00000000
FC00000000
FC00000000
FC00000000
FC00000000
FC00000000
FC00000000
FC00000000
FC00000000
FC00000000
FC0000FF00
FC0001FE00
FC0003F800
FC0007F000
FC000FE000
FC001FC000
FC003F8000
FC007F0000
FC00FE0000
FC01FC0000
FC03F80000
FC07F00000
FC0FE00000
FC1FC00000
FC3F800000
FC7F000000
FCFE000000
FCFE000000
FDFF000000
FFFF800000
FFFFC00000
FFDFE00000
FF8FE00000
FE07F00000
FC03F80000
FC03FC0000
FC01FE0000
FC00FF0000
FC007F0000
FC003F8000
FC001FC000
FC001FE000
FC000FF000
FC0007F000
FC0003F800
FC0001FC00
FC0001FE00
FC0000FF00
FC00007F80
ENDCHAR
STARTCHAR l
ENCODING 108
SWIDTH 600 0
DWIDTH 43 0
BBX 31 55 7 0
BITMAP
1FFFC000
1FFFC000
1FFFC000
1FFFC000
07FFC000
000FC000
000FC000
000FC000
000FC000
000FC000
000FC000
000FC000
000FC000
000FC000
000FC000
000FC000
000FC000
000FC000
000FC000
000FC000
000FC000
000FC000
000FC000
000FC000
000FC000
000FC000
000FC000
000FC000
000FC000
000FC000
000FC000
000FC000
000FC000
000FC000
000FC000
000FC000
000FC000
000FC000
000FC000
000FC000
000FC000
000FC000
000FC000
000FC000
000FC000
000FC000
000FC000
000FC000
000FC000
000FC000
1FFFFFF0
FFFFFFFE
FFFFFFFE
FFFFFFFE
FFFFFFFE
ENDCHAR
STARTCHAR m
ENCODING 109
SWIDTH 600 0
DWIDTH 43 0
BBX 37 40 3 0
BITMAP
001F003F00
F87FC0FF80
F8FFE1FFC0
FCFFE3FFE0
FDFFF3FFF0
FDCFF7CFF0
FF87F707F0
FF03FE03F0
FE03FE03F8
FE01FC03F8
FE01FC03F8
FE01FC03F8
FE01FC01F8
FE01FC01F8
FE01FC01F8
FC01F801F8
FC01F801F8
FC01F801F8
FC01F801F8
FC01F801F8
FC01F801F8
FC01F801F8
FC01F801F8
FC01F801F8
FC01F801F8
FC01F801F8
FC01F801F8
FC01F801F8
FC01F801F8
FC01F801F8
FC01F801F8
FC01F801F8
FC01F801F8
FC01F801F8
FC01F801F8
FC01F801F8
FC01F801F8
FC01F801F8
FC01F801F8
FC01F801F8
ENDCHAR
STARTCHAR n
ENCODING 110
SWIDTH 600 0
DWIDTH 43 0
BBX 31 40 6 0
BITMAP
0003FC00
F81FFF80
F87FFFE0
FCFFFFF0
FDFFFFF0
FDFE1FF8
FFF007FC
FFC003FC
FF8001FC
FF8000FE
FF0000FE
FF0000FE
FE0000FE
FE00007E
FE00007E
FE00007E
FE00007E
FC00007E
FC00007E
FC00007E
FC00007E
FC00007E
FC00007E
FC00007E
FC00007E
FC00007E
FC00007E
FC00007E
FC00007E
FC00007E
FC00007E
FC00007E
FC00007E
FC00007E
FC00007E
FC00007E
FC00007E
FC00007E
FC00007E
FC00007E
ENDCHAR
STARTCHAR o
ENCODING 111
SWIDTH 600 0
DWIDTH 43 0
BBX 35 41 4 -1
BITMAP
0007FC0000
003FFF8000
00FFFFE000
01FFFFF000
03FFFFF800
07FE1FFC00
0FF001FE00
1FE000FF00
1FC0007F00
3F80003F80
3F80003F80
7F00001FC0
7F00001FC0
7E00000FC0
7E00000FC0
FE00000FE0
FE00000FE0
FE00000FE0
FE00000FE0
FE00000FE0
FE00000FE0
FE00000FE0
FE00000FE0
FE00000FE0
FE00000FE0
FE00000FE0
7E00000FC0
7E00000FC0
7F00001FC0
7F00001FC0
3F00003F80
3F80003F80
1FC0007F00
1FE000FF00
0FF001FE00
07FF0FFC00
03FFFFF800
01FFFFF000
00FFFFE000
003FFF8000
0007FC0000
ENDCHAR
STARTCHAR p
ENCODING 112
SWIDTH 600 0
DWIDTH 43 0
BBX 32 57 6 -17
BITMAP
0007F800
F81FFF00
F87FFF80
FCFFFFC0
FDFFFFE0
FFFC3FF0
FFE007F8
FFC003F8
FF8001FC
FF0001FC
FF0000FE
FE0000FE
FE0000FE
FE00007E
FE00007F
FE00007F
FE00007F
FC00007F
FC00007F
FC00007F
FC00007F
FC00007F
FC00007F
FC00007F
FE00007F
FE00007F
FE00007F
FE00007E
FE0000FE
FE0000FE
FF0000FE
FF0001FC
FF8001FC
FFC003F8
FFE007F8
FFFC3FF0
FDFFFFE0
FCFFFFC0
FC7FFF80
FC1FFF00
FC07F800
FC000000
FC000000
FC000000
FC000000
FC000000
FC000000
FC000000
FC000000
FC000000
FC000000
FC000000
FC000000
FC000000
FC000000
FC000000
FC000000
ENDCHAR
STARTCHAR q
ENCODING 113
SWIDTH 600 0
DWIDTH 43 0
BBX 32 57 5 -17
BITMAP
001FC000
00FFF81F
01FFFC1F
03FFFF3F
07FFFFBF
0FFC3FBF
1FE007FF
1FC003FF
3F8001FF
3F8000FF
7F0000FF
7F0000FF
7F00007F
7E00007F
FE00007F
FE00007F
FE00007F
FE00007F
FE00003F
FE00003F
FE00003F
FE00003F
FE00003F
FE00003F
FE00007F
FE00007F
FE00007F
7E00007F
7E00007F
7F00007F
7F0000FF
3F8000FF
3F8001FF
1FC003FF
1FE007FF
0FFC3FBF
07FFFFBF
07FFFF3F
01FFFE3F
00FFF83F
001FC03F
0000003F
0000003F
0000003F
0000003F
0000003F
0000003F
0000003F
0000003F
0000003F
0000003F
0000003F
0000003F
0000003F
0000003F
0000003F
0000003F
ENDCHAR
STARTCHAR r
ENCODING 114
SWIDTH 600 0
DWIDTH 43 0
BBX 28 40 9 0
BITMAP
0001FF00
F807FFF0
F81FFFF0
F83FFFE0
FC7FFFE0
FCFFFFE0
FDF800E0
FDE00000
FFC00000
FF800000
FF000000
FF000000
FE000000
FE000000
FE000000
FE000000
FE000000
FC000000
FC000000
FC000000
FC000000
FC000000
FC000000
FC000000
FC000000
FC000000
FC000000
FC000000
FC000000
FC000000
FC000000
FC000000
FC000000
FC000000
FC000000
FC000000
FC000000
FC000000
FC000000
FC000000
ENDCHAR
STARTCHAR s
ENCODING 115
SWIDTH 600 0
DWIDTH 43 0
BBX 29 41 7 -1
BITMAP
003FF800
01FFFF80
07FFFFF0
0FFFFFF0
1FFFFFE0
3FF83FE0
3F8003E0
7F000040
7F000000
7E000000
7E000000
7E000000
7F000000
7F800000
3FC00000
3FF00000
1FFE0000
0FFF8000
07FFF000
01FFFC00
007FFF00
001FFF80
0007FFC0
0000FFE0
00003FF0
00000FF0
000007F8
000003F8
000001F8
000001F8
000001F8
000003F8
000003F8
C00007F0
F8000FF0
FFC1FFE0
FFFFFFC0
FFFFFF80
FFFFFF00
3FFFFC00
03FFE000
ENDCHAR
STARTCHAR t
ENCODING 116
SWIDTH 600 0
DWIDTH 43 0
BBX 31 50 5 -1
BITMAP
001E0000
001E0000
001E0000
001E0000
003E0000
003E0000
003E0000
003E0000
007E0000
007E0000
07FFFFFE
FFFFFFFE
FFFFFFFE
FFFFFFFE
FFFFFFFE
007E0000
007E0000
007E0000
007E0000
007E0000
007E0000
007E0000
007E0000
007E0000
007E0000
007E0000
007E0000
007E0000
007E0000
007E0000
007E0000
007E0000
007E0000
007E0000
007E0000
007E0000
007E0000
007E0000
007E0000
007F0000
007F0000
007F0000
003F8000
003FC000
003FF81E
001FFFFE
000FFFFE
0007FFFE
0003FFFE
00007FF0
ENDCHAR
STARTCHAR u
ENCODING 117
SWIDTH 600 0
DWIDTH 43 0
BBX 31 40 6 -1
BITMAP
FC00007E
FC00007E
FC00007E
FC00007E
FC00007E
FC00007E
FC00007E
FC00007E
FC00007E
FC00007E
FC00007E
FC00007E
FC00007E
FC00007E
FC00007E
FC00007E
FC00007E
FC00007E
FC00007E
FC00007E
FC00007E
FC00007E
FC00007E
FC0000FE
FC0000FE
FC0000FE
FC0000FE
FE0000FE
FE0000FE
FE0001FE
FE0001FE
7F0003FE
7F8007FE
7FC00FFE
3FF07F7E
1FFFFF7E
1FFFFE7E
0FFFFC3E
03FFF03E
007F8000
ENDCHAR
STARTCHAR v
ENCODING 118
SWIDTH 600 0
DWIDTH 43 0
BBX 37 39 3 0
BITMAP
FE000003F8
7E000003F0
7F000007F0
7F000007F0
3F000007E0
3F80000FE0
3F80000FE0
1F80000FC0
1FC0001FC0
0FC0001FC0
0FC0001F80
0FE0003F80
07E0003F00
07F0003F00
07F0007F00
03F0007E00
03F8007E00
01F800FE00
01F800FC00
01FC01FC00
00FC01F800
00FC01F800
00FE03F800
007E03F000
007E03F000
003F07F000
003F07E000
003F87E000
001F8FE000
001F8FC000
001F8FC000
000FCF8000
000FDF8000
0007DF8000
0007DF0000
0007FF0000
0003FF0000
0003FE0000
0003FE0000
ENDCHAR
STARTCHAR w
ENCODING 119
SWIDTH 600 0
DWIDTH 43 0
BBX 43 39 0 0
BITMAP
FC003F8007E0
FC003F8007E0
FC003FC007E0
7C007FC007C0
7C007FC007C0
7E007FC00FC0
7E007BC00FC0
7E00FBE00FC0
3E00FBE00F80
3E00FBE00F80
3F00F3E00F80
3F00F1E01F80
3F01F1F01F80
1F01F1F01F00
1F01F1F01F00
1F01F1F01F00
1F83E0F83F00
1F83E0F83F00
0F83E0F83E00
0F83E0F83E00
0F83C0F83E00
0F87C07C3E00
0FC7C07C7E00
07C7C07C7C00
07C7C07C7C00
07C7803C7C00
07CF803E7C00
07CF803E7C00
03CF803E7800
03EF003EF800
03EF001EF800
03FF001FF800
03FF001FF800
01FF001FF000
01FE000FF000
01FE000FF000
01FE000FF000
01FE000FF000
00FC000FE000
ENDCHAR
STARTCHAR x
ENCODING 120
SWIDTH 600 0
DWIDTH 43 0
BBX 37 39 3 0
BITMAP
7F000007F0
3F80000FE0
1FC0001FE0
1FE0001FC0
0FE0003F80
07F0007F00
03F800FF00
03F800FE00
01FC01FC00
00FE03F800
007F07F800
007F07F000
003F8FE000
001FDFC000
001FDFC000
000FFF8000
0007FF0000
0003FE0000
0003FE0000
0003FE0000
0003FE0000
0007FF0000
000FFF8000
001FFFC000
001FDFC000
003F8FE000
007F07F000
007F07F800
00FE03F800
01FC01FC00
03F800FE00
03F800FE00
07F0007F00
0FE0003F80
1FE0003FC0
1FC0001FC0
3F80000FE0
7F000007F0
FF000007F8
ENDCHAR
STARTCHAR y
ENCODING 121
SWIDTH 600 0
DWIDTH 43 0
BBX 37 56 3 -17
BITMAP
FE000003F8
7E000003F0
7F000007F0
7F000007F0
3F000007E0
3F80000FE0
1F80000FE0
1FC0000FC0
1FC0001FC0
0FC0001F80
0FE0001F80
07E0003F80
07F0003F00
07F0003F00
03F0007F00
03F8007E00
01F8007E00
01F800FC00
01FC00FC00
00FC00FC00
00FE01F800
007E01F800
007E01F800
007F03F000
003F03F000
003F83E000
001F87E000
001F87E000
001FC7C000
000FCFC000
000FCFC000
0007EF8000
0007EF8000
0007FF0000
0003FF0000
0003FF0000
0001FE0000
0001FE0000
0000FE0000
0000FC0000
0000FC0000
0001F80000
0001F80000
0001F80000
0003F00000
0003F00000
0007E00000
0007E00000
000FC00000
001FC00000
61FF800000
7FFF800000
7FFF000000
7FFE000000
7FF8000000
3FE0000000
ENDCHAR
STARTCHAR z
ENCODING 122
SWIDTH 600 0
DWIDTH 43 0
BBX 30 39 6 0
BITMAP
7FFFFFF8
7FFFFFF8
7FFFFFF8
7FFFFFF8
7FFFFFF8
000003F8
000007F0
000007E0
00000FE0
00001FC0
00003F80
00003F00
00007E00
0000FE00
0001FC00
0003F800
0003F000
0007F000
000FE000
001FC000
001F8000
003F8000
007F0000
00FE0000
00FC0000
01F80000
03F80000
07F00000
07E00000
0FC00000
1FC00000
3F800000
7F000000
7E000000
FFFFFFFC
FFFFFFFC
FFFFFFFC
FFFFFFFC
FFFFFFFC
ENDCHAR
STARTCHAR braceleft
ENCODING 123
SWIDTH 600 0
DWIDTH 43 0
BBX 27 62 8 -11
BITMAP
000003E0
00003FE0
0000FFE0
0001FFE0
0003FFE0
0007FF80
0007F800
000FE000
000FE000
000FE000
000FC000
000FC000
000FC000
000FC000
000FC000
000FC000
000FC000
000FC000
000FC000
000FC000
000FC000
000FC000
000FC000
000FC000
001FC000
003FC000
007F8000
03FF0000
FFFE0000
FFFC0000
FFC00000
FFF80000
FFFE0000
1FFF0000
00FF8000
003FC000
001FC000
001FC000
000FC000
000FC000
000FC000
000FC000
000FC000
000FC000
000FC000
000FC000
000FC000
000FC000
000FC000
000FC000
000FC000
000FC000
000FE000
000FE000
000FE000
0007F800
0007FF80
0003FFE0
0001FFE0
0000FFE0
00003FE0
000007E0
ENDCHAR
STARTCHAR bar
ENCODING 124
SWIDTH 600 0
DWIDTH 43 0
BBX 5 72 19 -17
BITMAP
F8
F8
F8
F8
F8
F8
F8
F8
F8
F8
F8
F8
F8
F8
F8
F8
F8
F8
F8
F8
F8
F8
F8
F8
F8
F8
F8
F8
F8
F8
F8
F8
F8
F8
F8
F8
F8
F8
F8
F8
F8
F8
F8
F8
F8
F8
F8
F8
F8
F8
F8
F8
F8
F8
F8
F8
F8
F8
F8
F8
F8
F8
F8
F8
F8
F8
F8
F8
F8
F8
F8
F8
ENDCHAR
STARTCHAR braceright
ENCODING 125
SWIDTH 600 0
DWIDTH 43 0
BBX 27 62 8 -11
BITMAP
FC000000
FF800000
FFE00000
FFF00000
FFF80000
3FFC0000
03FC0000
00FE0000
00FE0000
00FE0000
007E0000
007E0000
007E0000
007E0000
007E0000
007E0000
007E0000
007E0000
007E0000
007E0000
007E0000
007E0000
007E0000
007E0000
007F0000
007F8000
003FC000
003FF800
000FFFE0
0007FFE0
00007FE0
0003FFE0
000FFFE0
001FFF00
003FE000
007F8000
007F0000
007F0000
007E0000
007E0000
007E0000
007E0000
007E0000
007E0000
007E0000
007E0000
007E0000
007E0000
007E0000
007E0000
007E0000
007E0000
00FE0000
00FE0000
00FE0000
03FC0000
1FFC0000
FFF80000
FFF00000
FFE00000
FF800000
F8000000
ENDCHAR
STARTCHAR asciitilde
ENCODING 126
SWIDTH 600 0
DWIDTH 43 0
BBX 33 9 5 21
BITMAP
07F8000080
1FFF000180
7FFFE00780
FFFFFE1F80
FFFFFFFF80
FC3FFFFF80
F003FFFF00
C0007FFC00
80000FF000
ENDCHAR
STARTCHAR uni00A0
ENCODING 160
SWIDTH 600 0
DWIDTH 43 0
BBX 1 1 0 0
BITMAP
00
ENDCHAR
STARTCHAR exclamdown
ENCODING 161
SWIDTH 600 0
DWIDTH 43 0
BBX 9 53 17 -13
BITMAP
3E00
7F00
FF80
FF80
FF80
FF80
FF80
FF80
7F00
3E00
0000
0000
0000
0000
0000
0000
3E00
3E00
3E00
3E00
3E00
3E00
3E00
3E00
3E00
3E00
3E00
3E00
3E00
3E00
3E00
3E00
3E00
7E00
7E00
7F00
7F00
7F00
7F00
7F00
7F00
7F00
7F00
7F00
7F00
7F00
7F00
7F00
7F00
7F00
7F00
7F00
7F00
ENDCHAR
STARTCHAR cent
ENCODING 162
SWIDTH 600 0
DWIDTH 43 0
BBX 30 53 6 -1
BITMAP
0001F800
0001F800
0001F800
0001F800
0001F800
0001F800
0007FFE0
003FFFFC
00FFFFFC
01FFFFFC
07FFFFFC
0FFF83F8
0FF80038
1FE00000
3FC00000
3F800000
7F800000
7F000000
7F000000
7E000000
FE000000
FE000000
FE000000
FE000000
FE000000
FE000000
FE000000
FE000000
FE000000
FE000000
FE000000
FE000000
7E000000
7F000000
7F000000
7F800000
3F800000
3FC00000
1FF00004
0FFC003C
0FFFFFFC
07FFFFFC
01FFFFFC
00FFFFFC
003FFFF8
0003FF80
0001F800
0001F800
0001F800
0001F800
0001F800
0001F800
0001F800
ENDCHAR
STARTCHAR sterling
ENCODING 163
SWIDTH 600 0
DWIDTH 43 0
BBX 35 52 4 0
BITMAP
00007FE000
0003FFFC00
000FFFFF80
001FFFFF80
003FFFFF80
007FFBFF00
00FF800F00
00FF000200
00FE000000
01FC000000
01FC000000
01FC000000
01FC000000
01FC000000
01FC000000
01FC000000
01FC000000
01FC000000
01FC000000
01FC000000
01FC000000
01FC000000
01FC000000
01FC000000
FFFFFFE000
FFFFFFE000
FFFFFFE000
FFFFFFE000
FFFFFFE000
01FC000000
01FC000000
01FC000000
01FC000000
01FC000000
01FC000000
01FC000000
01FC000000
01F8000000
01F8000000
01F8000000
03F8000000
03F8000000
03F0000000
07F0000000
0FE0000000
1FC0000000
FFFFFFFFE0
FFFFFFFFE0
FFFFFFFFE0
FFFFFFFFE0
FFFFFFFFE0
FFFFFFFFE0
ENDCHAR
STARTCHAR currency
ENCODING 164
SWIDTH 600 0
DWIDTH 43 0
BBX 31 31 6 10
BITMAP
10000010
38000038
7C0FE07C
FE7FFCFE
7FFFFFFC
3FFFFFF8
1FFFFFF0
0FF01FE0
0FC00FE0
1F8003F0
1F0003F0
1F0001F0
3E0000F8
3E0000F8
3E0000F8
3E0000F8
3E0000F8
3E0000F8
3E0000F8
1F0001F0
1F0001F0
1F8003F0
0FC007E0
0FF01FE0
1FFFFFF0
3FFFFFF8
7FFFFFFC
FE7FFCFE
7C0FE07C
38000038
10000010
ENDCHAR
STARTCHAR yen
ENCODING 165
SWIDTH 600 0
DWIDTH 43 0
BBX 38 51 2 0
BITMAP
FE000001FC
7E000001F8
7F000003F8
3F000003F0
3F800007F0
1F800007E0
1FC0000FE0
0FC0000FC0
0FE0001FC0
07E0001F80
07F0003F80
03F0003F00
03F8007F00
01F8007E00
01FC00FE00
00FC00FC00
00FE00FC00
007E01F800
007F01F800
003F03F000
003F03F000
001F87E000
001F87E000
000FCFC000
000FCFC000
0007FF8000
0007FF8000
07FFFFFF80
07FFFFFF80
07FFFFFF80
07FFFFFF80
07FFFFFF80
0000FC0000
0000FC0000
0000FC0000
0000FC0000
0000FC0000
07FFFFFF80
07FFFFFF80
07FFFFFF80
07FFFFFF80
07FFFFFF80
0000FC0000
0000FC0000
0000FC0000
0000FC0000
0000FC0000
0000FC0000
0000FC0000
0000FC0000
0000FC0000
ENDCHAR
STARTCHAR brokenbar
ENCODING 166
SWIDTH 600 0
DWIDTH 43 0
BBX 5 72 19 -17
BITMAP
F8
F8
F8
F8
F8
F8
F8
F8
F8
F8
F8
F8
F8
F8
F8
F8
F8
F8
F8
F8
F8
F8
F8
F8
F8
F8
F8
00
00
00
00
00
00
00
00
00
00
00
00
00
00
00
00
00
00
F8
F8
F8
F8
F8
F8
F8
F8
F8
F8
F8
F8
F8
F8
F8
F8
F8
F8
F8
F8
F8
F8
F8
F8
F8
F8
F8
ENDCHAR
STARTCHAR section
ENCODING 167
SWIDTH 600 0
DWIDTH 43 0
BBX 26 57 8 -1
BITMAP
007FE000
03FFFE00
07FFFF80
0FFFFF80
1FFFFF80
3FC03F00
3F800700
7F000000
7E000000
7E000000
7E000000
7F000000
7F800000
3FC00000
3FF00000
1FFC0000
0FFF0000
07FFC000
03FFF000
0FFFF800
1FDFFE00
1F83FF00
3F00FF00
3E007F80
7E003F80
7E001FC0
7E000FC0
7E000FC0
7E000FC0
7E000FC0
7F000FC0
3F800FC0
3FC00F80
1FF01F80
1FFC3F00
0FFF7F00
03FFFE00
01FFFC00
007FFC00
001FFE00
0007FF00
0001FF80
00007F80
00003FC0
00001FC0
00000FC0
00000FC0
00000FC0
00001FC0
80001FC0
F0003F80
FE00FF80
FFFFFF00
FFFFFE00
FFFFFC00
3FFFF000
07FF8000
ENDCHAR
STARTCHAR dieresis
ENCODING 168
SWIDTH 600 0
DWIDTH 43 0
BBX 20 7 11 45
BITMAP
7801E0
FC03F0
FE07F0
FE07F0
FE07F0
FC03F0
7801E0
ENDCHAR
STARTCHAR copyright
ENCODING 169
SWIDTH 600 0
DWIDTH 43 0
BBX 43 53 0 -1
BITMAP
0000FFE00000
0007FFFC0000
001FFFFF0000
003FFFFF8000
00FF001FE000
01FC0007F000
03F00001F800
07E00000FC00
07C000007C00
0F8000003E00
1F001FF01E00
1E007FFE0F00
1E01FFFF0F00
3C03FFFF0780
3C07FFFE0780
780FF01E03C0
781FC00003C0
781F800003C0
783F000003C0
703F000001C0
F03F000001E0
F07E000001E0
F07E000001E0
F07E000001E0
F07E000001E0
F07E000001E0
F07E000001E0
F07E000001E0
F07E000001E0
F07E000001E0
F07E000001E0
F07E000001E0
F03E000001E0
703F000001C0
783F000003C0
781F800003C0
781FC00003C0
780FF00E03C0
3C07FFFE0780
3C03FFFE0780
3E01FFFE0F00
1E00FFFC0F00
1F001FE01F00
0F8000003E00
07C000007C00
07E00000FC00
03F00001F800
01FC0007F000
00FF001FE000
007FFFFF8000
001FFFFF0000
0007FFFC0000
0000FFC00000
ENDCHAR
STARTCHAR ordfeminine
ENCODING 170
SWIDTH 600 0
DWIDTH 43 0
BBX 22 25 10 27
BITMAP
01FF00
1FFFE0
3FFFF0
3FFFF8
1F03F8
1000FC
0000FC
00007C
00007C
007FFC
07FFFC
1FFFFC
3FFFFC
7F007C
FC007C
FC00FC
F800FC
F800FC
F801FC
FC03FC
FE0FFC
7FFF7C
7FFE3C
3FF83C
0FE000
ENDCHAR
STARTCHAR guillemotleft
ENCODING 171
SWIDTH 600 0
DWIDTH 43 0
BBX 29 29 7 5
BITMAP
003000C0
003800E0
007E01F8
00FC03F0
01FC07F0
01F807E0
03F00FC0
07F01FC0
0FE03F80
0FC03F00
1F807E00
3F80FE00
7F01FC00
FE03F800
FE03F800
FE03F800
7F01FC00
3F80FE00
1F807E00
1FC07F00
0FE03F80
07F01FC0
03F00FC0
01F807E0
01FC07F0
00FC03F0
007E01F8
003800E0
003000C0
ENDCHAR
STARTCHAR logicalnot
ENCODING 172
SWIDTH 600 0
DWIDTH 43 0
BBX 33 19 5 9
BITMAP
FFFFFFFF80
FFFFFFFF80
FFFFFFFF80
FFFFFFFF80
FFFFFFFF80
0000000F80
0000000F80
0000000F80
0000000F80
0000000F80
0000000F80
0000000F80
0000000F80
0000000F80
0000000F80
0000000F80
0000000F80
0000000F80
0000000F80
ENDCHAR
STARTCHAR uni00AD
ENCODING 173
SWIDTH 600 0
DWIDTH 43 0
BBX 23 6 10 16
BITMAP
FFFFFE
FFFFFE
FFFFFE
FFFFFE
FFFFFE
FFFFFE
ENDCHAR
STARTCHAR registered
ENCODING 174
SWIDTH 600 0
DWIDTH 43 0
BBX 43 53 0 -1
BITMAP
0000FFE00000
0007FFFC0000
001FFFFF0000
003FFFFF8000
00FF001FE000
01FC0007F000
03F00001F800
07E00000FC00
07C000007C00
0F8000003E00
1F0000001E00
1E0FFF800F00
1E0FFFF00F00
3C0FFFF80780
3C0FFFFC0780
780FFFFE03C0
780FC0FE03C0
780FC03F03C0
780FC03F03C0
700FC03F01C0
F00FC03F01E0
F00FC03F01E0
F00FC03F01E0
F00FC07E01E0
F00FC0FE01E0
F00FFFFC01E0
F00FFFF801E0
F00FFFF001E0
F00FFFC001E0
F00FFFE001E0
F00FC7F001E0
F00FC3F001E0
F00FC1F801E0
700FC1F801C0
780FC0FC03C0
780FC0FE03C0
780FC07E03C0
780FC03F03C0
3C0FC03F8780
3C0FC01F8780
3E0FC00FCF00
1E0FC00FCF00
1F0000001F00
0F8000003E00
07C000007C00
07E00000FC00
03F00001F800
01FC0007F000
00FF001FE000
007FFFFF8000
001FFFFF0000
0007FFFC0000
0000FFC00000
ENDCHAR
STARTCHAR macron
ENCODING 175
SWIDTH 600 0
DWIDTH 43 0
BBX 45 5 -1 55
BITMAP
FFFFFFFFFFF8
FFFFFFFFFFF8
FFFFFFFFFFF8
FFFFFFFFFFF8
FFFFFFFFFFF8
ENDCHAR
STARTCHAR degree
ENCODING 176
SWIDTH 600 0
DWIDTH 43 0
BBX 21 22 11 30
BITMAP
01FC00
07FF00
0FFF80
1FFFC0
3F8FE0
7E03F0
7C01F0
7C01F0
F800F8
F800F8
F800F8
F800F8
F800F8
F800F8
FC01F0
7C01F0
7E03F0
3F9FE0
1FFFC0
0FFF80
07FF00
01FC00
ENDCHAR
STARTCHAR plusminus
ENCODING 177
SWIDTH 600 0
DWIDTH 43 0
BBX 33 42 5 0
BITMAP
0003E00000
0003E00000
0003E00000
0003E00000
0003E00000
0003E00000
0003E00000
0003E00000
0003E00000
0003E00000
0003E00000
0003E00000
0003E00000
0003E00000
FFFFFFFF80
FFFFFFFF80
FFFFFFFF80
FFFFFFFF80
FFFFFFFF80
0003E00000
0003E00000
0003E00000
0003E00000
0003E00000
0003E00000
0003E00000
0003E00000
0003E00000
0003E00000
0003E00000
0003E00000
0003E00000
0003E00000
0000000000
0000000000
0000000000
0000000000
FFFFFFFF80
FFFFFFFF80
FFFFFFFF80
FFFFFFFF80
FFFFFFFF80
ENDCHAR
STARTCHAR uni00B2
ENCODING 178
SWIDTH 600 0
DWIDTH 43 0
BBX 19 29 12 23
BITMAP
03F800
1FFE00
7FFF00
FFFF80
7C1F80
300FC0
000FC0
0007C0
0007C0
0007C0
000FC0
000F80
001F80
001F00
003F00
007E00
00FC00
01F800
03F000
07E000
0FC000
0F8000
1F0000
3E0000
7C0000
FFFFE0
FFFFE0
FFFFE0
FFFFE0
ENDCHAR
STARTCHAR uni00B3
ENCODING 179
SWIDTH 600 0
DWIDTH 43 0
BBX 18 30 12 22
BITMAP
07F000
1FFC00
7FFE00
FFFF00
7C3F00
301F80
000F80
000F80
000F80
000F80
001F00
001F00
003E00
07FC00
07F000
07FE00
07FF00
001F80
000F80
0007C0
0007C0
0007C0
0007C0
000FC0
800FC0
F03F80
FFFF00
FFFF00
FFFC00
1FF000
ENDCHAR
STARTCHAR acute
ENCODING 180
SWIDTH 600 0
DWIDTH 43 0
BBX 14 12 14 44
BITMAP
03FC
03FC
07F8
07F0
0FE0
1FE0
1FC0
3F80
3F00
7E00
FC00
F800
ENDCHAR
STARTCHAR mu
ENCODING 181
SWIDTH 600 0
DWIDTH 43 0
BBX 31 56 6 -17
BITMAP
FC00007E
FC00007E
FC00007E
FC00007E
FC00007E
FC00007E
FC00007E
FC00007E
FC00007E
FC00007E
FC00007E
FC00007E
FC00007E
FC00007E
FC00007E
FC00007E
FC00007E
FC00007E
FC00007E
FC00007E
FC00007E
FC00007E
FC00007E
FC0000FE
FC0000FE
FC0000FE
FC0000FE
FE0000FE
FE0000FE
FE0001FE
FE0001FE
FF0003FE
FF0007FE
FFC00FFE
FFF07F7E
FFFFFF7E
FFFFFE7E
FDFFFC3E
FCFFF03E
FC3FC000
FC000000
FC000000
FC000000
FC000000
FC000000
FC000000
FC000000
FC000000
FC000000
FC000000
FC000000
FC000000
FC000000
FC000000
FC000000
FC000000
ENDCHAR
STARTCHAR paragraph
ENCODING 182
SWIDTH 600 0
DWIDTH 43 0
BBX 36 64 2 -9
BITMAP
001FFFFFF0
00FFFFFFF0
03FFFFFFF0
07FFFFFFF0
0FFFFFFFF0
1FFFFFFFF0
3FFFFF00F0
3FFFFF00F0
3FFFFF00F0
7FFFFF00F0
7FFFFF00F0
7FFFFF00F0
FFFFFF00F0
FFFFFF00F0
FFFFFF00F0
FFFFFF00F0
FFFFFF00F0
FFFFFF00F0
FFFFFF00F0
FFFFFF00F0
FFFFFF00F0
FFFFFF00F0
FFFFFF00F0
FFFFFF00F0
7FFFFF00F0
7FFFFF00F0
7FFFFF00F0
7FFFFF00F0
3FFFFF00F0
3FFFFF00F0
1FFFFF00F0
0FFFFF00F0
07FFFF00F0
03FFFF00F0
01FFFF00F0
003FEF00F0
00000F00F0
00000F00F0
00000F00F0
00000F00F0
00000F00F0
00000F00F0
00000F00F0
00000F00F0
00000F00F0
00000F00F0
00000F00F0
00000F00F0
00000F00F0
00000F00F0
00000F00F0
00000F00F0
00000F00F0
00000F00F0
00000F00F0
00000F00F0
00000F00F0
00000F00F0
00000F00F0
00000F00F0
00000F00F0
00000F00F0
00000F00F0
00000F00F0
ENDCHAR
STARTCHAR periodcentered
ENCODING 183
SWIDTH 600 0
DWIDTH 43 0
BBX 9 10 17 21
BITMAP
3E00
7F00
FF80
FF80
FF80
FF80
FF80
FF80
7F00
3E00
ENDCHAR
STARTCHAR cedilla
ENCODING 184
SWIDTH 600 0
DWIDTH 43 0
BBX 13 17 15 -17
BITMAP
0780
0F80
0F00
1F00
1F80
3FE0
0FF0
03F8
01F8
00F8
00F8
01F8
03F8
FFF0
FFE0
FFC0
FE00
ENDCHAR
STARTCHAR uni00B9
ENCODING 185
SWIDTH 600 0
DWIDTH 43 0
BBX 12 28 13 23
BITMAP
01F0
07F0
0FF0
3FF0
7FF0
FDF0
79F0
21F0
01F0
01F0
01F0
01F0
01F0
01F0
01F0
01F0
01F0
01F0
01F0
01F0
01F0
01F0
01F0
01F0
01F0
01F0
01F0
01F0
ENDCHAR
STARTCHAR ordmasculine
ENCODING 186
SWIDTH 600 0
DWIDTH 43 0
BBX 23 25 10 27
BITMAP
00FE00
07FF80
0FFFE0
1FFFF0
3FC7F8
3F01F8
7E00FC
7C007C
FC007E
FC007E
F8003E
F8003E
F8003E
F8003E
F8003E
FC007E
FC007E
7C007C
7E00FC
3F01F8
3FC7F8
1FFFF0
0FFFE0
03FF80
00FE00
ENDCHAR
STARTCHAR guillemotright
ENCODING 187
SWIDTH 600 0
DWIDTH 43 0
BBX 29 29 7 5
BITMAP
10006000
3800E000
FC03F000
7E01F800
7F01FC00
3F00FC00
1F807E00
1FC07F00
0FE03F80
07E01F80
03F00FC0
03F80FE0
01FC07F0
00FE03F8
00FE03F8
00FE03F8
01FC07F0
03F80FE0
03F00FC0
07F01FC0
0FE03F80
1FC07F00
1F807E00
3F00FC00
7F01FC00
7E01F800
FC03F000
3800E000
10006000
ENDCHAR
STARTCHAR onequarter
ENCODING 188
SWIDTH 600 0
DWIDTH 43 0
BBX 41 51 1 0
BITMAP
01F00003F000
07F00003E000
0FF00007E000
3FF00007C000
7FF0000FC000
FDF0000F8000
79F0001F8000
21F0001F0000
01F0003F0000
01F0003E0000
01F0007E0000
01F0007C0000
01F000FC0000
01F000F80000
01F001F80000
01F001F00000
01F003F00000
01F003E00000
01F007E00000
01F007C00000
01F00FC00000
01F00F800000
01F01F800000
01F01F007C00
01F03F00FC00
01F03E01FC00
01F07E01FC00
01F07C03FC00
0000FC07FC00
0000F80FFC00
0001F80F7C00
0001F01F7C00
0003F03E7C00
0003E03C7C00
0007E07C7C00
0007C0F87C00
000FC0F07C00
000F81F07C00
001F83E07C00
001F07C07C00
003F07807C00
003E0FFFFF80
007E0FFFFF80
007C0FFFFF80
00FC0FFFFF80
00F800007C00
01F800007C00
01F000007C00
03F000007C00
03E000007C00
07E000007C00
ENDCHAR
STARTCHAR onehalf
ENCODING 189
SWIDTH 600 0
DWIDTH 43 0
BBX 43 51 0 0
BITMAP
01F00007E000
07F00007C000
0FF0000FC000
3FF0000F8000
7FF0001F8000
FDF0001F0000
79F0003F0000
21F0003E0000
01F0007E0000
01F0007C0000
01F000FC0000
01F000F80000
01F001F80000
01F001F00000
01F003F00000
01F003E00000
01F007E00000
01F007C00000
01F00FC00000
01F00F800000
01F01F800000
01F01F000000
01F03F03F800
01F03E1FFE00
01F07E7FFF00
01F07CFFFF80
01F0FC7C1F80
01F0F8300FC0
0001F8000FC0
0001F00007C0
0003F00007C0
0003E00007C0
0007E0000FC0
0007C0000F80
000FC0001F80
000F80001F00
001F80003F00
001F00007E00
003F0000FC00
003E0001F800
007E0003F000
007C0007E000
00FC000FC000
00F8000F8000
01F8001F0000
01F0003E0000
03F0007C0000
03E000FFFFE0
07E000FFFFE0
07C000FFFFE0
0FC000FFFFE0
ENDCHAR
STARTCHAR threequarters
ENCODING 190
SWIDTH 600 0
DWIDTH 43 0
BBX 42 52 1 0
BITMAP
07F000000000
1FFC0000FC00
7FFE0000F800
FFFF0001F800
7C3F0001F000
301F8003F000
000F8003E000
000F8007E000
000F8007C000
000F800FC000
001F000F8000
001F001F8000
003E001F0000
07FC003F0000
07F0003E0000
07FE007E0000
07FF007C0000
001F80FC0000
000F80F80000
0007C1F80000
0007C1F00000
0007C3F00000
0007C3E00000
000FC7E00000
800FC7C03E00
F03F8FC07E00
FFFF0F80FE00
FFFF1F80FE00
FFFC1F01FE00
1FF03F03FE00
00003E07FE00
00007E07BE00
00007C0FBE00
0000FC1F3E00
0000F81E3E00
0001F83E3E00
0001F07C3E00
0003F0783E00
0003E0F83E00
0007E1F03E00
0007C3E03E00
000FC3C03E00
000F87FFFFC0
001F87FFFFC0
001F07FFFFC0
003F07FFFFC0
003E00003E00
007E00003E00
007C00003E00
00FC00003E00
00F800003E00
01F800003E00
ENDCHAR
STARTCHAR questiondown
ENCODING 191
SWIDTH 600 0
DWIDTH 43 0
BBX 31 54 6 -14
BITMAP
0001F000
0003F800
0007FC00
0007FC00
0007FC00
0007FC00
0007FC00
0007FC00
0003F800
0000E000
00000000
00000000
00000000
00000000
00000000
00000000
0001F800
0001F800
0001F800
0001F800
0003F000
0003F000
0007F000
0007E000
001FE000
003FC000
007F8000
00FF0000
01FE0000
07FC0000
0FF80000
1FF00000
1FC00000
3F800000
7F000000
7F000000
7E000000
FE000000
FE000000
FC000000
FC000000
FC000000
FE000000
FE000000
FE000000
7F000008
7F800038
3FE001FC
3FFFFFFC
1FFFFFFE
0FFFFFFE
03FFFFF0
00FFFF80
001FF800
ENDCHAR
STARTCHAR Agrave
ENCODING 192
SWIDTH 600 0
DWIDTH 43 0
BBX 41 68 1 0
BITMAP
001FE0000000
001FE0000000
000FF0000000
0007F0000000
0003F8000000
0003FC000000
0001FC000000
0000FE000000
00007E000000
00003F000000
00001F800000
00000F800000
000000000000
000000000000
000000000000
000000000000
000000000000
00007F000000
00007F000000
0000FF800000
0000FF800000
0000FF800000
0001FFC00000
0001FFC00000
0001F7C00000
0003F7E00000
0003F7E00000
0003F7E00000
0007E3F00000
0007E3F00000
0007E3F00000
000FE3F80000
000FC1F80000
000FC1F80000
001FC1FC0000
001F80FC0000
001F80FC0000
003F80FE0000
003F007E0000
003F007E0000
007F007F0000
007E003F0000
007E003F0000
00FE003F8000
00FE001F8000
00FC001F8000
01FC001FC000
01FFFFFFC000
01FFFFFFC000
03FFFFFFE000
03FFFFFFE000
03FFFFFFF000
07FFFFFFF000
07F00007F000
07E00003F800
0FE00003F800
0FE00003F800
0FC00001FC00
1FC00001FC00
1FC00001FC00
1F800000FE00
3F800000FE00
3F800000FE00
7F0000007F00
7F0000007F00
7F0000007F00
FE0000003F80
FE0000003F80
ENDCHAR
STARTCHAR Aacute
ENCODING 193
SWIDTH 600 0
DWIDTH 43 0
BBX 41 68 1 0
BITMAP
000001FE0000
000001FE0000
000003FC0000
000003F80000
000007F00000
00000FF00000
00000FE00000
00001FC00000
00001F800000
00003F000000
00007E000000
00007C000000
000000000000
000000000000
000000000000
000000000000
000000000000
00007F000000
00007F000000
0000FF800000
0000FF800000
0000FF800000
0001FFC00000
0001FFC00000
0001F7C00000
0003F7E00000
0003F7E00000
0003F7E00000
0007E3F00000
0007E3F00000
0007E3F00000
000FE3F80000
000FC1F80000
000FC1F80000
001FC1FC0000
001F80FC0000
001F80FC0000
003F80FE0000
003F007E0000
003F007E0000
007F007F0000
007E003F0000
007E003F0000
00FE003F8000
00FE001F8000
00FC001F8000
01FC001FC000
01FFFFFFC000
01FFFFFFC000
03FFFFFFE000
03FFFFFFE000
03FFFFFFF000
07FFFFFFF000
07F00007F000
07E00003F800
0FE00003F800
0FE00003F800
0FC00001FC00
1FC00001FC00
1FC00001FC00
1F800000FE00
3F800000FE00
3F800000FE00
7F0000007F00
7F0000007F00
7F0000007F00
FE0000003F80
FE0000003F80
ENDCHAR
STARTCHAR Acircumflex
ENCODING 194
SWIDTH 600 0
DWIDTH 43 0
BBX 41 68 1 0
BITMAP
00007F000000
0000FF800000
0000FF800000
0001FFC00000
0003FFE00000
0003F7E00000
0007E3F00000
000FC1F80000
001F80FC0000
003F007E0000
007E003F0000
007C001F0000
000000000000
000000000000
000000000000
000000000000
000000000000
00007F000000
00007F000000
0000FF800000
0000FF800000
0000FF800000
0001FFC00000
0001FFC00000
0001F7C00000
0003F7E00000
0003F7E00000
0003F7E00000
0007E3F00000
0007E3F00000
0007E3F00000
000FE3F80000
000FC1F80000
000FC1F80000
001FC1FC0000
001F80FC0000
001F80FC0000
003F80FE0000
003F007E0000
003F007E0000
007F007F0000
007E003F0000
007E003F0000
00FE003F8000
00FE001F8000
00FC001F8000
01FC001FC000
01FFFFFFC000
01FFFFFFC000
03FFFFFFE000
03FFFFFFE000
03FFFFFFF000
07FFFFFFF000
07F00007F000
07E00003F800
0FE00003F800
0FE00003F800
0FC00001FC00
1FC00001FC00
1FC00001FC00
1F800000FE00
3F800000FE00
3F800000FE00
7F0000007F00
7F0000007F00
7F0000007F00
FE0000003F80
FE0000003F80
ENDCHAR
STARTCHAR Atilde
ENCODING 195
SWIDTH 600 0
DWIDTH 43 0
BBX 41 66 1 0
BITMAP
000780078000
001FF0078000
003FF8078000
003FFE0F0000
007FFF9F0000
007CFFFF0000
00783FFE0000
00F00FFE0000
00F003FC0000
00F000F00000
000000000000
000000000000
000000000000
000000000000
000000000000
00007F000000
00007F000000
0000FF800000
0000FF800000
0000FF800000
0001FFC00000
0001FFC00000
0001F7C00000
0003F7E00000
0003F7E00000
0003F7E00000
0007E3F00000
0007E3F00000
0007E3F00000
000FE3F80000
000FC1F80000
000FC1F80000
001FC1FC0000
001F80FC0000
001F80FC0000
003F80FE0000
003F007E0000
003F007E0000
007F007F0000
007E003F0000
007E003F0000
00FE003F8000
00FE001F8000
00FC001F8000
01FC001FC000
01FFFFFFC000
01FFFFFFC000
03FFFFFFE000
03FFFFFFE000
03FFFFFFF000
07FFFFFFF000
07F00007F000
07E00003F800
0FE00003F800
0FE00003F800
0FC00001FC00
1FC00001FC00
1FC00001FC00
1F800000FE00
3F800000FE00
3F800000FE00
7F0000007F00
7F0000007F00
7F0000007F00
FE0000003F80
FE0000003F80
ENDCHAR
STARTCHAR Adieresis
ENCODING 196
SWIDTH 600 0
DWIDTH 43 0
BBX 41 64 1 0
BITMAP
000F003C0000
001F807E0000
001FC0FE0000
001FC0FE0000
001FC0FE0000
001F807E0000
000F003C0000
000000000000
000000000000
000000000000
000000000000
000000000000
000000000000
00007F000000
00007F000000
0000FF800000
0000FF800000
0000FF800000
0001FFC00000
0001FFC00000
0001F7C00000
0003F7E00000
0003F7E00000
0003F7E00000
0007E3F00000
0007E3F00000
0007E3F00000
000FE3F80000
000FC1F80000
000FC1F80000
001FC1FC0000
001F80FC0000
001F80FC0000
003F80FE0000
003F007E0000
003F007E0000
007F007F0000
007E003F0000
007E003F0000
00FE003F8000
00FE001F8000
00FC001F8000
01FC001FC000
01FFFFFFC000
01FFFFFFC000
03FFFFFFE000
03FFFFFFE000
03FFFFFFF000
07FFFFFFF000
07F00007F000
07E00003F800
0FE00003F800
0FE00003F800
0FC00001FC00
1FC00001FC00
1FC00001FC00
1F800000FE00
3F800000FE00
3F800000FE00
7F0000007F00
7F0000007F00
7F0000007F00
FE0000003F80
FE0000003F80
ENDCHAR
STARTCHAR Aring
ENCODING 197
SWIDTH 600 0
DWIDTH 43 0
BBX 41 63 1 0
BITMAP
00003F000000
0000FFC00000
0001FFE00000
0003FFF00000
0007C0F00000
000780780000
000780780000
000780780000
000780780000
000780780000
0007C0F00000
0003FFF00000
0001FFE00000
0000FFC00000
0000FF800000
0000FF800000
0000FF800000
0001FFC00000
0001FFC00000
0001F7C00000
0003F7E00000
0003F7E00000
0003F7E00000
0007E3F00000
0007E3F00000
0007E3F00000
000FE3F80000
000FC1F80000
000FC1F80000
001FC1FC0000
001F80FC0000
001F80FC0000
003F80FE0000
003F007E0000
003F007E0000
007F007F0000
007E003F0000
007E003F0000
00FE003F8000
00FE001F8000
00FC001F8000
01FC001FC000
01FFFFFFC000
01FFFFFFC000
03FFFFFFE000
03FFFFFFE000
03FFFFFFF000
07FFFFFFF000
07F00007F000
07E00003F800
0FE00003F800
0FE00003F800
0FC00001FC00
1FC00001FC00
1FC00001FC00
1F800000FE00
3F800000FE00
3F800000FE00
7F0000007F00
7F0000007F00
7F0000007F00
FE0000003F80
FE0000003F80
ENDCHAR
STARTCHAR AE
ENCODING 198
SWIDTH 600 0
DWIDTH 43 0
BBX 42 51 0 0
BITMAP
000FFFFFFFC0
000FFFFFFFC0
001FFFFFFFC0
001FFFFFFFC0
001FFFFFFFC0
001FFFFFFFC0
003F1FC00000
003F1FC00000
003E1FC00000
003E1FC00000
003E1FC00000
007E1FC00000
007C1FC00000
007C1FC00000
007C1FC00000
00FC1FC00000
00FC1FC00000
00F81FC00000
00F81FC00000
01F81FC00000
01F81FC00000
01F01FFFFF80
01F01FFFFF80
03F01FFFFF80
03F01FFFFF80
03F01FFFFF80
03E01FFFFF80
03E01FC00000
07E01FC00000
07FFFFC00000
07FFFFC00000
07FFFFC00000
0FFFFFC00000
0FFFFFC00000
0FFFFFC00000
0F801FC00000
1F801FC00000
1F801FC00000
1F801FC00000
1F001FC00000
3F001FC00000
3F001FC00000
3F001FC00000
3F001FC00000
3E001FC00000
7E001FFFFFC0
7E001FFFFFC0
7E001FFFFFC0
7E001FFFFFC0
FC001FFFFFC0
FC001FFFFFC0
ENDCHAR
STARTCHAR Ccedilla
ENCODING 199
SWIDTH 600 0
DWIDTH 43 0
BBX 36 69 5 -17
BITMAP
00003FF800
0003FFFF80
000FFFFFE0
003FFFFFF0
007FFFFFE0
00FFFFFFE0
01FFC00FC0
03FF0001C0
07FC000000
0FF8000000
0FF0000000
1FE0000000
1FC0000000
3FC0000000
3F80000000
3F80000000
7F00000000
7F00000000
7F00000000
7F00000000
FE00000000
FE00000000
FE00000000
FE00000000
FE00000000
FE00000000
FE00000000
FE00000000
FE00000000
FE00000000
FE00000000
FE00000000
FE00000000
FF00000000
7F00000000
7F00000000
7F00000000
7F80000000
3F80000000
3F80000000
3FC0000000
1FE0000000
1FE0000000
0FF0000000
0FFC000000
07FE000040
03FFC007C0
01FFFFFFC0
00FFFFFFC0
007FFFFFC0
001FFFFFC0
0007FFFF80
0000FFF000
00007C0000
0000780000
0000F80000
0000FC0000
0001FF0000
00007F8000
00001FC000
00000FC000
000007C000
000007C000
00000FC000
00001FC000
0007FF8000
0007FF0000
0007FE0000
0007F00000
ENDCHAR
STARTCHAR Egrave
ENCODING 200
SWIDTH 600 0
DWIDTH 43 0
BBX 29 68 8 0
BITMAP
0FF00000
0FF00000
07F80000
03F80000
01FC0000
01FE0000
00FE0000
007F0000
003F0000
001F8000
000FC000
0007C000
00000000
00000000
00000000
00000000
00000000
FFFFFFF8
FFFFFFF8
FFFFFFF8
FFFFFFF8
FFFFFFF8
FFFFFFF8
FE000000
FE000000
FE000000
FE000000
FE000000
FE000000
FE000000
FE000000
FE000000
FE000000
FE000000
FE000000
FE000000
FE000000
FE000000
FFFFFFF0
FFFFFFF0
FFFFFFF0
FFFFFFF0
FFFFFFF0
FFFFFFF0
FE000000
FE000000
FE000000
FE000000
FE000000
FE000000
FE000000
FE000000
FE000000
FE000000
FE000000
FE000000
FE000000
FE000000
FE000000
FE000000
FE000000
FE000000
FFFFFFF8
FFFFFFF8
FFFFFFF8
FFFFFFF8
FFFFFFF8
FFFFFFF8
ENDCHAR
STARTCHAR Eacute
ENCODING 201
SWIDTH 600 0
DWIDTH 43 0
BBX 29 68 8 0
BITMAP
0001FE00
0001FE00
0003FC00
0003F800
0007F000
000FF000
000FE000
001FC000
001F8000
003F0000
007E0000
007C0000
00000000
00000000
00000000
00000000
00000000
FFFFFFF8
FFFFFFF8
FFFFFFF8
FFFFFFF8
FFFFFFF8
FFFFFFF8
FE000000
FE000000
FE000000
FE000000
FE000000
FE000000
FE000000
FE000000
FE000000
FE000000
FE000000
FE000000
FE000000
FE000000
FE000000
FFFFFFF0
FFFFFFF0
FFFFFFF0
FFFFFFF0
FFFFFFF0
FFFFFFF0
FE000000
FE000000
FE000000
FE000000
FE000000
FE000000
FE000000
FE000000
FE000000
FE000000
FE000000
FE000000
FE000000
FE000000
FE000000
FE000000
FE000000
FE000000
FFFFFFF8
FFFFFFF8
FFFFFFF8
FFFFFFF8
FFFFFFF8
FFFFFFF8
ENDCHAR
STARTCHAR Ecircumflex
ENCODING 202
SWIDTH 600 0
DWIDTH 43 0
BBX 29 68 8 0
BITMAP
000FE000
001FF000
001FF000
003FF800
007FFC00
007EFC00
00FC7E00
01F83F00
03F01F80
07E00FC0
0FC007E0
0F8003E0
00000000
00000000
00000000
00000000
00000000
FFFFFFF8
FFFFFFF8
FFFFFFF8
FFFFFFF8
FFFFFFF8
FFFFFFF8
FE000000
FE000000
FE000000
FE000000
FE000000
FE000000
FE000000
FE000000
FE000000
FE000000
FE000000
FE000000
FE000000
FE000000
FE000000
FFFFFFF0
FFFFFFF0
FFFFFFF0
FFFFFFF0
FFFFFFF0
FFFFFFF0
FE000000
FE000000
FE000000
FE000000
FE000000
FE000000
FE000000
FE000000
FE000000
FE000000
FE000000
FE000000
FE000000
FE000000
FE000000
FE000000
FE000000
FE000000
FFFFFFF8
FFFFFFF8
FFFFFFF8
FFFFFFF8
FFFFFFF8
FFFFFFF8
ENDCHAR
STARTCHAR Edieresis
ENCODING 203
SWIDTH 600 0
DWIDTH 43 0
BBX 29 64 8 0
BITMAP
03C00F00
07E01F80
07F03F80
07F03F80
07F03F80
07E01F80
03C00F00
00000000
00000000
00000000
00000000
00000000
00000000
FFFFFFF8
FFFFFFF8
FFFFFFF8
FFFFFFF8
FFFFFFF8
FFFFFFF8
FE000000
FE000000
FE000000
FE000000
FE000000
FE000000
FE000000
FE000000
FE000000
FE000000
FE000000
FE000000
FE000000
FE000000
FE000000
FFFFFFF0
FFFFFFF0
FFFFFFF0
FFFFFFF0
FFFFFFF0
FFFFFFF0
FE000000
FE000000
FE000000
FE000000
FE000000
FE000000
FE000000
FE000000
FE000000
FE000000
FE000000
FE000000
FE000000
FE000000
FE000000
FE000000
FE000000
FE000000
FFFFFFF8
FFFFFFF8
FFFFFFF8
FFFFFFF8
FFFFFFF8
FFFFFFF8
ENDCHAR
STARTCHAR Igrave
ENCODING 204
SWIDTH 600 0
DWIDTH 43 0
BBX 27 68 8 0
BITMAP
1FE00000
1FE00000
0FF00000
07F00000
03F80000
03FC0000
01FC0000
00FE0000
007E0000
003F0000
001F8000
000F8000
00000000
00000000
00000000
00000000
00000000
FFFFFFE0
FFFFFFE0
FFFFFFE0
FFFFFFE0
3FFFFF00
003F8000
003F8000
003F8000
003F8000
003F8000
003F8000
003F8000
003F8000
003F8000
003F8000
003F8000
003F8000
003F8000
003F8000
003F8000
003F8000
003F8000
003F8000
003F8000
003F8000
003F8000
003F8000
003F8000
003F8000
003F8000
003F8000
003F8000
003F8000
003F8000
003F8000
003F8000
003F8000
003F8000
003F8000
003F8000
003F8000
003F8000
003F8000
003F8000
003F8000
003F8000
3FFFFF80
FFFFFFE0
FFFFFFE0
FFFFFFE0
FFFFFFE0
ENDCHAR
STARTCHAR Iacute
ENCODING 205
SWIDTH 600 0
DWIDTH 43 0
BBX 27 68 8 0
BITMAP
00007F80
00007F80
0000FF00
0000FE00
0001FC00
0003FC00
0003F800
0007F000
0007E000
000FC000
001F8000
001F0000
00000000
00000000
00000000
00000000
00000000
FFFFFFE0
FFFFFFE0
FFFFFFE0
FFFFFFE0
3FFFFF00
003F8000
003F8000
003F8000
003F8000
003F8000
003F8000
003F8000
003F8000
003F8000
003F8000
003F8000
003F8000
003F8000
003F8000
003F8000
003F8000
003F8000
003F8000
003F8000
003F8000
003F8000
003F8000
003F8000
003F8000
003F8000
003F8000
003F8000
003F8000
003F8000
003F8000
003F8000
003F8000
003F8000
003F8000
003F8000
003F8000
003F8000
003F8000
003F8000
003F8000
003F8000
3FFFFF80
FFFFFFE0
FFFFFFE0
FFFFFFE0
FFFFFFE0
ENDCHAR
STARTCHAR Icircumflex
ENCODING 206
SWIDTH 600 0
DWIDTH 43 0
BBX 27 68 8 0
BITMAP
003F8000
007FC000
007FC000
00FFE000
01FFF000
01FBF000
03F1F800
07E0FC00
0FC07E00
1F803F00
3F001F80
3E000F80
00000000
00000000
00000000
00000000
00000000
FFFFFFE0
FFFFFFE0
FFFFFFE0
FFFFFFE0
3FFFFF00
003F8000
003F8000
003F8000
003F8000
003F8000
003F8000
003F8000
003F8000
003F8000
003F8000
003F8000
003F8000
003F8000
003F8000
003F8000
003F8000
003F8000
003F8000
003F8000
003F8000
003F8000
003F8000
003F8000
003F8000
003F8000
003F8000
003F8000
003F8000
003F8000
003F8000
003F8000
003F8000
003F8000
003F8000
003F8000
003F8000
003F8000
003F8000
003F8000
003F8000
003F8000
3FFFFF80
FFFFFFE0
FFFFFFE0
FFFFFFE0
FFFFFFE0
ENDCHAR
STARTCHAR Idieresis
ENCODING 207
SWIDTH 600 0
DWIDTH 43 0
BBX 27 64 8 0
BITMAP
07801E00
0FC03F00
0FE07F00
0FE07F00
0FE07F00
0FC03F00
07801E00
00000000
00000000
00000000
00000000
00000000
00000000
FFFFFFE0
FFFFFFE0
FFFFFFE0
FFFFFFE0
3FFFFF00
003F8000
003F8000
003F8000
003F8000
003F8000
003F8000
003F8000
003F8000
003F8000
003F8000
003F8000
003F8000
003F8000
003F8000
003F8000
003F8000
003F8000
003F8000
003F8000
003F8000
003F8000
003F8000
003F8000
003F8000
003F8000
003F8000
003F8000
003F8000
003F8000
003F8000
003F8000
003F8000
003F8000
003F8000
003F8000
003F8000
003F8000
003F8000
003F8000
003F8000
003F8000
3FFFFF80
FFFFFFE0
FFFFFFE0
FFFFFFE0
FFFFFFE0
ENDCHAR
STARTCHAR Eth
ENCODING 208
SWIDTH 600 0
DWIDTH 43 0
BBX 40 51 0 0
BITMAP
07FFFE0000
07FFFFC000
07FFFFF800
07FFFFFC00
07FFFFFF00
07FFFFFF80
07F001FFC0
07F0007FE0
07F0001FE0
07F0000FF0
07F00007F8
07F00003F8
07F00003FC
07F00001FC
07F00001FC
07F00000FE
07F00000FE
07F00000FE
07F00000FE
07F000007F
07F000007F
07F000007F
FFFFFF807F
FFFFFF807F
FFFFFF807F
FFFFFF807F
FFFFFF807F
FFFFFF807F
07F000007F
07F000007F
07F000007F
07F000007F
07F00000FE
07F00000FE
07F00000FE
07F00001FE
07F00001FC
07F00001FC
07F00003F8
07F00007F8
07F0000FF0
07F0001FF0
07F0003FE0
07F000FFC0
07F003FF80
07FFFFFF00
07FFFFFE00
07FFFFFC00
07FFFFF000
07FFFFC000
07FFF80000
ENDCHAR
STARTCHAR Ntilde
ENCODING 209
SWIDTH 600 0
DWIDTH 43 0
BBX 33 66 5 0
BITMAP
0078007800
01FF007800
03FF807800
03FFE0F000
07FFF9F000
07CFFFF000
0783FFE000
0F00FFE000
0F003FC000
0F000F0000
0000000000
0000000000
0000000000
0000000000
0000000000
FF00001F80
FF00001F80
FF80001F80
FF80001F80
FFC0001F80
FFC0001F80
FFE0001F80
FFE0001F80
FFE0001F80
FBF0001F80
FBF0001F80
FDF8001F80
FDF8001F80
FCFC001F80
FCFC001F80
FC7E001F80
FC7E001F80
FC3F001F80
FC3F001F80
FC1F801F80
FC1F801F80
FC0FC01F80
FC0FC01F80
FC07E01F80
FC07E01F80
FC03F01F80
FC03F01F80
FC03F01F80
FC01F81F80
FC01F81F80
FC00FC1F80
FC00FC1F80
FC007E1F80
FC007E1F80
FC003F1F80
FC003F1F80
FC001F9F80
FC001F9F80
FC000FDF80
FC000FDF80
FC0007FF80
FC0007FF80
FC0007FF80
FC0003FF80
FC0003FF80
FC0001FF80
FC0001FF80
FC0000FF80
FC0000FF80
FC00007F80
FC00007F80
ENDCHAR
STARTCHAR Ograve
ENCODING 210
SWIDTH 600 0
DWIDTH 43 0
BBX 37 69 3 -1
BITMAP
007F800000
007F800000
003FC00000
001FC00000
000FE00000
000FF00000
0007F00000
0003F80000
0001F80000
0000FC0000
00007E0000
00003E0000
0000000000
0000000000
0000000000
0000000000
0003FE0000
001FFFC000
007FFFF000
00FFFFF800
03FFFFFC00
07FFFFFE00
07FE01FF00
0FF800FF80
1FF0003F80
1FE0003FC0
1FC0001FC0
3FC0000FE0
3F80000FE0
7F80000FE0
7F000007F0
7F000007F0
7F000007F0
7F000007F0
FE000003F0
FE000003F8
FE000003F8
FE000003F8
FE000003F8
FE000003F8
FE000003F8
FE000003F8
FE000003F8
FE000003F8
FE000003F8
FE000003F8
FE000003F8
FE000003F8
FE000003F8
FE000003F8
FE000003F0
7F000007F0
7F000007F0
7F000007F0
7F000007F0
3F80000FE0
3F80000FE0
3FC0000FE0
1FC0001FC0
1FE0003FC0
1FF0003F80
0FF800FF80
07FE01FF00
07FFFFFE00
03FFFFFC00
01FFFFF800
007FFFF000
001FFFC000
0003FE0000
ENDCHAR
STARTCHAR Oacute
ENCODING 211
SWIDTH 600 0
DWIDTH 43 0
BBX 37 69 3 -1
BITMAP
000007F800
000007F800
00000FF000
00000FE000
00001FC000
00003FC000
00003F8000
00007F0000
00007E0000
0000FC0000
0001F80000
0001F00000
0000000000
0000000000
0000000000
0000000000
0003FE0000
001FFFC000
007FFFF000
00FFFFF800
03FFFFFC00
07FFFFFE00
07FE01FF00
0FF800FF80
1FF0003F80
1FE0003FC0
1FC0001FC0
3FC0000FE0
3F80000FE0
7F80000FE0
7F000007F0
7F000007F0
7F000007F0
7F000007F0
FE000003F0
FE000003F8
FE000003F8
FE000003F8
FE000003F8
FE000003F8
FE000003F8
FE000003F8
FE000003F8
FE000003F8
FE000003F8
FE000003F8
FE000003F8
FE000003F8
FE000003F8
FE000003F8
FE000003F0
7F000007F0
7F000007F0
7F000007F0
7F000007F0
3F80000FE0
3F80000FE0
3FC0000FE0
1FC0001FC0
1FE0003FC0
1FF0003F80
0FF800FF80
07FE01FF00
07FFFFFE00
03FFFFFC00
01FFFFF800
007FFFF000
001FFFC000
0003FE0000
ENDCHAR
STARTCHAR Ocircumflex
ENCODING 212
SWIDTH 600 0
DWIDTH 43 0
BBX 37 69 3 -1
BITMAP
0001FC0000
0003FE0000
0003FE0000
0007FF0000
000FFF8000
000FDF8000
001F8FC000
003F07E000
007E03F000
00FC01F800
01F800FC00
01F0007C00
0000000000
0000000000
0000000000
0000000000
0003FE0000
001FFFC000
007FFFF000
00FFFFF800
03FFFFFC00
07FFFFFE00
07FE01FF00
0FF800FF80
1FF0003F80
1FE0003FC0
1FC0001FC0
3FC0000FE0
3F80000FE0
7F80000FE0
7F000007F0
7F000007F0
7F000007F0
7F000007F0
FE000003F0
FE000003F8
FE000003F8
FE000003F8
FE000003F8
FE000003F8
FE000003F8
FE000003F8
FE000003F8
FE000003F8
FE000003F8
FE000003F8
FE000003F8
FE000003F8
FE000003F8
FE000003F8
FE000003F0
7F000007F0
7F000007F0
7F000007F0
7F000007F0
3F80000FE0
3F80000FE0
3FC0000FE0
1FC0001FC0
1FE0003FC0
1FF0003F80
0FF800FF80
07FE01FF00
07FFFFFE00
03FFFFFC00
01FFFFF800
007FFFF000
001FFFC000
0003FE0000
ENDCHAR
STARTCHAR Otilde
ENCODING 213
SWIDTH 600 0
DWIDTH 43 0
BBX 37 67 3 -1
BITMAP
001E001E00
007FC01E00
00FFE01E00
00FFF83C00
01FFFE7C00
01F3FFFC00
01E0FFF800
03C03FF800
03C00FF000
03C003C000
0000000000
0000000000
0000000000
0000000000
0003FE0000
001FFFC000
007FFFF000
00FFFFF800
03FFFFFC00
07FFFFFE00
07FE01FF00
0FF800FF80
1FF0003F80
1FE0003FC0
1FC0001FC0
3FC0000FE0
3F80000FE0
7F80000FE0
7F000007F0
7F000007F0
7F000007F0
7F000007F0
FE000003F0
FE000003F8
FE000003F8
FE000003F8
FE000003F8
FE000003F8
FE000003F8
FE000003F8
FE000003F8
FE000003F8
FE000003F8
FE000003F8
FE000003F8
FE000003F8
FE000003F8
FE000003F8
FE000003F0
7F000007F0
7F000007F0
7F000007F0
7F000007F0
3F80000FE0
3F80000FE0
3FC0000FE0
1FC0001FC0
1FE0003FC0
1FF0003F80
0FF800FF80
07FE01FF00
07FFFFFE00
03FFFFFC00
01FFFFF800
007FFFF000
001FFFC000
0003FE0000
ENDCHAR
STARTCHAR Odieresis
ENCODING 214
SWIDTH 600 0
DWIDTH 43 0
BBX 37 65 3 -1
BITMAP
003C00F000
007E01F800
007F03F800
007F03F800
007F03F800
007E01F800
003C00F000
0000000000
0000000000
0000000000
0000000000
0000000000
0003FE0000
001FFFC000
007FFFF000
00FFFFF800
03FFFFFC00
07FFFFFE00
07FE01FF00
0FF800FF80
1FF0003F80
1FE0003FC0
1FC0001FC0
3FC0000FE0
3F80000FE0
7F80000FE0
7F000007F0
7F000007F0
7F000007F0
7F000007F0
FE000003F0
FE000003F8
FE000003F8
FE000003F8
FE000003F8
FE000003F8
FE000003F8
FE000003F8
FE000003F8
FE000003F8
FE000003F8
FE000003F8
FE000003F8
FE000003F8
FE000003F8
FE000003F8
FE000003F0
7F000007F0
7F000007F0
7F000007F0
7F000007F0
3F80000FE0
3F80000FE0
3FC0000FE0
1FC0001FC0
1FE0003FC0
1FF0003F80
0FF800FF80
07FE01FF00
07FFFFFE00
03FFFFFC00
01FFFFF800
007FFFF000
001FFFC000
0003FE0000
ENDCHAR
STARTCHAR multiply
ENCODING 215
SWIDTH 600 0
DWIDTH 43 0
BBX 29 29 7 11
BITMAP
30000060
780000F0
FC0001F8
FE0003F8
7F0007F0
3F800FE0
1FC01FC0
0FE03F80
07F07F00
03F8FE00
01FDFC00
00FFF800
007FF000
003FE000
001FC000
003FE000
007FF000
00FFF800
01FDFC00
03F8FE00
07F07F00
0FE03F80
1FC01FC0
3F800FE0
7F0007F0
FE0003F8
7C0001F8
380000F0
10000060
ENDCHAR
STARTCHAR Oslash
ENCODING 216
SWIDTH 600 0
DWIDTH 43 0
BBX 37 57 3 -3
BITMAP
0000000080
00000000E0
0003FE01F0
001FFFC1F8
007FFFF3F0
00FFFFFFF0
03FFFFFFE0
07FFFFFFE0
07FE01FFC0
0FF800FF80
1FF0003F80
1FE0003FC0
1FC0007FC0
3FC0007FE0
3F8000FFE0
7F8001FFE0
7F0001FFF0
7F0003FFF0
7F0003F7F0
7F0007E7F0
FE000FE3F0
FE000FC3F8
FE001FC3F8
FE001F83F8
FE003F03F8
FE007F03F8
FE007E03F8
FE00FC03F8
FE01FC03F8
FE01F803F8
FE03F803F8
FE03F003F8
FE07E003F8
FE0FE003F8
FE0FC003F8
FE1FC003F8
7E1F8003F0
7F3F0007F0
7F7F0007F0
7F7E0007F0
7FFE0007F0
3FFC000FE0
3FF8000FE0
3FF8000FE0
1FF0001FC0
1FF0003FC0
0FE0003F80
0FF800FF80
1FFC01FF00
1FFFFFFE00
3FFFFFFC00
7FFFFFF800
7E7FFFF000
FE1FFFC000
FC03FE0000
3C00000000
0800000000
ENDCHAR
STARTCHAR Ugrave
ENCODING 217
SWIDTH 600 0
DWIDTH 43 0
BBX 35 69 4 -1
BITMAP
00FF000000
00FF000000
007F800000
003F800000
001FC00000
001FE00000
000FE00000
0007F00000
0003F00000
0001F80000
0000FC0000
00007C0000
0000000000
0000000000
0000000000
0000000000
0000000000
FE00000FE0
FE00000FE0
FE00000FE0
FE00000FE0
FE00000FE0
FE00000FE0
FE00000FE0
FE00000FE0
FE00000FE0
FE00000FE0
FE00000FE0
FE00000FE0
FE00000FE0
FE00000FE0
FE00000FE0
FE00000FE0
FE00000FE0
FE00000FE0
FE00000FE0
FE00000FE0
FE00000FE0
FE00000FE0
FE00000FE0
FE00000FE0
FE00000FE0
FE00000FE0
FE00000FE0
FE00000FE0
FE00000FE0
FE00000FE0
FE00000FE0
FE00000FE0
FE00000FE0
FE00000FE0
FE00000FE0
FE00000FE0
FE00000FE0
FE00000FE0
FE00000FE0
7E00001FC0
7F00001FC0
7F00001FC0
7F80003F80
3FC0007F80
3FE000FF00
1FF803FF00
0FFFFFFE00
07FFFFFC00
03FFFFF800
01FFFFF000
007FFFC000
000FFE0000
ENDCHAR
STARTCHAR Uacute
ENCODING 218
SWIDTH 600 0
DWIDTH 43 0
BBX 35 69 4 -1
BITMAP
00001FE000
00001FE000
00003FC000
00003F8000
00007F0000
0000FF0000
0000FE0000
0001FC0000
0001F80000
0003F00000
0007E00000
0007C00000
0000000000
0000000000
0000000000
0000000000
0000000000
FE00000FE0
FE00000FE0
FE00000FE0
FE00000FE0
FE00000FE0
FE00000FE0
FE00000FE0
FE00000FE0
FE00000FE0
FE00000FE0
FE00000FE0
FE00000FE0
FE00000FE0
FE00000FE0
FE00000FE0
FE00000FE0
FE00000FE0
FE00000FE0
FE00000FE0
FE00000FE0
FE00000FE0
FE00000FE0
FE00000FE0
FE00000FE0
FE00000FE0
FE00000FE0
FE00000FE0
FE00000FE0
FE00000FE0
FE00000FE0
FE00000FE0
FE00000FE0
FE00000FE0
FE00000FE0
FE00000FE0
FE00000FE0
FE00000FE0
FE00000FE0
FE00000FE0
7E00001FC0
7F00001FC0
7F00001FC0
7F80003F80
3FC0007F80
3FE000FF00
1FF803FF00
0FFFFFFE00
07FFFFFC00
03FFFFF800
01FFFFF000
007FFFC000
000FFE0000
ENDCHAR
STARTCHAR Ucircumflex
ENCODING 219
SWIDTH 600 0
DWIDTH 43 0
BBX 35 69 4 -1
BITMAP
0003F80000
0007FC0000
0007FC0000
000FFE0000
001FFF0000
001FBF0000
003F1F8000
007E0FC000
00FC07E000
01F803F000
03F001F800
03E000F800
0000000000
0000000000
0000000000
0000000000
0000000000
FE00000FE0
FE00000FE0
FE00000FE0
FE00000FE0
FE00000FE0
FE00000FE0
FE00000FE0
FE00000FE0
FE00000FE0
FE00000FE0
FE00000FE0
FE00000FE0
FE00000FE0
FE00000FE0
FE00000FE0
FE00000FE0
FE00000FE0
FE00000FE0
FE00000FE0
FE00000FE0
FE00000FE0
FE00000FE0
FE00000FE0
FE00000FE0
FE00000FE0
FE00000FE0
FE00000FE0
FE00000FE0
FE00000FE0
FE00000FE0
FE00000FE0
FE00000FE0
FE00000FE0
FE00000FE0
FE00000FE0
FE00000FE0
FE00000FE0
FE00000FE0
FE00000FE0
7E00001FC0
7F00001FC0
7F00001FC0
7F80003F80
3FC0007F80
3FE000FF00
1FF803FF00
0FFFFFFE00
07FFFFFC00
03FFFFF800
01FFFFF000
007FFFC000
000FFE0000
ENDCHAR
STARTCHAR Udieresis
ENCODING 220
SWIDTH 600 0
DWIDTH 43 0
BBX 35 65 4 -1
BITMAP
007801E000
00FC03F000
00FE07F000
00FE07F000
00FE07F000
00FC03F000
007801E000
0000000000
0000000000
0000000000
0000000000
0000000000
0000000000
FE00000FE0
FE00000FE0
FE00000FE0
FE00000FE0
FE00000FE0
FE00000FE0
FE00000FE0
FE00000FE0
FE00000FE0
FE00000FE0
FE00000FE0
FE00000FE0
FE00000FE0
FE00000FE0
FE00000FE0
FE00000FE0
FE00000FE0
FE00000FE0
FE00000FE0
FE00000FE0
FE00000FE0
FE00000FE0
FE00000FE0
FE00000FE0
FE00000FE0
FE00000FE0
FE00000FE0
FE00000FE0
FE00000FE0
FE00000FE0
FE00000FE0
FE00000FE0
FE00000FE0
FE00000FE0
FE00000FE0
FE00000FE0
FE00000FE0
FE00000FE0
FE00000FE0
7E00001FC0
7F00001FC0
7F00001FC0
7F80003F80
3FC0007F80
3FE000FF00
1FF803FF00
0FFFFFFE00
07FFFFFC00
03FFFFF800
01FFFFF000
007FFFC000
000FFE0000
ENDCHAR
STARTCHAR Yacute
ENCODING 221
SWIDTH 600 0
DWIDTH 43 0
BBX 41 68 1 0
BITMAP
000003FC0000
000003FC0000
000007F80000
000007F00000
00000FE00000
00001FE00000
00001FC00000
00003F800000
00003F000000
00007E000000
0000FC000000
0000F8000000
000000000000
000000000000
000000000000
000000000000
000000000000
FE0000003F80
7F0000007F00
7F0000007F00
3F800000FE00
3F800000FC00
1FC00001FC00
0FC00003F800
0FE00003F800
07E00007F000
07F00007F000
03F8000FE000
03F8000FE000
01FC001FC000
01FC001F8000
00FE003F8000
00FE003F0000
007F007F0000
003F007E0000
003F80FE0000
001F81FC0000
001FC1F80000
000FC3F80000
000FE3F00000
0007E7F00000
0007F7E00000
0003FFE00000
0001FFC00000
0001FFC00000
0000FF800000
0000FF000000
00007F000000
00007F000000
00007F000000
00007F000000
00007F000000
00007F000000
00007F000000
00007F000000
00007F000000
00007F000000
00007F000000
00007F000000
00007F000000
00007F000000
00007F000000
00007F000000
00007F000000
00007F000000
00007F000000
00007F000000
00007F000000
ENDCHAR
STARTCHAR Thorn
ENCODING 222
SWIDTH 600 0
DWIDTH 43 0
BBX 32 51 6 0
BITMAP
FE000000
FE000000
FE000000
FE000000
FE000000
FE000000
FE000000
FE000000
FE000000
FFFFF000
FFFFFF00
FFFFFFC0
FFFFFFE0
FFFFFFF0
FFFFFFF8
FE001FFC
FE0007FC
FE0001FE
FE0000FE
FE0000FF
FE00007F
FE00007F
FE00007F
FE00007F
FE00007F
FE00007F
FE00007F
FE00007F
FE0000FE
FE0000FE
FE0001FE
FE0001FC
FE0007FC
FE001FF8
FFFFFFF0
FFFFFFE0
FFFFFFC0
FFFFFF80
FFFFFC00
FFFFE000
FE000000
FE000000
FE000000
FE000000
FE000000
FE000000
FE000000
FE000000
FE000000
FE000000
FE000000
ENDCHAR
STARTCHAR germandbls
ENCODING 223
SWIDTH 600 0
DWIDTH 43 0
BBX 34 57 6 -1
BITMAP
003FF00000
03FFFE0000
07FFFF8000
1FFFFFC000
1FFFFFE000
3FF8FFF000
7F800FF000
7F0007F000
7E0003F800
FE0003F800
FE0001F800
FE0001F800
FC0003F800
FC0003F800
FC0003F000
FC0007F000
FC000FE000
FC001FE000
FC003FC000
FC007F8000
FC00FF0000
FC01FE0000
FC01FC0000
FC03F80000
FC03F00000
FC03F00000
FC03F00000
FC03F00000
FC03F80000
FC03FC0000
FC01FE0000
FC01FF8000
FC00FFC000
FC007FE000
FC003FF800
FC000FFC00
FC0007FE00
FC0003FF00
FC0000FF00
FC00007F80
FC00003F80
FC00001FC0
FC00001FC0
FC00001FC0
FC00000FC0
FC00000FC0
FC00000FC0
FC00001FC0
FC00001FC0
FC10003F80
FC1E007F80
FC1FC3FF80
FC1FFFFF00
FC1FFFFE00
FC1FFFFC00
FC07FFF000
0000FF8000
ENDCHAR
STARTCHAR agrave
ENCODING 224
SWIDTH 600 0
DWIDTH 43 0
BBX 31 57 5 -1
BITMAP
01FE0000
01FE0000
00FF0000
007F0000
003F8000
003FC000
001FC000
000FE000
0007E000
0003F000
0001F800
0000F800
00000000
00000000
00000000
00000000
001FFC00
01FFFF80
07FFFFE0
1FFFFFF0
1FFFFFF8
0FFC3FF8
0F8007FC
060003FC
000001FC
000000FE
000000FE
000000FE
0000007E
0000007E
0000007E
0000007E
0000007E
0003FFFE
007FFFFE
03FFFFFE
07FFFFFE
1FFFFC7E
3FF8007E
3FC0007E
7F80007E
7F00007E
FE0000FE
FE0000FE
FE0000FE
FE0000FE
FE0001FE
FE0001FE
FE0003FE
7F0007FE
7F000FFE
7FC07F7E
3FFFFF7E
1FFFFC3E
0FFFF83E
07FFF03E
00FF8000
ENDCHAR
STARTCHAR aacute
ENCODING 225
SWIDTH 600 0
DWIDTH 43 0
BBX 31 57 5 -1
BITMAP
00001FE0
00001FE0
00003FC0
00003F80
00007F00
0000FF00
0000FE00
0001FC00
0001F800
0003F000
0007E000
0007C000
00000000
00000000
00000000
00000000
001FFC00
01FFFF80
07FFFFE0
1FFFFFF0
1FFFFFF8
0FFC3FF8
0F8007FC
060003FC
000001FC
000000FE
000000FE
000000FE
0000007E
0000007E
0000007E
0000007E
0000007E
0003FFFE
007FFFFE
03FFFFFE
07FFFFFE
1FFFFC7E
3FF8007E
3FC0007E
7F80007E
7F00007E
FE0000FE
FE0000FE
FE0000FE
FE0000FE
FE0001FE
FE0001FE
FE0003FE
7F0007FE
7F000FFE
7FC07F7E
3FFFFF7E
1FFFFC3E
0FFFF83E
07FFF03E
00FF8000
ENDCHAR
STARTCHAR acircumflex
ENCODING 226
SWIDTH 600 0
DWIDTH 43 0
BBX 31 57 5 -1
BITMAP
0003F800
0007FC00
0007FC00
000FFE00
001FFF00
001FBF00
003F1F80
007E0FC0
00FC07E0
01F803F0
03F001F8
03E000F8
00000000
00000000
00000000
00000000
001FFC00
01FFFF80
07FFFFE0
1FFFFFF0
1FFFFFF8
0FFC3FF8
0F8007FC
060003FC
000001FC
000000FE
000000FE
000000FE
0000007E
0000007E
0000007E
0000007E
0000007E
0003FFFE
007FFFFE
03FFFFFE
07FFFFFE
1FFFFC7E
3FF8007E
3FC0007E
7F80007E
7F00007E
FE0000FE
FE0000FE
FE0000FE
FE0000FE
FE0001FE
FE0001FE
FE0003FE
7F0007FE
7F000FFE
7FC07F7E
3FFFFF7E
1FFFFC3E
0FFFF83E
07FFF03E
00FF8000
ENDCHAR
STARTCHAR atilde
ENCODING 227
SWIDTH 600 0
DWIDTH 43 0
BBX 31 55 5 -1
BITMAP
003C003C
00FF803C
01FFC03C
01FFF078
03FFFCF8
03E7FFF8
03C1FFF0
07807FF0
07801FE0
07800780
00000000
00000000
00000000
00000000
001FFC00
01FFFF80
07FFFFE0
1FFFFFF0
1FFFFFF8
0FFC3FF8
0F8007FC
060003FC
000001FC
000000FE
000000FE
000000FE
0000007E
0000007E
0000007E
0000007E
0000007E
0003FFFE
007FFFFE
03FFFFFE
07FFFFFE
1FFFFC7E
3FF8007E
3FC0007E
7F80007E
7F00007E
FE0000FE
FE0000FE
FE0000FE
FE0000FE
FE0001FE
FE0001FE
FE0003FE
7F0007FE
7F000FFE
7FC07F7E
3FFFFF7E
1FFFFC3E
0FFFF83E
07FFF03E
00FF8000
ENDCHAR
STARTCHAR adieresis
ENCODING 228
SWIDTH 600 0
DWIDTH 43 0
BBX 31 53 5 -1
BITMAP
00F003C0
01F807E0
01FC0FE0
01FC0FE0
01FC0FE0
01F807E0
00F003C0
00000000
00000000
00000000
00000000
00000000
001FFC00
01FFFF80
07FFFFE0
1FFFFFF0
1FFFFFF8
0FFC3FF8
0F8007FC
060003FC
000001FC
000000FE
000000FE
000000FE
0000007E
0000007E
0000007E
0000007E
0000007E
0003FFFE
007FFFFE
03FFFFFE
07FFFFFE
1FFFFC7E
3FF8007E
3FC0007E
7F80007E
7F00007E
FE0000FE
FE0000FE
FE0000FE
FE0000FE
FE0001FE
FE0001FE
FE0003FE
7F0007FE
7F000FFE
7FC07F7E
3FFFFF7E
1FFFFC3E
0FFFF83E
07FFF03E
00FF8000
ENDCHAR
STARTCHAR aring
ENCODING 229
SWIDTH 600 0
DWIDTH 43 0
BBX 31 60 5 -1
BITMAP
0003F000
000FFC00
001FFE00
003FFF00
007C0F00
00780780
00780780
00780780
00780780
00780780
007C0F00
003FFF00
001FFE00
000FFC00
0003F000
00000000
00000000
00000000
00000000
001FFC00
01FFFF80
07FFFFE0
1FFFFFF0
1FFFFFF8
0FFC3FF8
0F8007FC
060003FC
000001FC
000000FE
000000FE
000000FE
0000007E
0000007E
0000007E
0000007E
0000007E
0003FFFE
007FFFFE
03FFFFFE
07FFFFFE
1FFFFC7E
3FF8007E
3FC0007E
7F80007E
7F00007E
FE0000FE
FE0000FE
FE0000FE
FE0000FE
FE0001FE
FE0001FE
FE0003FE
7F0007FE
7F000FFE
7FC07F7E
3FFFFF7E
1FFFFC3E
0FFFF83E
07FFF03E
00FF8000
ENDCHAR
STARTCHAR ae
ENCODING 230
SWIDTH 600 0
DWIDTH 43 0
BBX 39 41 2 -1
BITMAP
00FE003E00
03FF80FF80
0FFFC1FFC0
1FFFE3FFE0
1FFFF7FFF0
1FC7F7E7F0
0E03FF83F8
0801FF01F8
0001FF00FC
0000FF00FC
0000FE00FC
0000FE00FE
0000FE007E
0000FE007E
0000FE007E
0000FE007E
007FFFFFFE
03FFFFFFFE
0FFFFFFFFE
1FFFFFFFFE
3FFFFFFFFE
3FC0FC0000
7F80FC0000
7F00FC0000
FE00FE0000
FE00FE0000
FE00FE0000
FC00FE0000
FC00FE0000
FC01FF0000
FC01FF0000
FE01FF0000
FE03FF8000
FE03FFC004
7F07CFE03C
7F9FCFFFFC
3FFF87FFFC
3FFF03FFFC
1FFE01FFFC
0FFC00FFF0
03F0003FC0
ENDCHAR
STARTCHAR ccedilla
ENCODING 231
SWIDTH 600 0
DWIDTH 43 0
BBX 31 57 6 -17
BITMAP
0003FF80
001FFFF8
007FFFFE
01FFFFFC
03FFFFFC
07FFFFFC
0FFC0078
1FF00008
1FE00000
3FC00000
3F800000
7F000000
7F000000
7F000000
7E000000
FE000000
FE000000
FE000000
FE000000
FE000000
FE000000
FE000000
FE000000
FE000000
FE000000
FE000000
FE000000
7E000000
7F000000
7F000000
3F800000
3FC00000
1FC00000
1FF00004
0FFC003C
07FFFFFC
03FFFFFC
01FFFFFC
00FFFFFC
003FFFF8
0003FF80
0001F000
0001E000
0003E000
0003F000
0007FC00
0001FE00
00007F00
00003F00
00001F00
00001F00
00003F00
00007F00
001FFE00
001FFC00
001FF800
001FC000
ENDCHAR
STARTCHAR egrave
ENCODING 232
SWIDTH 600 0
DWIDTH 43 0
BBX 33 57 5 -1
BITMAP
00FF000000
00FF000000
007F800000
003F800000
001FC00000
001FE00000
000FE00000
0007F00000
0003F00000
0001F80000
0000FC0000
00007C0000
0000000000
0000000000
0000000000
0000000000
0007F80000
003FFF0000
00FFFFC000
01FFFFE000
03FFFFF000
07FE1FF800
0FF003FC00
1FC000FE00
1F8000FE00
3F80007F00
3F00007F00
7F00003F00
7E00003F80
7E00003F80
7E00003F80
FE00003F80
FFFFFFFF80
FFFFFFFF80
FFFFFFFF80
FFFFFFFF80
FFFFFFFF80
FE00000000
FE00000000
FE00000000
FE00000000
FE00000000
7E00000000
7E00000000
7F00000000
7F00000000
3F80000000
3F80000000
1FC0000000
1FE0000600
0FF8003E00
07FFFFFE00
03FFFFFE00
01FFFFFE00
007FFFFE00
003FFFF000
0003FF0000
ENDCHAR
STARTCHAR eacute
ENCODING 233
SWIDTH 600 0
DWIDTH 43 0
BBX 33 57 5 -1
BITMAP
00001FE000
00001FE000
00003FC000
00003F8000
00007F0000
0000FF0000
0000FE0000
0001FC0000
0001F80000
0003F00000
0007E00000
0007C00000
0000000000
0000000000
0000000000
0000000000
0007F80000
003FFF0000
00FFFFC000
01FFFFE000
03FFFFF000
07FE1FF800
0FF003FC00
1FC000FE00
1F8000FE00
3F80007F00
3F00007F00
7F00003F00
7E00003F80
7E00003F80
7E00003F80
FE00003F80
FFFFFFFF80
FFFFFFFF80
FFFFFFFF80
FFFFFFFF80
FFFFFFFF80
FE00000000
FE00000000
FE00000000
FE00000000
FE00000000
7E00000000
7E00000000
7F00000000
7F00000000
3F80000000
3F80000000
1FC0000000
1FE0000600
0FF8003E00
07FFFFFE00
03FFFFFE00
01FFFFFE00
007FFFFE00
003FFFF000
0003FF0000
ENDCHAR
STARTCHAR ecircumflex
ENCODING 234
SWIDTH 600 0
DWIDTH 43 0
BBX 33 57 5 -1
BITMAP
0003F80000
0007FC0000
0007FC0000
000FFE0000
001FFF0000
001FBF0000
003F1F8000
007E0FC000
00FC07E000
01F803F000
03F001F800
03E000F800
0000000000
0000000000
0000000000
0000000000
0007F80000
003FFF0000
00FFFFC000
01FFFFE000
03FFFFF000
07FE1FF800
0FF003FC00
1FC000FE00
1F8000FE00
3F80007F00
3F00007F00
7F00003F00
7E00003F80
7E00003F80
7E00003F80
FE00003F80
FFFFFFFF80
FFFFFFFF80
FFFFFFFF80
FFFFFFFF80
FFFFFFFF80
FE00000000
FE00000000
FE00000000
FE00000000
FE00000000
7E00000000
7E00000000
7F00000000
7F00000000
3F80000000
3F80000000
1FC0000000
1FE0000600
0FF8003E00
07FFFFFE00
03FFFFFE00
01FFFFFE00
007FFFFE00
003FFFF000
0003FF0000
ENDCHAR
STARTCHAR edieresis
ENCODING 235
SWIDTH 600 0
DWIDTH 43 0
BBX 33 53 5 -1
BITMAP
00F003C000
01F807E000
01FC0FE000
01FC0FE000
01FC0FE000
01F807E000
00F003C000
0000000000
0000000000
0000000000
0000000000
0000000000
0007F80000
003FFF0000
00FFFFC000
01FFFFE000
03FFFFF000
07FE1FF800
0FF003FC00
1FC000FE00
1F8000FE00
3F80007F00
3F00007F00
7F00003F00
7E00003F80
7E00003F80
7E00003F80
FE00003F80
FFFFFFFF80
FFFFFFFF80
FFFFFFFF80
FFFFFFFF80
FFFFFFFF80
FE00000000
FE00000000
FE00000000
FE00000000
FE00000000
7E00000000
7E00000000
7F00000000
7F00000000
3F80000000
3F80000000
1FC0000000
1FE0000600
0FF8003E00
07FFFFFE00
03FFFFFE00
01FFFFFE00
007FFFFE00
003FFFF000
0003FF0000
ENDCHAR
STARTCHAR igrave
ENCODING 236
SWIDTH 600 0
DWIDTH 43 0
BBX 31 56 7 0
BITMAP
07F80000
07F80000
03FC0000
01FC0000
00FE0000
00FF0000
007F0000
003F8000
001F8000
000FC000
0007E000
0003E000
00000000
00000000
00000000
00000000
00000000
1FFFC000
1FFFC000
1FFFC000
1FFFC000
07FFC000
000FC000
000FC000
000FC000
000FC000
000FC000
000FC000
000FC000
000FC000
000FC000
000FC000
000FC000
000FC000
000FC000
000FC000
000FC000
000FC000
000FC000
000FC000
000FC000
000FC000
000FC000
000FC000
000FC000
000FC000
000FC000
000FC000
000FC000
000FC000
000FC000
1FFFFFF0
FFFFFFFE
FFFFFFFE
FFFFFFFE
FFFFFFFE
ENDCHAR
STARTCHAR iacute
ENCODING 237
SWIDTH 600 0
DWIDTH 43 0
BBX 31 56 7 0
BITMAP
00003FC0
00003FC0
00007F80
00007F00
0000FE00
0001FE00
0001FC00
0003F800
0003F000
0007E000
000FC000
000F8000
00000000
00000000
00000000
00000000
00000000
1FFFC000
1FFFC000
1FFFC000
1FFFC000
07FFC000
000FC000
000FC000
000FC000
000FC000
000FC000
000FC000
000FC000
000FC000
000FC000
000FC000
000FC000
000FC000
000FC000
000FC000
000FC000
000FC000
000FC000
000FC000
000FC000
000FC000
000FC000
000FC000
000FC000
000FC000
000FC000
000FC000
000FC000
000FC000
000FC000
1FFFFFF0
FFFFFFFE
FFFFFFFE
FFFFFFFE
FFFFFFFE
ENDCHAR
STARTCHAR icircumflex
ENCODING 238
SWIDTH 600 0
DWIDTH 43 0
BBX 31 56 7 0
BITMAP
001FC000
003FE000
003FE000
007FF000
00FFF800
00FDF800
01F8FC00
03F07E00
07E03F00
0FC01F80
1F800FC0
1F0007C0
00000000
00000000
00000000
00000000
00000000
1FFFC000
1FFFC000
1FFFC000
1FFFC000
07FFC000
000FC000
000FC000
000FC000
000FC000
000FC000
000FC000
000FC000
000FC000
000FC000
000FC000
000FC000
000FC000
000FC000
000FC000
000FC000
000FC000
000FC000
000FC000
000FC000
000FC000
000FC000
000FC000
000FC000
000FC000
000FC000
000FC000
000FC000
000FC000
000FC000
1FFFFFF0
FFFFFFFE
FFFFFFFE
FFFFFFFE
FFFFFFFE
ENDCHAR
STARTCHAR idieresis
ENCODING 239
SWIDTH 600 0
DWIDTH 43 0
BBX 31 52 7 0
BITMAP
03C00F00
07E01F80
07F03F80
07F03F80
07F03F80
07E01F80
03C00F00
00000000
00000000
00000000
00000000
00000000
00000000
1FFFC000
1FFFC000
1FFFC000
1FFFC000
07FFC000
000FC000
000FC000
000FC000
000FC000
000FC000
000FC000
000FC000
000FC000
000FC000
000FC000
000FC000
000FC000
000FC000
000FC000
000FC000
000FC000
000FC000
000FC000
000FC000
000FC000
000FC000
000FC000
000FC000
000FC000
000FC000
000FC000
000FC000
000FC000
000FC000
1FFFFFF0
FFFFFFFE
FFFFFFFE
FFFFFFFE
FFFFFFFE
ENDCHAR
STARTCHAR eth
ENCODING 240
SWIDTH 600 0
DWIDTH 43 0
BBX 33 57 5 -1
BITMAP
0010002000
003800E000
007E01F000
007F83F800
007FCFF800
003FFFE000
000FFFC000
0007FF0000
0003FE0000
000FFE0000
001FFF0000
007FFF8000
00FF9FC000
01FE0FE000
00F807E000
007007F000
004003F000
000001F800
000001F800
000000FC00
000000FC00
001FF07E00
00FFFE7E00
01FFFF3E00
07FFFFBF00
0FFFFFFF00
1FFC3FFF00
1FE007FF00
3FC001FF00
3F8000FF80
7F00007F80
7F00007F80
7F00003F80
FE00003F80
FE00003F80
FE00003F80
FE00003F80
FE00003F80
FE00003F80
FE00003F80
FE00003F80
FE00003F80
FE00003F00
FE00003F00
7E00003F00
7E00007F00
7F00007E00
3F0000FE00
3F8000FC00
1FC001FC00
1FE003F800
0FFC1FF000
07FFFFF000
03FFFFE000
01FFFF8000
007FFE0000
000FF80000
ENDCHAR
STARTCHAR ntilde
ENCODING 241
SWIDTH 600 0
DWIDTH 43 0
BBX 31 54 6 0
BITMAP
00F000F0
03FE00F0
07FF00F0
07FFC1E0
0FFFF3E0
0F9FFFE0
0F07FFC0
1E01FFC0
1E007F80
1E001E00
00000000
00000000
00000000
00000000
0003FC00
F81FFF80
F87FFFE0
FCFFFFF0
FDFFFFF0
FDFE1FF8
FFF007FC
FFC003FC
FF8001FC
FF8000FE
FF0000FE
FF0000FE
FE0000FE
FE00007E
FE00007E
FE00007E
FE00007E
FC00007E
FC00007E
FC00007E
FC00007E
FC00007E
FC00007E
FC00007E
FC00007E
FC00007E
FC00007E
FC00007E
FC00007E
FC00007E
FC00007E
FC00007E
FC00007E
FC00007E
FC00007E
FC00007E
FC00007E
FC00007E
FC00007E
FC00007E
ENDCHAR
STARTCHAR ograve
ENCODING 242
SWIDTH 600 0
DWIDTH 43 0
BBX 35 57 4 -1
BITMAP
007F800000
007F800000
003FC00000
001FC00000
000FE00000
000FF00000
0007F00000
0003F80000
0001F80000
0000FC0000
00007E0000
00003E0000
0000000000
0000000000
0000000000
0000000000
0007FC0000
003FFF8000
00FFFFE000
01FFFFF000
03FFFFF800
07FE1FFC00
0FF001FE00
1FE000FF00
1FC0007F00
3F80003F80
3F80003F80
7F00001FC0
7F00001FC0
7E00000FC0
7E00000FC0
FE00000FE0
FE00000FE0
FE00000FE0
FE00000FE0
FE00000FE0
FE00000FE0
FE00000FE0
FE00000FE0
FE00000FE0
FE00000FE0
FE00000FE0
7E00000FC0
7E00000FC0
7F00001FC0
7F00001FC0
3F00003F80
3F80003F80
1FC0007F00
1FE000FF00
0FF001FE00
07FF0FFC00
03FFFFF800
01FFFFF000
00FFFFE000
003FFF8000
0007FC0000
ENDCHAR
STARTCHAR oacute
ENCODING 243
SWIDTH 600 0
DWIDTH 43 0
BBX 35 57 4 -1
BITMAP
00000FF000
00000FF000
00001FE000
00001FC000
00003F8000
00007F8000
00007F0000
0000FE0000
0000FC0000
0001F80000
0003F00000
0003E00000
0000000000
0000000000
0000000000
0000000000
0007FC0000
003FFF8000
00FFFFE000
01FFFFF000
03FFFFF800
07FE1FFC00
0FF001FE00
1FE000FF00
1FC0007F00
3F80003F80
3F80003F80
7F00001FC0
7F00001FC0
7E00000FC0
7E00000FC0
FE00000FE0
FE00000FE0
FE00000FE0
FE00000FE0
FE00000FE0
FE00000FE0
FE00000FE0
FE00000FE0
FE00000FE0
FE00000FE0
FE00000FE0
7E00000FC0
7E00000FC0
7F00001FC0
7F00001FC0
3F00003F80
3F80003F80
1FC0007F00
1FE000FF00
0FF001FE00
07FF0FFC00
03FFFFF800
01FFFFF000
00FFFFE000
003FFF8000
0007FC0000
ENDCHAR
STARTCHAR ocircumflex
ENCODING 244
SWIDTH 600 0
DWIDTH 43 0
BBX 35 57 4 -1
BITMAP
0003F80000
0007FC0000
0007FC0000
000FFE0000
001FFF0000
001FBF0000
003F1F8000
007E0FC000
00FC07E000
01F803F000
03F001F800
03E000F800
0000000000
0000000000
0000000000
0000000000
0007FC0000
003FFF8000
00FFFFE000
01FFFFF000
03FFFFF800
07FE1FFC00
0FF001FE00
1FE000FF00
1FC0007F00
3F80003F80
3F80003F80
7F00001FC0
7F00001FC0
7E00000FC0
7E00000FC0
FE00000FE0
FE00000FE0
FE00000FE0
FE00000FE0
FE00000FE0
FE00000FE0
FE00000FE0
FE00000FE0
FE00000FE0
FE00000FE0
FE00000FE0
7E00000FC0
7E00000FC0
7F00001FC0
7F00001FC0
3F00003F80
3F80003F80
1FC0007F00
1FE000FF00
0FF001FE00
07FF0FFC00
03FFFFF800
01FFFFF000
00FFFFE000
003FFF8000
0007FC0000
ENDCHAR
STARTCHAR otilde
ENCODING 245
SWIDTH 600 0
DWIDTH 43 0
BBX 35 55 4 -1
BITMAP
003C003C00
00FF803C00
01FFC03C00
01FFF07800
03FFFCF800
03E7FFF800
03C1FFF000
07807FF000
07801FE000
0780078000
0000000000
0000000000
0000000000
0000000000
0007FC0000
003FFF8000
00FFFFE000
01FFFFF000
03FFFFF800
07FE1FFC00
0FF001FE00
1FE000FF00
1FC0007F00
3F80003F80
3F80003F80
7F00001FC0
7F00001FC0
7E00000FC0
7E00000FC0
FE00000FE0
FE00000FE0
FE00000FE0
FE00000FE0
FE00000FE0
FE00000FE0
FE00000FE0
FE00000FE0
FE00000FE0
FE00000FE0
FE00000FE0
7E00000FC0
7E00000FC0
7F00001FC0
7F00001FC0
3F00003F80
3F80003F80
1FC0007F00
1FE000FF00
0FF001FE00
07FF0FFC00
03FFFFF800
01FFFFF000
00FFFFE000
003FFF8000
0007FC0000
ENDCHAR
STARTCHAR odieresis
ENCODING 246
SWIDTH 600 0
DWIDTH 43 0
BBX 35 53 4 -1
BITMAP
007801E000
00FC03F000
00FE07F000
00FE07F000
00FE07F000
00FC03F000
007801E000
0000000000
0000000000
0000000000
0000000000
0000000000
0007FC0000
003FFF8000
00FFFFE000
01FFFFF000
03FFFFF800
07FE1FFC00
0FF001FE00
1FE000FF00
1FC0007F00
3F80003F80
3F80003F80
7F00001FC0
7F00001FC0
7E00000FC0
7E00000FC0
FE00000FE0
FE00000FE0
FE00000FE0
FE00000FE0
FE00000FE0
FE00000FE0
FE00000FE0
FE00000FE0
FE00000FE0
FE00000FE0
FE00000FE0
7E00000FC0
7E00000FC0
7F00001FC0
7F00001FC0
3F00003F80
3F80003F80
1FC0007F00
1FE000FF00
0FF001FE00
07FF0FFC00
03FFFFF800
01FFFFF000
00FFFFE000
003FFF8000
0007FC0000
ENDCHAR
STARTCHAR divide
ENCODING 247
SWIDTH 600 0
DWIDTH 43 0
BBX 32 33 6 9
BITMAP
0003C000
0007E000
000FF000
000FF000
000FF000
000FF000
000FF000
0007E000
0003C000
00000000
00000000
00000000
00000000
00000000
FFFFFFFF
FFFFFFFF
FFFFFFFF
FFFFFFFF
FFFFFFFF
00000000
00000000
00000000
00000000
00000000
0003C000
0007E000
000FF000
000FF000
000FF000
000FF000
000FF000
0007E000
0003C000
ENDCHAR
STARTCHAR oslash
ENCODING 248
SWIDTH 600 0
DWIDTH 43 0
BBX 35 45 4 -3
BITMAP
0000000C00
0000001E00
0007FC1F80
003FFFBF80
00FFFFFF00
01FFFFFE00
03FFFFFE00
07FE1FFC00
0FF001FE00
1FC003FF00
1FC003FF00
3F8007FF80
3F000FFF80
7F000FDFC0
7F001FDFC0
7E001F8FC0
FE003F0FC0
FE007F0FE0
FE007E0FE0
FE00FE0FE0
FE00FC0FE0
FE01F80FE0
FE03F80FE0
FE03F00FE0
FE07F00FE0
FE07E00FE0
FE0FC00FE0
FE1FC00FE0
7E1F800FC0
7E3F800FC0
7F3F001FC0
7F7E001FC0
3FFE001F80
3FFC003F80
1FFC007F00
1FF800FF00
0FF001FE00
07FF0FFC00
0FFFFFF800
0FFFFFF000
1FFFFFE000
3FBFFF8000
3F07FC0000
0F00000000
0600000000
ENDCHAR
STARTCHAR ugrave
ENCODING 249
SWIDTH 600 0
DWIDTH 43 0
BBX 31 57 6 -1
BITMAP
03FC0000
03FC0000
01FE0000
00FE0000
007F0000
007F8000
003F8000
001FC000
000FC000
0007E000
0003F000
0001F000
00000000
00000000
00000000
00000000
00000000
FC00007E
FC00007E
FC00007E
FC00007E
FC00007E
FC00007E
FC00007E
FC00007E
FC00007E
FC00007E
FC00007E
FC00007E
FC00007E
FC00007E
FC00007E
FC00007E
FC00007E
FC00007E
FC00007E
FC00007E
FC00007E
FC00007E
FC00007E
FC0000FE
FC0000FE
FC0000FE
FC0000FE
FE0000FE
FE0000FE
FE0001FE
FE0001FE
7F0003FE
7F8007FE
7FC00FFE
3FF07F7E
1FFFFF7E
1FFFFE7E
0FFFFC3E
03FFF03E
007F8000
ENDCHAR
STARTCHAR uacute
ENCODING 250
SWIDTH 600 0
DWIDTH 43 0
BBX 31 57 6 -1
BITMAP
00003FC0
00003FC0
00007F80
00007F00
0000FE00
0001FE00
0001FC00
0003F800
0003F000
0007E000
000FC000
000F8000
00000000
00000000
00000000
00000000
00000000
FC00007E
FC00007E
FC00007E
FC00007E
FC00007E
FC00007E
FC00007E
FC00007E
FC00007E
FC00007E
FC00007E
FC00007E
FC00007E
FC00007E
FC00007E
FC00007E
FC00007E
FC00007E
FC00007E
FC00007E
FC00007E
FC00007E
FC00007E
FC0000FE
FC0000FE
FC0000FE
FC0000FE
FE0000FE
FE0000FE
FE0001FE
FE0001FE
7F0003FE
7F8007FE
7FC00FFE
3FF07F7E
1FFFFF7E
1FFFFE7E
0FFFFC3E
03FFF03E
007F8000
ENDCHAR
STARTCHAR ucircumflex
ENCODING 251
SWIDTH 600 0
DWIDTH 43 0
BBX 31 57 6 -1
BITMAP
0007F000
000FF800
000FF800
001FFC00
003FFE00
003F7E00
007E3F00
00FC1F80
01F80FC0
03F007E0
07E003F0
07C001F0
00000000
00000000
00000000
00000000
00000000
FC00007E
FC00007E
FC00007E
FC00007E
FC00007E
FC00007E
FC00007E
FC00007E
FC00007E
FC00007E
FC00007E
FC00007E
FC00007E
FC00007E
FC00007E
FC00007E
FC00007E
FC00007E
FC00007E
FC00007E
FC00007E
FC00007E
FC00007E
FC0000FE
FC0000FE
FC0000FE
FC0000FE
FE0000FE
FE0000FE
FE0001FE
FE0001FE
7F0003FE
7F8007FE
7FC00FFE
3FF07F7E
1FFFFF7E
1FFFFE7E
0FFFFC3E
03FFF03E
007F8000
ENDCHAR
STARTCHAR udieresis
ENCODING 252
SWIDTH 600 0
DWIDTH 43 0
BBX 31 53 6 -1
BITMAP
01E00780
03F00FC0
03F81FC0
03F81FC0
03F81FC0
03F00FC0
01E00780
00000000
00000000
00000000
00000000
00000000
00000000
FC00007E
FC00007E
FC00007E
FC00007E
FC00007E
FC00007E
FC00007E
FC00007E
FC00007E
FC00007E
FC00007E
FC00007E
FC00007E
FC00007E
FC00007E
FC00007E
FC00007E
FC00007E
FC00007E
FC00007E
FC00007E
FC00007E
FC00007E
FC0000FE
FC0000FE
FC0000FE
FC0000FE
FE0000FE
FE0000FE
FE0001FE
FE0001FE
7F0003FE
7F8007FE
7FC00FFE
3FF07F7E
1FFFFF7E
1FFFFE7E
0FFFFC3E
03FFF03E
007F8000
ENDCHAR
STARTCHAR yacute
ENCODING 253
SWIDTH 600 0
DWIDTH 43 0
BBX 37 73 3 -17
BITMAP
00000FF000
00000FF000
00001FE000
00001FC000
00003F8000
00007F8000
00007F0000
0000FE0000
0000FC0000
0001F80000
0003F00000
0003E00000
0000000000
0000000000
0000000000
0000000000
0000000000
FE000003F8
7E000003F0
7F000007F0
7F000007F0
3F000007E0
3F80000FE0
1F80000FE0
1FC0000FC0
1FC0001FC0
0FC0001F80
0FE0001F80
07E0003F80
07F0003F00
07F0003F00
03F0007F00
03F8007E00
01F8007E00
01F800FC00
01FC00FC00
00FC00FC00
00FE01F800
007E01F800
007E01F800
007F03F000
003F03F000
003F83E000
001F87E000
001F87E000
001FC7C000
000FCFC000
000FCFC000
0007EF8000
0007EF8000
0007FF0000
0003FF0000
0003FF0000
0001FE0000
0001FE0000
0000FE0000
0000FC0000
0000FC0000
0001F80000
0001F80000
0001F80000
0003F00000
0003F00000
0007E00000
0007E00000
000FC00000
001FC00000
61FF800000
7FFF800000
7FFF000000
7FFE000000
7FF8000000
3FE0000000
ENDCHAR
STARTCHAR thorn
ENCODING 254
SWIDTH 600 0
DWIDTH 43 0
BBX 32 72 6 -17
BITMAP
FC000000
FC000000
FC000000
FC000000
FC000000
FC000000
FC000000
FC000000
FC000000
FC000000
FC000000
FC000000
FC000000
FC000000
FC000000
FC07F800
FC1FFF00
FC7FFF80
FCFFFFC0
FDFFFFE0
FDFC3FF0
FFE007F8
FFC003F8
FF8001FC
FF0001FC
FF0000FE
FE0000FE
FE0000FE
FE00007E
FE00007F
FE00007F
FE00007F
FC00007F
FC00007F
FC00007F
FC00007F
FC00007F
FC00007F
FC00007F
FE00007F
FE00007F
FE00007F
FE00007E
FE0000FE
FE0000FE
FF0000FE
FF0001FC
FF8001FC
FFC003F8
FFE007F8
FFFC3FF0
FDFFFFE0
FCFFFFC0
FC7FFF80
FC1FFF00
FC07F800
FC000000
FC000000
FC000000
FC000000
FC000000
FC000000
FC000000
FC000000
FC000000
FC000000
FC000000
FC000000
FC000000
FC000000
FC000000
FC000000
ENDCHAR
STARTCHAR ydieresis
ENCODING 255
SWIDTH 600 0
DWIDTH 43 0
BBX 37 69 3 -17
BITMAP
003C00F000
007E01F800
007F03F800
007F03F800
007F03F800
007E01F800
003C00F000
0000000000
0000000000
0000000000
0000000000
0000000000
0000000000
FE000003F8
7E000003F0
7F000007F0
7F000007F0
3F000007E0
3F80000FE0
1F80000FE0
1FC0000FC0
1FC0001FC0
0FC0001F80
0FE0001F80
07E0003F80
07F0003F00
07F0003F00
03F0007F00
03F8007E00
01F8007E00
01F800FC00
01FC00FC00
00FC00FC00
00FE01F800
007E01F800
007E01F800
007F03F000
003F03F000
003F83E000
001F87E000
001F87E000
001FC7C000
000FCFC000
000FCFC000
0007EF8000
0007EF8000
0007FF0000
0003FF0000
0003FF0000
0001FE0000
0001FE0000
0000FE0000
0000FC0000
0000FC0000
0001F80000
0001F80000
0001F80000
0003F00000
0003F00000
0007E00000
0007E00000
000FC00000
001FC00000
61FF800000
7FFF800000
7FFF000000
7FFE000000
7FF8000000
3FE0000000
ENDCHAR
STARTCHAR .notdef
ENCODING -1
SWIDTH 600 0
DWIDTH 43 0
BBX 29 51 7 0
BITMAP
FFFFFFF8
FFFFFFF8
FFFFFFF8
FFFFFFF8
F0000078
F0000078
F0000078
F0000078
F0000078
F0000078
F0000078
F0000078
F0000078
F0000078
F0000078
F0000078
F0000078
F0000078
F0000078
F0000078
F0000078
F0000078
F0000078
F0000078
F0000078
F0000078
F0000078
F0000078
F0000078
F0000078
F0000078
F0000078
F0000078
F0000078
F0000078
F0000078
F0000078
F0000078
F0000078
F0000078
F0000078
F0000078
F0000078
F0000078
F0000078
F0000078
F0000078
FFFFFFF8
FFFFFFF8
FFFFFFF8
FFFFFFF8
ENDCHAR
STARTCHAR Amacron
ENCODING -1
SWIDTH 600 0
DWIDTH 43 0
BBX 41 61 1 0
BITMAP
001FFFFE0000
001FFFFE0000
001FFFFE0000
001FFFFE0000
001FFFFE0000
000000000000
000000000000
000000000000
000000000000
000000000000
00007F000000
00007F000000
0000FF800000
0000FF800000
0000FF800000
0001FFC00000
0001FFC00000
0001F7C00000
0003F7E00000
0003F7E00000
0003F7E00000
0007E3F00000
0007E3F00000
0007E3F00000
000FE3F80000
000FC1F80000
000FC1F80000
001FC1FC0000
001F80FC0000
001F80FC0000
003F80FE0000
003F007E0000
003F007E0000
007F007F0000
007E003F0000
007E003F0000
00FE003F8000
00FE001F8000
00FC001F8000
01FC001FC000
01FFFFFFC000
01FFFFFFC000
03FFFFFFE000
03FFFFFFE000
03FFFFFFF000
07FFFFFFF000
07F00007F000
07E00003F800
0FE00003F800
0FE00003F800
0FC00001FC00
1FC00001FC00
1FC00001FC00
1F800000FE00
3F800000FE00
3F800000FE00
7F0000007F00
7F0000007F00
7F0000007F00
FE0000003F80
FE0000003F80
ENDCHAR
STARTCHAR amacron
ENCODING -1
SWIDTH 600 0
DWIDTH 43 0
BBX 31 50 5 -1
BITMAP
01FFFFE0
01FFFFE0
01FFFFE0
01FFFFE0
01FFFFE0
00000000
00000000
00000000
00000000
001FFC00
01FFFF80
07FFFFE0
1FFFFFF0
1FFFFFF8
0FFC3FF8
0F8007FC
060003FC
000001FC
000000FE
000000FE
000000FE
0000007E
0000007E
0000007E
0000007E
0000007E
0003FFFE
007FFFFE
03FFFFFE
07FFFFFE
1FFFFC7E
3FF8007E
3FC0007E
7F80007E
7F00007E
FE0000FE
FE0000FE
FE0000FE
FE0000FE
FE0001FE
FE0001FE
FE0003FE
7F0007FE
7F000FFE
7FC07F7E
3FFFFF7E
1FFFFC3E
0FFFF83E
07FFF03E
00FF8000
ENDCHAR
STARTCHAR Abreve
ENCODING -1
SWIDTH 600 0
DWIDTH 43 0
BBX 41 66 1 0
BITMAP
003C001E0000
003C001E0000
003C003E0000
001E007C0000
001FC1FC0000
001FFFF80000
000FFFF80000
0007FFF00000
0003FFC00000
00007F000000
000000000000
000000000000
000000000000
000000000000
000000000000
00007F000000
00007F000000
0000FF800000
0000FF800000
0000FF800000
0001FFC00000
0001FFC00000
0001F7C00000
0003F7E00000
0003F7E00000
0003F7E00000
0007E3F00000
0007E3F00000
0007E3F00000
000FE3F80000
000FC1F80000
000FC1F80000
001FC1FC0000
001F80FC0000
001F80FC0000
003F80FE0000
003F007E0000
003F007E0000
007F007F0000
007E003F0000
007E003F0000
00FE003F8000
00FE001F8000
00FC001F8000
01FC001FC000
01FFFFFFC000
01FFFFFFC000
03FFFFFFE000
03FFFFFFE000
03FFFFFFF000
07FFFFFFF000
07F00007F000
07E00003F800
0FE00003F800
0FE00003F800
0FC00001FC00
1FC00001FC00
1FC00001FC00
1F800000FE00
3F800000FE00
3F800000FE00
7F0000007F00
7F0000007F00
7F0000007F00
FE0000003F80
FE0000003F80
ENDCHAR
STARTCHAR abreve
ENCODING -1
SWIDTH 600 0
DWIDTH 43 0
BBX 31 55 5 -1
BITMAP
03C001E0
03C001E0
03C003E0
01E007C0
01FC1FC0
01FFFF80
00FFFF80
007FFF00
003FFC00
0007F000
00000000
00000000
00000000
00000000
001FFC00
01FFFF80
07FFFFE0
1FFFFFF0
1FFFFFF8
0FFC3FF8
0F8007FC
060003FC
000001FC
000000FE
000000FE
000000FE
0000007E
0000007E
0000007E
0000007E
0000007E
0003FFFE
007FFFFE
03FFFFFE
07FFFFFE
1FFFFC7E
3FF8007E
3FC0007E
7F80007E
7F00007E
FE0000FE
FE0000FE
FE0000FE
FE0000FE
FE0001FE
FE0001FE
FE0003FE
7F0007FE
7F000FFE
7FC07F7E
3FFFFF7E
1FFFFC3E
0FFFF83E
07FFF03E
00FF8000
ENDCHAR
STARTCHAR Aogonek
ENCODING -1
SWIDTH 600 0
DWIDTH 43 0
BBX 42 67 1 -16
BITMAP
00007F000000
00007F000000
0000FF800000
0000FF800000
0000FF800000
0001FFC00000
0001FFC00000
0001F7C00000
0003F7E00000
0003F7E00000
0003F7E00000
0007E3F00000
0007E3F00000
0007E3F00000
000FE3F80000
000FC1F80000
000FC1F80000
001FC1FC0000
001F80FC0000
001F80FC0000
003F80FE0000
003F007E0000
003F007E0000
007F007F0000
007E003F0000
007E003F0000
00FE003F8000
00FE001F8000
00FC001F8000
01FC001FC000
01FFFFFFC000
01FFFFFFC000
03FFFFFFE000
03FFFFFFE000
03FFFFFFF000
07FFFFFFF000
07F00007F000
07E00003F800
0FE00003F800
0FE00003F800
0FC00001FC00
1FC00001FC00
1FC00001FC00
1F800000FE00
3F800000FE00
3F800000FE00
7F0000007F00
7F0000007F00
7F0000007F00
FE0000003F80
FE0000003F80
000000003E00
00000000F800
00000001F000
00000003E000
00000007C000
00000007C000
0000000F8000
0000000F8000
0000000F8000
0000000F8000
0000000FC000
0000000FE040
00000007FFC0
00000003FFC0
00000001FFC0
000000007F80
ENDCHAR
STARTCHAR aogonek
ENCODING -1
SWIDTH 600 0
DWIDTH 43 0
BBX 34 56 5 -16
BITMAP
001FFC0000
01FFFF8000
07FFFFE000
1FFFFFF000
1FFFFFF800
0FFC3FF800
0F8007FC00
060003FC00
000001FC00
000000FE00
000000FE00
000000FE00
0000007E00
0000007E00
0000007E00
0000007E00
0000007E00
0003FFFE00
007FFFFE00
03FFFFFE00
07FFFFFE00
1FFFFC7E00
3FF8007E00
3FC0007E00
7F80007E00
7F00007E00
FE0000FE00
FE0000FE00
FE0000FE00
FE0000FE00
FE0001FE00
FE0001FE00
FE0003FE00
7F0007FE00
7F000FFE00
7FC07F7E00
3FFFFF7E00
1FFFFC3E00
0FFFF83E00
07FFF03E00
00FF803E00
000000F800
000001F000
000003E000
000007C000
000007C000
00000F8000
00000F8000
00000F8000
00000F8000
00000FC000
00000FE040
000007FFC0
000003FFC0
000001FFC0
0000007F80
ENDCHAR
STARTCHAR Cacute
ENCODING -1
SWIDTH 600 0
DWIDTH 43 0
BBX 36 69 5 -1
BITMAP
000000FF00
000000FF00
000001FE00
000001FC00
000003F800
000007F800
000007F000
00000FE000
00000FC000
00001F8000
00003F0000
00003E0000
0000000000
0000000000
0000000000
0000000000
00003FF800
0003FFFF80
000FFFFFE0
003FFFFFF0
007FFFFFE0
00FFFFFFE0
01FFC00FC0
03FF0001C0
07FC000000
0FF8000000
0FF0000000
1FE0000000
1FC0000000
3FC0000000
3F80000000
3F80000000
7F00000000
7F00000000
7F00000000
7F00000000
FE00000000
FE00000000
FE00000000
FE00000000
FE00000000
FE00000000
FE00000000
FE00000000
FE00000000
FE00000000
FE00000000
FE00000000
FE00000000
FF00000000
7F00000000
7F00000000
7F00000000
7F80000000
3F80000000
3F80000000
3FC0000000
1FE0000000
1FE0000000
0FF0000000
0FFC000000
07FE000040
03FFC007C0
01FFFFFFC0
00FFFFFFC0
007FFFFFC0
001FFFFFC0
0007FFFF80
0000FFF000
ENDCHAR
STARTCHAR cacute
ENCODING -1
SWIDTH 600 0
DWIDTH 43 0
BBX 31 57 6 -1
BITMAP
00000FF0
00000FF0
00001FE0
00001FC0
00003F80
00007F80
00007F00
0000FE00
0000FC00
0001F800
0003F000
0003E000
00000000
00000000
00000000
00000000
0003FF80
001FFFF8
007FFFFE
01FFFFFC
03FFFFFC
07FFFFFC
0FFC0078
1FF00008
1FE00000
3FC00000
3F800000
7F000000
7F000000
7F000000
7E000000
FE000000
FE000000
FE000000
FE000000
FE000000
FE000000
FE000000
FE000000
FE000000
FE000000
FE000000
FE000000
7E000000
7F000000
7F000000
3F800000
3FC00000
1FC00000
1FF00004
0FFC003C
07FFFFFC
03FFFFFC
01FFFFFC
00FFFFFC
003FFFF8
0003FF80
ENDCHAR
STARTCHAR Ccircumflex
ENCODING -1
SWIDTH 600 0
DWIDTH 43 0
BBX 36 69 5 -1
BITMAP
00001FC000
00003FE000
00003FE000
00007FF000
0000FFF800
0000FDF800
0001F8FC00
0003F07E00
0007E03F00
000FC01F80
001F800FC0
001F0007C0
0000000000
0000000000
0000000000
0000000000
00003FF800
0003FFFF80
000FFFFFE0
003FFFFFF0
007FFFFFE0
00FFFFFFE0
01FFC00FC0
03FF0001C0
07FC000000
0FF8000000
0FF0000000
1FE0000000
1FC0000000
3FC0000000
3F80000000
3F80000000
7F00000000
7F00000000
7F00000000
7F00000000
FE00000000
FE00000000
FE00000000
FE00000000
FE00000000
FE00000000
FE00000000
FE00000000
FE00000000
FE00000000
FE00000000
FE00000000
FE00000000
FF00000000
7F00000000
7F00000000
7F00000000
7F80000000
3F80000000
3F80000000
3FC0000000
1FE0000000
1FE0000000
0FF0000000
0FFC000000
07FE000040
03FFC007C0
01FFFFFFC0
00FFFFFFC0
007FFFFFC0
001FFFFFC0
0007FFFF80
0000FFF000
ENDCHAR
STARTCHAR ccircumflex
ENCODING -1
SWIDTH 600 0
DWIDTH 43 0
BBX 31 57 6 -1
BITMAP
0001FC00
0003FE00
0003FE00
0007FF00
000FFF80
000FDF80
001F8FC0
003F07E0
007E03F0
00FC01F8
01F800FC
01F0007C
00000000
00000000
00000000
00000000
0003FF80
001FFFF8
007FFFFE
01FFFFFC
03FFFFFC
07FFFFFC
0FFC0078
1FF00008
1FE00000
3FC00000
3F800000
7F000000
7F000000
7F000000
7E000000
FE000000
FE000000
FE000000
FE000000
FE000000
FE000000
FE000000
FE000000
FE000000
FE000000
FE000000
FE000000
7E000000
7F000000
7F000000
3F800000
3FC00000
1FC00000
1FF00004
0FFC003C
07FFFFFC
03FFFFFC
01FFFFFC
00FFFFFC
003FFFF8
0003FF80
ENDCHAR
STARTCHAR Cdotaccent
ENCODING -1
SWIDTH 600 0
DWIDTH 43 0
BBX 36 65 5 -1
BITMAP
0000078000
00000FC000
00001FC000
00001FC000
00001FC000
00000FC000
0000078000
0000000000
0000000000
0000000000
0000000000
0000000000
00003FF800
0003FFFF80
000FFFFFE0
003FFFFFF0
007FFFFFE0
00FFFFFFE0
01FFC00FC0
03FF0001C0
07FC000000
0FF8000000
0FF0000000
1FE0000000
1FC0000000
3FC0000000
3F80000000
3F80000000
7F00000000
7F00000000
7F00000000
7F00000000
FE00000000
FE00000000
FE00000000
FE00000000
FE00000000
FE00000000
FE00000000
FE00000000
FE00000000
FE00000000
FE00000000
FE00000000
FE00000000
FF00000000
7F00000000
7F00000000
7F00000000
7F80000000
3F80000000
3F80000000
3FC0000000
1FE0000000
1FE0000000
0FF0000000
0FFC000000
07FE000040
03FFC007C0
01FFFFFFC0
00FFFFFFC0
007FFFFFC0
001FFFFFC0
0007FFFF80
0000FFF000
ENDCHAR
STARTCHAR cdotaccent
ENCODING -1
SWIDTH 600 0
DWIDTH 43 0
BBX 31 53 6 -1
BITMAP
00007800
0000FC00
0001FC00
0001FC00
0001FC00
0000FC00
00007800
00000000
00000000
00000000
00000000
00000000
0003FF80
001FFFF8
007FFFFE
01FFFFFC
03FFFFFC
07FFFFFC
0FFC0078
1FF00008
1FE00000
3FC00000
3F800000
7F000000
7F000000
7F000000
7E000000
FE000000
FE000000
FE000000
FE000000
FE000000
FE000000
FE000000
FE000000
FE000000
FE000000
FE000000
FE000000
7E000000
7F000000
7F000000
3F800000
3FC00000
1FC00000
1FF00004
0FFC003C
07FFFFFC
03FFFFFC
01FFFFFC
00FFFFFC
003FFFF8
0003FF80
ENDCHAR
STARTCHAR Ccaron
ENCODING -1
SWIDTH 600 0
DWIDTH 43 0
BBX 36 69 5 -1
BITMAP
001F0007C0
001F800FC0
000FC01F80
0007E03F00
0003F07E00
0001F8FC00
0000FDF800
0000FFF800
00007FF000
00003FE000
00003FE000
00001FC000
0000000000
0000000000
0000000000
0000000000
00003FF800
0003FFFF80
000FFFFFE0
003FFFFFF0
007FFFFFE0
00FFFFFFE0
01FFC00FC0
03FF0001C0
07FC000000
0FF8000000
0FF0000000
1FE0000000
1FC0000000
3FC0000000
3F80000000
3F80000000
7F00000000
7F00000000
7F00000000
7F00000000
FE00000000
FE00000000
FE00000000
FE00000000
FE00000000
FE00000000
FE00000000
FE00000000
FE00000000
FE00000000
FE00000000
FE00000000
FE00000000
FF00000000
7F00000000
7F00000000
7F00000000
7F80000000
3F80000000
3F80000000
3FC0000000
1FE0000000
1FE0000000
0FF0000000
0FFC000000
07FE000040
03FFC007C0
01FFFFFFC0
00FFFFFFC0
007FFFFFC0
001FFFFFC0
0007FFFF80
0000FFF000
ENDCHAR
STARTCHAR ccaron
ENCODING -1
SWIDTH 600 0
DWIDTH 43 0
BBX 31 57 6 -1
BITMAP
01F0007C
01F800FC
00FC01F8
007E03F0
003F07E0
001F8FC0
000FDF80
000FFF80
0007FF00
0003FE00
0003FE00
0001FC00
00000000
00000000
00000000
00000000
0003FF80
001FFFF8
007FFFFE
01FFFFFC
03FFFFFC
07FFFFFC
0FFC0078
1FF00008
1FE00000
3FC00000
3F800000
7F000000
7F000000
7F000000
7E000000
FE000000
FE000000
FE000000
FE000000
FE000000
FE000000
FE000000
FE000000
FE000000
FE000000
FE000000
FE000000
7E000000
7F000000
7F000000
3F800000
3FC00000
1FC00000
1FF00004
0FFC003C
07FFFFFC
03FFFFFC
01FFFFFC
00FFFFFC
003FFFF8
0003FF80
ENDCHAR
STARTCHAR Dcaron
ENCODING -1
SWIDTH 600 0
DWIDTH 43 0
BBX 35 68 5 0
BITMAP
07C001F000
07E003F000
03F007E000
01F80FC000
00FC1F8000
007E3F0000
003F7E0000
003FFE0000
001FFC0000
000FF80000
000FF80000
0007F00000
0000000000
0000000000
0000000000
0000000000
0000000000
FFFFC00000
FFFFF80000
FFFFFF0000
FFFFFF8000
FFFFFFE000
FFFFFFF000
FE003FF800
FE000FFC00
FE0003FC00
FE0001FE00
FE0000FF00
FE00007F00
FE00007F80
FE00003F80
FE00003F80
FE00001FC0
FE00001FC0
FE00001FC0
FE00001FC0
FE00000FE0
FE00000FE0
FE00000FE0
FE00000FE0
FE00000FE0
FE00000FE0
FE00000FE0
FE00000FE0
FE00000FE0
FE00000FE0
FE00000FE0
FE00000FE0
FE00000FE0
FE00001FC0
FE00001FC0
FE00001FC0
FE00003FC0
FE00003F80
FE00003F80
FE00007F00
FE0000FF00
FE0001FE00
FE0003FE00
FE0007FC00
FE001FF800
FE007FF000
FFFFFFE000
FFFFFFC000
FFFFFF8000
FFFFFE0000
FFFFF80000
FFFF000000
ENDCHAR
STARTCHAR dcaron
ENCODING -1
SWIDTH 600 0
DWIDTH 43 0
BBX 43 56 3 -1
BITMAP
0000003F07E0
0000003F07E0
0000003F07C0
0000003F07C0
0000003F0FC0
0000003F0F80
0000003F0F80
0000003F0F80
0000003F0F00
0000003F1F00
0000003F1E00
0000003F1C00
0000003F0000
0000003F0000
0000003F0000
001FE03F0000
00FFF83F0000
01FFFE3F0000
03FFFF3F0000
07FFFFBF0000
0FFC3FFF0000
1FE007FF0000
1FC003FF0000
3F8001FF0000
3F8000FF0000
7F0000FF0000
7F0000FF0000
7F00007F0000
7E00007F0000
FE00007F0000
FE00007F0000
FE00007F0000
FE00007F0000
FE00003F0000
FE00003F0000
FE00003F0000
FE00003F0000
FE00003F0000
FE00003F0000
FE00007F0000
FE00007F0000
FE00007F0000
7E00007F0000
7E00007F0000
7F00007F0000
7F0000FF0000
3F8000FF0000
3F8001FF0000
1FC003FF0000
1FE007FF0000
0FFC3FBF0000
07FFFFBF0000
07FFFF3F0000
01FFFE1F0000
00FFF81F0000
001FC0000000
ENDCHAR
STARTCHAR Dcroat
ENCODING -1
SWIDTH 600 0
DWIDTH 43 0
BBX 40 51 0 0
BITMAP
07FFFE0000
07FFFFC000
07FFFFF800
07FFFFFC00
07FFFFFF00
07FFFFFF80
07F001FFC0
07F0007FE0
07F0001FE0
07F0000FF0
07F00007F8
07F00003F8
07F00003FC
07F00001FC
07F00001FC
07F00000FE
07F00000FE
07F00000FE
07F00000FE
07F000007F
07F000007F
07F000007F
FFFFFF807F
FFFFFF807F
FFFFFF807F
FFFFFF807F
FFFFFF807F
FFFFFF807F
07F000007F
07F000007F
07F000007F
07F000007F
07F00000FE
07F00000FE
07F00000FE
07F00001FE
07F00001FC
07F00001FC
07F00003F8
07F00007F8
07F0000FF0
07F0001FF0
07F0003FE0
07F000FFC0
07F003FF80
07FFFFFF00
07FFFFFE00
07FFFFFC00
07FFFFF000
07FFFFC000
07FFF80000
ENDCHAR
STARTCHAR dcroat
ENCODING -1
SWIDTH 600 0
DWIDTH 43 0
BBX 37 56 5 -1
BITMAP
0000003F00
0000003F00
0000003F00
0000003F00
0000003F00
0000003F00
0007FFFFF8
0007FFFFF8
0007FFFFF8
0007FFFFF8
0007FFFFF8
0000003F00
0000003F00
0000003F00
0000003F00
0000003F00
0000003F00
001FE03F00
00FFF83F00
01FFFE3F00
07FFFF3F00
0FFFFFBF00
0FFC3FFF00
1FE007FF00
3FC003FF00
3F8001FF00
3F8000FF00
7F0000FF00
7F00007F00
7E00007F00
FE00007F00
FE00007F00
FE00007F00
FE00007F00
FE00003F00
FE00003F00
FE00003F00
FE00003F00
FE00003F00
FE00003F00
FE00007F00
FE00007F00
FE00007F00
7E00007F00
7F00007F00
7F0000FF00
3F0000FF00
3F8001FF00
3FC003FF00
1FE007FF00
0FFC3FBF00
0FFFFF3F00
07FFFE3F00
03FFFC1F00
00FFF81F00
001FE00000
ENDCHAR
STARTCHAR Emacron
ENCODING -1
SWIDTH 600 0
DWIDTH 43 0
BBX 29 61 8 0
BITMAP
0FFFFF00
0FFFFF00
0FFFFF00
0FFFFF00
0FFFFF00
00000000
00000000
00000000
00000000
00000000
FFFFFFF8
FFFFFFF8
FFFFFFF8
FFFFFFF8
FFFFFFF8
FFFFFFF8
FE000000
FE000000
FE000000
FE000000
FE000000
FE000000
FE000000
FE000000
FE000000
FE000000
FE000000
FE000000
FE000000
FE000000
FE000000
FFFFFFF0
FFFFFFF0
FFFFFFF0
FFFFFFF0
FFFFFFF0
FFFFFFF0
FE000000
FE000000
FE000000
FE000000
FE000000
FE000000
FE000000
FE000000
FE000000
FE000000
FE000000
FE000000
FE000000
FE000000
FE000000
FE000000
FE000000
FE000000
FFFFFFF8
FFFFFFF8
FFFFFFF8
FFFFFFF8
FFFFFFF8
FFFFFFF8
ENDCHAR
STARTCHAR emacron
ENCODING -1
SWIDTH 600 0
DWIDTH 43 0
BBX 33 50 5 -1
BITMAP
01FFFFE000
01FFFFE000
01FFFFE000
01FFFFE000
01FFFFE000
0000000000
0000000000
0000000000
0000000000
0007F80000
003FFF0000
00FFFFC000
01FFFFE000
03FFFFF000
07FE1FF800
0FF003FC00
1FC000FE00
1F8000FE00
3F80007F00
3F00007F00
7F00003F00
7E00003F80
7E00003F80
7E00003F80
FE00003F80
FFFFFFFF80
FFFFFFFF80
FFFFFFFF80
FFFFFFFF80
FFFFFFFF80
FE00000000
FE00000000
FE00000000
FE00000000
FE00000000
7E00000000
7E00000000
7F00000000
7F00000000
3F80000000
3F80000000
1FC0000000
1FE0000600
0FF8003E00
07FFFFFE00
03FFFFFE00
01FFFFFE00
007FFFFE00
003FFFF000
0003FF0000
ENDCHAR
STARTCHAR Ebreve
ENCODING -1
SWIDTH 600 0
DWIDTH 43 0
BBX 29 66 8 0
BITMAP
0F000780
0F000780
0F000F80
07801F00
07F07F00
07FFFE00
03FFFE00
01FFFC00
00FFF000
001FC000
00000000
00000000
00000000
00000000
00000000
FFFFFFF8
FFFFFFF8
FFFFFFF8
FFFFFFF8
FFFFFFF8
FFFFFFF8
FE000000
FE000000
FE000000
FE000000
FE000000
FE000000
FE000000
FE000000
FE000000
FE000000
FE000000
FE000000
FE000000
FE000000
FE000000
FFFFFFF0
FFFFFFF0
FFFFFFF0
FFFFFFF0
FFFFFFF0
FFFFFFF0
FE000000
FE000000
FE000000
FE000000
FE000000
FE000000
FE000000
FE000000
FE000000
FE000000
FE000000
FE000000
FE000000
FE000000
FE000000
FE000000
FE000000
FE000000
FFFFFFF8
FFFFFFF8
FFFFFFF8
FFFFFFF8
FFFFFFF8
FFFFFFF8
ENDCHAR
STARTCHAR ebreve
ENCODING -1
SWIDTH 600 0
DWIDTH 43 0
BBX 33 55 5 -1
BITMAP
01E000F000
01E000F000
01E001F000
00F003E000
00FE0FE000
00FFFFC000
007FFFC000
003FFF8000
001FFE0000
0003F80000
0000000000
0000000000
0000000000
0000000000
0007F80000
003FFF0000
00FFFFC000
01FFFFE000
03FFFFF000
07FE1FF800
0FF003FC00
1FC000FE00
1F8000FE00
3F80007F00
3F00007F00
7F00003F00
7E00003F80
7E00003F80
7E00003F80
FE00003F80
FFFFFFFF80
FFFFFFFF80
FFFFFFFF80
FFFFFFFF80
FFFFFFFF80
FE00000000
FE00000000
FE00000000
FE00000000
FE00000000
7E00000000
7E00000000
7F00000000
7F00000000
3F80000000
3F80000000
1FC0000000
1FE0000600
0FF8003E00
07FFFFFE00
03FFFFFE00
01FFFFFE00
007FFFFE00
003FFFF000
0003FF0000
ENDCHAR
STARTCHAR Edotaccent
ENCODING -1
SWIDTH 600 0
DWIDTH 43 0
BBX 29 63 8 0
BITMAP
00078000
000FC000
001FC000
001FC000
001FC000
000FC000
00078000
00000000
00000000
00000000
00000000
00000000
FFFFFFF8
FFFFFFF8
FFFFFFF8
FFFFFFF8
FFFFFFF8
FFFFFFF8
FE000000
FE000000
FE000000
FE000000
FE000000
FE000000
FE000000
FE000000
FE000000
FE000000
FE000000
FE000000
FE000000
FE000000
FE000000
FFFFFFF0
FFFFFFF0
FFFFFFF0
FFFFFFF0
FFFFFFF0
FFFFFFF0
FE000000
FE000000
FE000000
FE000000
FE000000
FE000000
FE000000
FE000000
FE000000
FE000000
FE000000
FE000000
FE000000
FE000000
FE000000
FE000000
FE000000
FE000000
FFFFFFF8
FFFFFFF8
FFFFFFF8
FFFFFFF8
FFFFFFF8
FFFFFFF8
ENDCHAR
STARTCHAR edotaccent
ENCODING -1
SWIDTH 600 0
DWIDTH 43 0
BBX 33 53 5 -1
BITMAP
0000F00000
0001F80000
0003F80000
0003F80000
0003F80000
0001F80000
0000F00000
0000000000
0000000000
0000000000
0000000000
0000000000
0007F80000
003FFF0000
00FFFFC000
01FFFFE000
03FFFFF000
07FE1FF800
0FF003FC00
1FC000FE00
1F8000FE00
3F80007F00
3F00007F00
7F00003F00
7E00003F80
7E00003F80
7E00003F80
FE00003F80
FFFFFFFF80
FFFFFFFF80
FFFFFFFF80
FFFFFFFF80
FFFFFFFF80
FE00000000
FE00000000
FE00000000
FE00000000
FE00000000
7E00000000
7E00000000
7F00000000
7F00000000
3F80000000
3F80000000
1FC0000000
1FE0000600
0FF8003E00
07FFFFFE00
03FFFFFE00
01FFFFFE00
007FFFFE00
003FFFF000
0003FF0000
ENDCHAR
STARTCHAR Eogonek
ENCODING -1
SWIDTH 600 0
DWIDTH 43 0
BBX 29 67 8 -16
BITMAP
FFFFFFF8
FFFFFFF8
FFFFFFF8
FFFFFFF8
FFFFFFF8
FFFFFFF8
FE000000
FE000000
FE000000
FE000000
FE000000
FE000000
FE000000
FE000000
FE000000
FE000000
FE000000
FE000000
FE000000
FE000000
FE000000
FFFFFFF0
FFFFFFF0
FFFFFFF0
FFFFFFF0
FFFFFFF0
FFFFFFF0
FE000000
FE000000
FE000000
FE000000
FE000000
FE000000
FE000000
FE000000
FE000000
FE000000
FE000000
FE000000
FE000000
FE000000
FE000000
FE000000
FE000000
FE000000
FFFFFFF8
FFFFFFF8
FFFFFFF8
FFFFFFF8
FFFFFFF8
FFFFFFF8
00000F80
00003E00
00007C00
0000F800
0001F000
0001F000
0003E000
0003E000
0003E000
0003E000
0003F000
0003F810
0001FFF0
0000FFF0
00007FF0
00001FE0
ENDCHAR
STARTCHAR eogonek
ENCODING -1
SWIDTH 600 0
DWIDTH 43 0
BBX 33 55 5 -15
BITMAP
0007F80000
003FFF0000
00FFFFC000
01FFFFE000
03FFFFF000
07FE1FF800
0FF003FC00
1FC000FE00
1F8000FE00
3F80007F00
3F00007F00
7F00003F00
7E00003F80
7E00003F80
7E00003F80
FE00003F80
FFFFFFFF80
FFFFFFFF80
FFFFFFFF80
FFFFFFFF80
FFFFFFFF80
FE00000000
FE00000000
FE00000000
FE00000000
FE00000000
7E00000000
7E00000000
7F00000000
7F00000000
3F80000000
3F80000000
1FC0000000
1FE0000600
0FF8003E00
07FFFFFE00
03FFFFFE00
01FFFFFE00
007FFFFE00
003FFFF800
0003FFE000
000007C000
00000F8000
00001F0000
00001F0000
00003E0000
00003E0000
00003E0000
00003E0000
00003F0000
00003F8100
00001FFF00
00000FFF00
000007FF00
000001FE00
ENDCHAR
STARTCHAR Ecaron
ENCODING -1
SWIDTH 600 0
DWIDTH 43 0
BBX 29 68 8 0
BITMAP
0F8003E0
0FC007E0
07E00FC0
03F01F80
01F83F00
00FC7E00
007EFC00
007FFC00
003FF800
001FF000
001FF000
000FE000
00000000
00000000
00000000
00000000
00000000
FFFFFFF8
FFFFFFF8
FFFFFFF8
FFFFFFF8
FFFFFFF8
FFFFFFF8
FE000000
FE000000
FE000000
FE000000
FE000000
FE000000
FE000000
FE000000
FE000000
FE000000
FE000000
FE000000
FE000000
FE000000
FE000000
FFFFFFF0
FFFFFFF0
FFFFFFF0
FFFFFFF0
FFFFFFF0
FFFFFFF0
FE000000
FE000000
FE000000
FE000000
FE000000
FE000000
FE000000
FE000000
FE000000
FE000000
FE000000
FE000000
FE000000
FE000000
FE000000
FE000000
FE000000
FE000000
FFFFFFF8
FFFFFFF8
FFFFFFF8
FFFFFFF8
FFFFFFF8
FFFFFFF8
ENDCHAR
STARTCHAR ecaron
ENCODING -1
SWIDTH 600 0
DWIDTH 43 0
BBX 33 57 5 -1
BITMAP
03E000F800
03F001F800
01F803F000
00FC07E000
007E0FC000
003F1F8000
001FBF0000
001FFF0000
000FFE0000
0007FC0000
0007FC0000
0003F80000
0000000000
0000000000
0000000000
0000000000
0007F80000
003FFF0000
00FFFFC000
01FFFFE000
03FFFFF000
07FE1FF800
0FF003FC00
1FC000FE00
1F8000FE00
3F80007F00
3F00007F00
7F00003F00
7E00003F80
7E00003F80
7E00003F80
FE00003F80
FFFFFFFF80
FFFFFFFF80
FFFFFFFF80
FFFFFFFF80
FFFFFFFF80
FE00000000
FE00000000
FE00000000
FE00000000
FE00000000
7E00000000
7E00000000
7F00000000
7F00000000
3F80000000
3F80000000
1FC0000000
1FE0000600
0FF8003E00
07FFFFFE00
03FFFFFE00
01FFFFFE00
007FFFFE00
003FFFF000
0003FF0000
ENDCHAR
STARTCHAR Gcircumflex
ENCODING -1
SWIDTH 600 0
DWIDTH 43 0
BBX 34 69 4 -1
BITMAP
00007F0000
0000FF8000
0000FF8000
0001FFC000
0003FFE000
0003F7E000
0007E3F000
000FC1F800
001F80FC00
003F007E00
007E003F00
007C001F00
0000000000
0000000000
0000000000
0000000000
0000FFC000
0007FFFC00
001FFFFF00
007FFFFF80
00FFFFFF80
01FFFFFF00
03FF003F00
07FC000E00
07F8000200
0FF0000000
1FE0000000
1FC0000000
3FC0000000
3F80000000
3F80000000
7F80000000
7F00000000
7F00000000
7F00000000
FE00000000
FE00000000
FE00000000
FE00000000
FE00000000
FE00000000
FE001FFFC0
FE001FFFC0
FE001FFFC0
FE001FFFC0
FE001FFFC0
FE001FFFC0
FE00001FC0
FE00001FC0
FE00001FC0
7F00001FC0
7F00001FC0
7F00001FC0
7F00001FC0
3F80001FC0
3F80001FC0
3F80001FC0
1FC0001FC0
1FE0001FC0
0FE0001FC0
0FF0001FC0
07FC001FC0
03FF003FC0
03FFFFFFC0
01FFFFFFC0
00FFFFFFC0
003FFFFFC0
000FFFFE00
0001FFC000
ENDCHAR
STARTCHAR gcircumflex
ENCODING -1
SWIDTH 600 0
DWIDTH 43 0
BBX 36 73 4 -17
BITMAP
0003F80000
0007FC0000
0007FC0000
000FFE0000
001FFF0000
001FBF0000
003F1F8000
007E0FC000
00FC07E000
01F803F000
03F001F800
03E000F800
0000000000
0000000000
0000000000
0000000000
0007F80000
003FFFFFF0
00FFFFFFF0
01FFFFFFF0
03FFFFFFF0
07F807FF00
0FE001F800
0FE001FC00
0FC000FC00
1FC000FE00
1F80007E00
1F80007E00
1F80007E00
1F80007E00
1FC0007E00
1FC000FE00
1FC000FE00
0FC000FC00
0FE001FC00
07F003F800
07FF3FF000
03FFFFF000
01FFFFC000
007FFF8000
00FFFC0000
01F8000000
03F0000000
03E0000000
07E0000000
07E0000000
07E0000000
07E0000000
07F8000000
03FFFFE000
03FFFFFC00
01FFFFFF00
00FFFFFF80
07FFFFFF80
1FFFFFFFC0
3F80001FC0
3F00000FE0
7E000007E0
7E000007E0
FC000007E0
FC000007E0
FC000007E0
FC000007E0
FC00000FE0
FE00001FC0
FE00003FC0
7F8000FF80
7FE007FF00
3FFFFFFE00
1FFFFFFC00
0FFFFFF800
03FFFFC000
003FFC0000
ENDCHAR
STARTCHAR Gbreve
ENCODING -1
SWIDTH 600 0
DWIDTH 43 0
BBX 34 67 4 -1
BITMAP
003C001E00
003C001E00
003C003E00
001E007C00
001FC1FC00
001FFFF800
000FFFF800
0007FFF000
0003FFC000
00007F0000
0000000000
0000000000
0000000000
0000000000
0000FFC000
0007FFFC00
001FFFFF00
007FFFFF80
00FFFFFF80
01FFFFFF00
03FF003F00
07FC000E00
07F8000200
0FF0000000
1FE0000000
1FC0000000
3FC0000000
3F80000000
3F80000000
7F80000000
7F00000000
7F00000000
7F00000000
FE00000000
FE00000000
FE00000000
FE00000000
FE00000000
FE00000000
FE001FFFC0
FE001FFFC0
FE001FFFC0
FE001FFFC0
FE001FFFC0
FE001FFFC0
FE00001FC0
FE00001FC0
FE00001FC0
7F00001FC0
7F00001FC0
7F00001FC0
7F00001FC0
3F80001FC0
3F80001FC0
3F80001FC0
1FC0001FC0
1FE0001FC0
0FE0001FC0
0FF0001FC0
07FC001FC0
03FF003FC0
03FFFFFFC0
01FFFFFFC0
00FFFFFFC0
003FFFFFC0
000FFFFE00
0001FFC000
ENDCHAR
STARTCHAR gbreve
ENCODING -1
SWIDTH 600 0
DWIDTH 43 0
BBX 36 71 4 -17
BITMAP
01E000F000
01E000F000
01E001F000
00F003E000
00FE0FE000
00FFFFC000
007FFFC000
003FFF8000
001FFE0000
0003F80000
0000000000
0000000000
0000000000
0000000000
0007F80000
003FFFFFF0
00FFFFFFF0
01FFFFFFF0
03FFFFFFF0
07F807FF00
0FE001F800
0FE001FC00
0FC000FC00
1FC000FE00
1F80007E00
1F80007E00
1F80007E00
1F80007E00
1FC0007E00
1FC000FE00
1FC000FE00
0FC000FC00
0FE001FC00
07F003F800
07FF3FF000
03FFFFF000
01FFFFC000
007FFF8000
00FFFC0000
01F8000000
03F0000000
03E0000000
07E0000000
07E0000000
07E0000000
07E0000000
07F8000000
03FFFFE000
03FFFFFC00
01FFFFFF00
00FFFFFF80
07FFFFFF80
1FFFFFFFC0
3F80001FC0
3F00000FE0
7E000007E0
7E000007E0
FC000007E0
FC000007E0
FC000007E0
FC000007E0
FC00000FE0
FE00001FC0
FE00003FC0
7F8000FF80
7FE007FF00
3FFFFFFE00
1FFFFFFC00
0FFFFFF800
03FFFFC000
003FFC0000
ENDCHAR
STARTCHAR Gdotaccent
ENCODING -1
SWIDTH 600 0
DWIDTH 43 0
BBX 34 65 4 -1
BITMAP
00000F0000
00001F8000
00003F8000
00003F8000
00003F8000
00001F8000
00000F0000
0000000000
0000000000
0000000000
0000000000
0000000000
0000FFC000
0007FFFC00
001FFFFF00
007FFFFF80
00FFFFFF80
01FFFFFF00
03FF003F00
07FC000E00
07F8000200
0FF0000000
1FE0000000
1FC0000000
3FC0000000
3F80000000
3F80000000
7F80000000
7F00000000
7F00000000
7F00000000
FE00000000
FE00000000
FE00000000
FE00000000
FE00000000
FE00000000
FE001FFFC0
FE001FFFC0
FE001FFFC0
FE001FFFC0
FE001FFFC0
FE001FFFC0
FE00001FC0
FE00001FC0
FE00001FC0
7F00001FC0
7F00001FC0
7F00001FC0
7F00001FC0
3F80001FC0
3F80001FC0
3F80001FC0
1FC0001FC0
1FE0001FC0
0FE0001FC0
0FF0001FC0
07FC001FC0
03FF003FC0
03FFFFFFC0
01FFFFFFC0
00FFFFFFC0
003FFFFFC0
000FFFFE00
0001FFC000
ENDCHAR
STARTCHAR gdotaccent
ENCODING -1
SWIDTH 600 0
DWIDTH 43 0
BBX 36 69 4 -17
BITMAP
0000F00000
0001F80000
0003F80000
0003F80000
0003F80000
0001F80000
0000F00000
0000000000
0000000000
0000000000
0000000000
0000000000
0007F80000
003FFFFFF0
00FFFFFFF0
01FFFFFFF0
03FFFFFFF0
07F807FF00
0FE001F800
0FE001FC00
0FC000FC00
1FC000FE00
1F80007E00
1F80007E00
1F80007E00
1F80007E00
1FC0007E00
1FC000FE00
1FC000FE00
0FC000FC00
0FE001FC00
07F003F800
07FF3FF000
03FFFFF000
01FFFFC000
007FFF8000
00FFFC0000
01F8000000
03F0000000
03E0000000
07E0000000
07E0000000
07E0000000
07E0000000
07F8000000
03FFFFE000
03FFFFFC00
01FFFFFF00
00FFFFFF80
07FFFFFF80
1FFFFFFFC0
3F80001FC0
3F00000FE0
7E000007E0
7E000007E0
FC000007E0
FC000007E0
FC000007E0
FC000007E0
FC00000FE0
FE00001FC0
FE00003FC0
7F8000FF80
7FE007FF00
3FFFFFFE00
1FFFFFFC00
0FFFFFF800
03FFFFC000
003FFC0000
ENDCHAR
STARTCHAR uni0122
ENCODING -1
SWIDTH 600 0
DWIDTH 43 0
BBX 34 68 4 -16
BITMAP
0000FFC000
0007FFFC00
001FFFFF00
007FFFFF80
00FFFFFF80
01FFFFFF00
03FF003F00
07FC000E00
07F8000200
0FF0000000
1FE0000000
1FC0000000
3FC0000000
3F80000000
3F80000000
7F80000000
7F00000000
7F00000000
7F00000000
FE00000000
FE00000000
FE00000000
FE00000000
FE00000000
FE00000000
FE001FFFC0
FE001FFFC0
FE001FFFC0
FE001FFFC0
FE001FFFC0
FE001FFFC0
FE00001FC0
FE00001FC0
FE00001FC0
7F00001FC0
7F00001FC0
7F00001FC0
7F00001FC0
3F80001FC0
3F80001FC0
3F80001FC0
1FC0001FC0
1FE0001FC0
0FE0001FC0
0FF0001FC0
07FC001FC0
03FF003FC0
03FFFFFFC0
01FFFFFFC0
00FFFFFFC0
003FFFFFC0
000FFFFE00
0001FFC000
0000000000
0000000000
0000000000
00003F0000
00003F0000
00007E0000
00007E0000
00007E0000
00007C0000
00007C0000
0000F80000
0000F80000
0000F00000
0001F00000
0001E00000
ENDCHAR
STARTCHAR uni0123
ENCODING -1
SWIDTH 600 0
DWIDTH 43 0
BBX 36 73 4 -17
BITMAP
00000F0000
00000F0000
00001E0000
00003E0000
00003E0000
00007E0000
00007C0000
0000FC0000
0000FC0000
0000FC0000
0001F80000
0001F80000
0000000000
0000000000
0000000000
0000000000
0007F80000
003FFFFFF0
00FFFFFFF0
01FFFFFFF0
03FFFFFFF0
07F807FF00
0FE001F800
0FE001FC00
0FC000FC00
1FC000FE00
1F80007E00
1F80007E00
1F80007E00
1F80007E00
1FC0007E00
1FC000FE00
1FC000FE00
0FC000FC00
0FE001FC00
07F003F800
07FF3FF000
03FFFFF000
01FFFFC000
007FFF8000
00FFFC0000
01F8000000
03F0000000
03E0000000
07E0000000
07E0000000
07E0000000
07E0000000
07F8000000
03FFFFE000
03FFFFFC00
01FFFFFF00
00FFFFFF80
07FFFFFF80
1FFFFFFFC0
3F80001FC0
3F00000FE0
7E000007E0
7E000007E0
FC000007E0
FC000007E0
FC000007E0
FC000007E0
FC00000FE0
FE00001FC0
FE00003FC0
7F8000FF80
7FE007FF00
3FFFFFFE00
1FFFFFFC00
0FFFFFF800
03FFFFC000
003FFC0000
ENDCHAR
STARTCHAR Hcircumflex
ENCODING -1
SWIDTH 600 0
DWIDTH 43 0
BBX 33 68 5 0
BITMAP
0007F00000
000FF80000
000FF80000
001FFC0000
003FFE0000
003F7E0000
007E3F0000
00FC1F8000
01F80FC000
03F007E000
07E003F000
07C001F000
0000000000
0000000000
0000000000
0000000000
0000000000
FE00003F80
FE00003F80
FE00003F80
FE00003F80
FE00003F80
FE00003F80
FE00003F80
FE00003F80
FE00003F80
FE00003F80
FE00003F80
FE00003F80
FE00003F80
FE00003F80
FE00003F80
FE00003F80
FE00003F80
FE00003F80
FE00003F80
FE00003F80
FE00003F80
FFFFFFFF80
FFFFFFFF80
FFFFFFFF80
FFFFFFFF80
FFFFFFFF80
FFFFFFFF80
FE00003F80
FE00003F80
FE00003F80
FE00003F80
FE00003F80
FE00003F80
FE00003F80
FE00003F80
FE00003F80
FE00003F80
FE00003F80
FE00003F80
FE00003F80
FE00003F80
FE00003F80
FE00003F80
FE00003F80
FE00003F80
FE00003F80
FE00003F80
FE00003F80
FE00003F80
FE00003F80
FE00003F80
ENDCHAR
STARTCHAR hcircumflex
ENCODING -1
SWIDTH 600 0
DWIDTH 43 0
BBX 31 70 6 0
BITMAP
0007F000
000FF800
000FF800
001FFC00
003FFE00
003F7E00
007E3F00
00FC1F80
01F80FC0
03F007E0
07E003F0
07C001F0
00000000
00000000
00000000
FC000000
FC000000
FC000000
FC000000
FC000000
FC000000
FC000000
FC000000
FC000000
FC000000
FC000000
FC000000
FC000000
FC000000
FC000000
FC03FC00
FC1FFF80
FC7FFFE0
FCFFFFF0
FDFFFFF0
FDFE1FF8
FFF007FC
FFC003FC
FF8001FC
FF8000FE
FF0000FE
FF0000FE
FE0000FE
FE00007E
FE00007E
FE00007E
FE00007E
FC00007E
FC00007E
FC00007E
FC00007E
FC00007E
FC00007E
FC00007E
FC00007E
FC00007E
FC00007E
FC00007E
FC00007E
FC00007E
FC00007E
FC00007E
FC00007E
FC00007E
FC00007E
FC00007E
FC00007E
FC00007E
FC00007E
FC00007E
ENDCHAR
STARTCHAR Hbar
ENCODING -1
SWIDTH 600 0
DWIDTH 43 0
BBX 43 51 0 0
BITMAP
07F00001FC00
07F00001FC00
07F00001FC00
07F00001FC00
07F00001FC00
07F00001FC00
07F00001FC00
07F00001FC00
FFFFFFFFFFE0
FFFFFFFFFFE0
FFFFFFFFFFE0
FFFFFFFFFFE0
FFFFFFFFFFE0
FFFFFFFFFFE0
07F00001FC00
07F00001FC00
07F00001FC00
07F00001FC00
07F00001FC00
07F00001FC00
07F00001FC00
07FFFFFFFC00
07FFFFFFFC00
07FFFFFFFC00
07FFFFFFFC00
07FFFFFFFC00
07FFFFFFFC00
07F00001FC00
07F00001FC00
07F00001FC00
07F00001FC00
07F00001FC00
07F00001FC00
07F00001FC00
07F00001FC00
07F00001FC00
07F00001FC00
07F00001FC00
07F00001FC00
07F00001FC00
07F00001FC00
07F00001FC00
07F00001FC00
07F00001FC00
07F00001FC00
07F00001FC00
07F00001FC00
07F00001FC00
07F00001FC00
07F00001FC00
07F00001FC00
ENDCHAR
STARTCHAR hbar
ENCODING -1
SWIDTH 600 0
DWIDTH 43 0
BBX 36 55 1 0
BITMAP
07E0000000
07E0000000
07E0000000
07E0000000
07E0000000
07E0000000
FFFFFFC000
FFFFFFC000
FFFFFFC000
FFFFFFC000
FFFFFFC000
07E0000000
07E0000000
07E0000000
07E0000000
07E0000000
07E0000000
07E01FF000
07E0FFFC00
07E3FFFF00
07E7FFFF80
07EFFFFFC0
07EFE0FFC0
07FF003FE0
07FE000FE0
07FC000FE0
07F80007F0
07F80007F0
07F00007F0
07F00007F0
07F00003F0
07F00003F0
07F00003F0
07E00003F0
07E00003F0
07E00003F0
07E00003F0
07E00003F0
07E00003F0
07E00003F0
07E00003F0
07E00003F0
07E00003F0
07E00003F0
07E00003F0
07E00003F0
07E00003F0
07E00003F0
07E00003F0
07E00003F0
07E00003F0
07E00003F0
07E00003F0
07E00003F0
07E00003F0
ENDCHAR
STARTCHAR Itilde
ENCODING -1
SWIDTH 600 0
DWIDTH 43 0
BBX 27 66 8 0
BITMAP
03C003C0
0FF803C0
1FFC03C0
1FFF0780
3FFFCF80
3E7FFF80
3C1FFF00
7807FF00
7801FE00
78007800
00000000
00000000
00000000
00000000
00000000
FFFFFFE0
FFFFFFE0
FFFFFFE0
FFFFFFE0
3FFFFF00
003F8000
003F8000
003F8000
003F8000
003F8000
003F8000
003F8000
003F8000
003F8000
003F8000
003F8000
003F8000
003F8000
003F8000
003F8000
003F8000
003F8000
003F8000
003F8000
003F8000
003F8000
003F8000
003F8000
003F8000
003F8000
003F8000
003F8000
003F8000
003F8000
003F8000
003F8000
003F8000
003F8000
003F8000
003F8000
003F8000
003F8000
003F8000
003F8000
003F8000
003F8000
3FFFFF80
FFFFFFE0
FFFFFFE0
FFFFFFE0
FFFFFFE0
ENDCHAR
STARTCHAR itilde
ENCODING -1
SWIDTH 600 0
DWIDTH 43 0
BBX 31 54 7 0
BITMAP
01E001E0
07FC01E0
0FFE01E0
0FFF83C0
1FFFE7C0
1F3FFFC0
1E0FFF80
3C03FF80
3C00FF00
3C003C00
00000000
00000000
00000000
00000000
00000000
1FFFC000
1FFFC000
1FFFC000
1FFFC000
07FFC000
000FC000
000FC000
000FC000
000FC000
000FC000
000FC000
000FC000
000FC000
000FC000
000FC000
000FC000
000FC000
000FC000
000FC000
000FC000
000FC000
000FC000
000FC000
000FC000
000FC000
000FC000
000FC000
000FC000
000FC000
000FC000
000FC000
000FC000
000FC000
000FC000
1FFFFFF0
FFFFFFFE
FFFFFFFE
FFFFFFFE
FFFFFFFE
ENDCHAR
STARTCHAR Imacron
ENCODING -1
SWIDTH 600 0
DWIDTH 43 0
BBX 27 61 8 0
BITMAP
0FFFFF00
0FFFFF00
0FFFFF00
0FFFFF00
0FFFFF00
00000000
00000000
00000000
00000000
00000000
FFFFFFE0
FFFFFFE0
FFFFFFE0
FFFFFFE0
3FFFFF00
003F8000
003F8000
003F8000
003F8000
003F8000
003F8000
003F8000
003F8000
003F8000
003F8000
003F8000
003F8000
003F8000
003F8000
003F8000
003F8000
003F8000
003F8000
003F8000
003F8000
003F8000
003F8000
003F8000
003F8000
003F8000
003F8000
003F8000
003F8000
003F8000
003F8000
003F8000
003F8000
003F8000
003F8000
003F8000
003F8000
003F8000
003F8000
003F8000
003F8000
003F8000
3FFFFF80
FFFFFFE0
FFFFFFE0
FFFFFFE0
FFFFFFE0
ENDCHAR
STARTCHAR imacron
ENCODING -1
SWIDTH 600 0
DWIDTH 43 0
BBX 31 49 7 0
BITMAP
07FFFF80
07FFFF80
07FFFF80
07FFFF80
07FFFF80
00000000
00000000
00000000
00000000
00000000
1FFFC000
1FFFC000
1FFFC000
1FFFC000
07FFC000
000FC000
000FC000
000FC000
000FC000
000FC000
000FC000
000FC000
000FC000
000FC000
000FC000
000FC000
000FC000
000FC000
000FC000
000FC000
000FC000
000FC000
000FC000
000FC000
000FC000
000FC000
000FC000
000FC000
000FC000
000FC000
000FC000
000FC000
000FC000
000FC000
1FFFFFF0
FFFFFFFE
FFFFFFFE
FFFFFFFE
FFFFFFFE
ENDCHAR
STARTCHAR Ibreve
ENCODING -1
SWIDTH 600 0
DWIDTH 43 0
BBX 27 66 8 0
BITMAP
1E000F00
1E000F00
1E001F00
0F003E00
0FE0FE00
0FFFFC00
07FFFC00
03FFF800
01FFE000
003F8000
00000000
00000000
00000000
00000000
00000000
FFFFFFE0
FFFFFFE0
FFFFFFE0
FFFFFFE0
3FFFFF00
003F8000
003F8000
003F8000
003F8000
003F8000
003F8000
003F8000
003F8000
003F8000
003F8000
003F8000
003F8000
003F8000
003F8000
003F8000
003F8000
003F8000
003F8000
003F8000
003F8000
003F8000
003F8000
003F8000
003F8000
003F8000
003F8000
003F8000
003F8000
003F8000
003F8000
003F8000
003F8000
003F8000
003F8000
003F8000
003F8000
003F8000
003F8000
003F8000
003F8000
003F8000
3FFFFF80
FFFFFFE0
FFFFFFE0
FFFFFFE0
FFFFFFE0
ENDCHAR
STARTCHAR ibreve
ENCODING -1
SWIDTH 600 0
DWIDTH 43 0
BBX 31 54 7 0
BITMAP
03C001E0
03C001E0
03C003E0
01E007C0
01FC1FC0
01FFFF80
00FFFF80
007FFF00
003FFC00
0007F000
00000000
00000000
00000000
00000000
00000000
1FFFC000
1FFFC000
1FFFC000
1FFFC000
07FFC000
000FC000
000FC000
000FC000
000FC000
000FC000
000FC000
000FC000
000FC000
000FC000
000FC000
000FC000
000FC000
000FC000
000FC000
000FC000
000FC000
000FC000
000FC000
000FC000
000FC000
000FC000
000FC000
000FC000
000FC000
000FC000
000FC000
000FC000
000FC000
000FC000
1FFFFFF0
FFFFFFFE
FFFFFFFE
FFFFFFFE
FFFFFFFE
ENDCHAR
STARTCHAR Iogonek
ENCODING -1
SWIDTH 600 0
DWIDTH 43 0
BBX 27 67 8 -16
BITMAP
FFFFFFE0
FFFFFFE0
FFFFFFE0
FFFFFFE0
3FFFFF00
003F8000
003F8000
003F8000
003F8000
003F8000
003F8000
003F8000
003F8000
003F8000
003F8000
003F8000
003F8000
003F8000
003F8000
003F8000
003F8000
003F8000
003F8000
003F8000
003F8000
003F8000
003F8000
003F8000
003F8000
003F8000
003F8000
003F8000
003F8000
003F8000
003F8000
003F8000
003F8000
003F8000
003F8000
003F8000
003F8000
003F8000
003F8000
003F8000
003F8000
003F8000
3FFFFF80
FFFFFFE0
FFFFFFE0
FFFFFFE0
FFFFFFE0
0007C000
001F0000
003E0000
007C0000
00F80000
00F80000
01F00000
01F00000
01F00000
01F00000
01F80000
01FC0800
00FFF800
007FF800
003FF800
000FF000
ENDCHAR
STARTCHAR iogonek
ENCODING -1
SWIDTH 600 0
DWIDTH 43 0
BBX 31 71 7 -16
BITMAP
00078000
000FC000
000FE000
001FE000
001FE000
000FE000
000FC000
00078000
00000000
00000000
00000000
00000000
00000000
00000000
00000000
00000000
1FFFC000
1FFFC000
1FFFC000
1FFFC000
07FFC000
000FC000
000FC000
000FC000
000FC000
000FC000
000FC000
000FC000
000FC000
000FC000
000FC000
000FC000
000FC000
000FC000
000FC000
000FC000
000FC000
000FC000
000FC000
000FC000
000FC000
000FC000
000FC000
000FC000
000FC000
000FC000
000FC000
000FC000
000FC000
000FC000
1FFFFFF0
FFFFFFFE
FFFFFFFE
FFFFFFFE
FFFFFFFE
0001F000
0007C000
000F8000
001F0000
003E0000
003E0000
007C0000
007C0000
007C0000
007C0000
007E0000
007F0200
003FFE00
001FFE00
000FFE00
0003FC00
ENDCHAR
STARTCHAR Idotaccent
ENCODING -1
SWIDTH 600 0
DWIDTH 43 0
BBX 27 64 8 0
BITMAP
000F0000
001F8000
003F8000
003F8000
003F8000
001F8000
000F0000
00000000
00000000
00000000
00000000
00000000
00000000
FFFFFFE0
FFFFFFE0
FFFFFFE0
FFFFFFE0
3FFFFF00
003F8000
003F8000
003F8000
003F8000
003F8000
003F8000
003F8000
003F8000
003F8000
003F8000
003F8000
003F8000
003F8000
003F8000
003F8000
003F8000
003F8000
003F8000
003F8000
003F8000
003F8000
003F8000
003F8000
003F8000
003F8000
003F8000
003F8000
003F8000
003F8000
003F8000
003F8000
003F8000
003F8000
003F8000
003F8000
003F8000
003F8000
003F8000
003F8000
003F8000
003F8000
3FFFFF80
FFFFFFE0
FFFFFFE0
FFFFFFE0
FFFFFFE0
ENDCHAR
STARTCHAR dotlessi
ENCODING -1
SWIDTH 600 0
DWIDTH 43 0
BBX 31 39 7 0
BITMAP
1FFFC000
1FFFC000
1FFFC000
1FFFC000
07FFC000
000FC000
000FC000
000FC000
000FC000
000FC000
000FC000
000FC000
000FC000
000FC000
000FC000
000FC000
000FC000
000FC000
000FC000
000FC000
000FC000
000FC000
000FC000
000FC000
000FC000
000FC000
000FC000
000FC000
000FC000
000FC000
000FC000
000FC000
000FC000
000FC000
1FFFFFF0
FFFFFFFE
FFFFFFFE
FFFFFFFE
FFFFFFFE
ENDCHAR
STARTCHAR IJ
ENCODING -1
SWIDTH 600 0
DWIDTH 43 0
BBX 32 52 5 -1
BITMAP
FE00007F
FE00007F
FE00007F
FE00007F
FE00007F
FE00007F
FE00007F
FE00007F
FE00007F
FE00007F
FE00007F
FE00007F
FE00007F
FE00007F
FE00007F
FE00007F
FE00007F
FE00007F
FE00007F
FE00007F
FE00007F
FE00007F
FE00007F
FE00007F
FE00007F
FE00007F
FE00007F
FE00007F
FE00007F
FE00007F
FE00007F
FE00007F
FE00007F
FE00007F
FE00007F
FE00007F
FE00007F
FE00007F
FE00007F
FE00007F
FE00007F
FE00007F
FE0000FE
FE0000FE
FE0001FE
FE0C03FC
FE0FFFFC
FE0FFFF8
FE0FFFF0
FE0FFFE0
FE0FFFC0
0001FE00
ENDCHAR
STARTCHAR ij
ENCODING -1
SWIDTH 600 0
DWIDTH 43 0
BBX 30 72 6 -17
BITMAP
3C0000F0
7E0001F8
7F0001FC
FF0003FC
FF0003FC
7F0001FC
7E0001F8
3C0000F0
00000000
00000000
00000000
00000000
00000000
00000000
00000000
00000000
7E00FFFC
7E00FFFC
7E00FFFC
7E00FFFC
7E003FFC
7E0000FC
7E0000FC
7E0000FC
7E0000FC
7E0000FC
7E0000FC
7E0000FC
7E0000FC
7E0000FC
7E0000FC
7E0000FC
7E0000FC
7E0000FC
7E0000FC
7E0000FC
7E0000FC
7E0000FC
7E0000FC
7E0000FC
7E0000FC
7E0000FC
7E0000FC
7E0000FC
7E0000FC
7E0000FC
7E0000FC
7E0000FC
7E0000FC
7E0000FC
7E0000FC
7E0000FC
7E0000FC
7E0000FC
7E0000FC
000000FC
000000FC
000000FC
000000FC
000000FC
000000FC
000001FC
000001FC
000001FC
000003F8
000003F8
000F1FF0
000FFFF0
000FFFE0
000FFFC0
000FFF80
0003FE00
ENDCHAR
STARTCHAR Jcircumflex
ENCODING -1
SWIDTH 600 0
DWIDTH 43 0
BBX 37 69 5 -1
BITMAP
000003F800
000007FC00
000007FC00
00000FFE00
00001FFF00
00001FBF00
00003F1F80
00007E0FC0
0000FC07E0
0001F803F0
0003F001F8
0003E000F8
0000000000
0000000000
0000000000
0000000000
0000000000
000003F800
000003F800
000003F800
000003F800
000003F800
000003F800
000003F800
000003F800
000003F800
000003F800
000003F800
000003F800
000003F800
000003F800
000003F800
000003F800
000003F800
000003F800
000003F800
000003F800
000003F800
000003F800
000003F800
000003F800
000003F800
000003F800
000003F800
000003F800
000003F800
000003F800
000003F800
000003F800
000003F800
000003F800
000003F800
000003F800
000003F800
000003F800
000003F800
000003F800
000007F000
000007F000
00000FF000
00001FE000
80003FE000
F800FFC000
FFFFFF8000
FFFFFF0000
FFFFFE0000
FFFFFC0000
7FFFE00000
07FF000000
ENDCHAR
STARTCHAR jcircumflex
ENCODING -1
SWIDTH 600 0
DWIDTH 43 0
BBX 29 73 5 -17
BITMAP
0003F800
0007FC00
0007FC00
000FFE00
001FFF00
001FBF00
003F1F80
007E0FC0
00FC07E0
01F803F0
03F001F8
03E000F8
00000000
00000000
00000000
00000000
00000000
0FFFFF80
0FFFFF80
0FFFFF80
0FFFFF80
00FFFF80
00001F80
00001F80
00001F80
00001F80
00001F80
00001F80
00001F80
00001F80
00001F80
00001F80
00001F80
00001F80
00001F80
00001F80
00001F80
00001F80
00001F80
00001F80
00001F80
00001F80
00001F80
00001F80
00001F80
00001F80
00001F80
00001F80
00001F80
00001F80
00001F80
00001F80
00001F80
00001F80
00001F80
00001F80
00001F80
00001F80
00001F80
00001F80
00001F80
00003F80
00003F80
00003F80
00007F00
00007F00
8001FE00
FE0FFE00
FFFFFC00
FFFFF800
FFFFF000
FFFFC000
1FFE0000
ENDCHAR
STARTCHAR uni0136
ENCODING -1
SWIDTH 600 0
DWIDTH 43 0
BBX 35 67 7 -16
BITMAP
FE00001FE0
FE00003FC0
FE00007F80
FE00007F00
FE0000FE00
FE0001FC00
FE0003FC00
FE0007F800
FE000FF000
FE000FE000
FE001FC000
FE003F8000
FE007F0000
FE00FF0000
FE01FE0000
FE03FC0000
FE03F80000
FE07F00000
FE0FE00000
FE1FC00000
FE3F800000
FE3F800000
FE7F000000
FEFF800000
FFFF800000
FFFFC00000
FFFFE00000
FFEFE00000
FF87F00000
FF07F80000
FE03FC0000
FE01FC0000
FE01FE0000
FE00FF0000
FE007F0000
FE007F8000
FE003FC000
FE001FC000
FE001FE000
FE000FF000
FE0007F000
FE0007F800
FE0003FC00
FE0001FC00
FE0001FE00
FE0000FF00
FE00007F00
FE00007F80
FE00003FC0
FE00001FC0
FE00001FE0
0000000000
0000000000
0000000000
0000000000
0003F00000
0003F00000
0007E00000
0007E00000
0007E00000
0007C00000
0007C00000
000F800000
000F800000
000F000000
001F000000
001E000000
ENDCHAR
STARTCHAR uni0137
ENCODING -1
SWIDTH 600 0
DWIDTH 43 0
BBX 33 71 8 -16
BITMAP
FC00000000
FC00000000
FC00000000
FC00000000
FC00000000
FC00000000
FC00000000
FC00000000
FC00000000
FC00000000
FC00000000
FC00000000
FC00000000
FC00000000
FC00000000
FC00000000
FC0000FF00
FC0001FE00
FC0003F800
FC0007F000
FC000FE000
FC001FC000
FC003F8000
FC007F0000
FC00FE0000
FC01FC0000
FC03F80000
FC07F00000
FC0FE00000
FC1FC00000
FC3F800000
FC7F000000
FCFE000000
FCFE000000
FDFF000000
FFFF800000
FFFFC00000
FFDFE00000
FF8FE00000
FE07F00000
FC03F80000
FC03FC0000
FC01FE0000
FC00FF0000
FC007F0000
FC003F8000
FC001FC000
FC001FE000
FC000FF000
FC0007F000
FC0003F800
FC0001FC00
FC0001FE00
FC0000FF00
FC00007F80
0000000000
0000000000
0000000000
0000000000
0007E00000
0007E00000
000FC00000
000FC00000
000FC00000
000F800000
000F800000
001F000000
001F000000
001E000000
003E000000
003C000000
ENDCHAR
STARTCHAR kgreenlandic
ENCODING -1
SWIDTH 600 0
DWIDTH 43 0
BBX 33 39 8 0
BITMAP
FC0000FF00
FC0001FE00
FC0003FC00
FC0007F800
FC000FF000
FC001FE000
FC003FC000
FC003F8000
FC007F0000
FC00FE0000
FC01FC0000
FC03F80000
FC07F00000
FC0FE00000
FC1FC00000
FC3F800000
FC7F000000
FC7E000000
FCFE000000
FDFF000000
FFFF800000
FFFFC00000
FFFFE00000
FF8FF00000
FE07F00000
FC03F80000
FC03FC0000
FC01FE0000
FC00FF0000
FC007F8000
FC003FC000
FC001FC000
FC000FE000
FC0007F000
FC0003F800
FC0003FC00
FC0001FE00
FC0000FF00
FC00007F80
ENDCHAR
STARTCHAR Lacute
ENCODING -1
SWIDTH 600 0
DWIDTH 43 0
BBX 29 68 8 0
BITMAP
01FE0000
01FE0000
03FC0000
03F80000
07F00000
0FF00000
0FE00000
1FC00000
1F800000
3F000000
7E000000
7C000000
00000000
00000000
00000000
00000000
00000000
FE000000
FE000000
FE000000
FE000000
FE000000
FE000000
FE000000
FE000000
FE000000
FE000000
FE000000
FE000000
FE000000
FE000000
FE000000
FE000000
FE000000
FE000000
FE000000
FE000000
FE000000
FE000000
FE000000
FE000000
FE000000
FE000000
FE000000
FE000000
FE000000
FE000000
FE000000
FE000000
FE000000
FE000000
FE000000
FE000000
FE000000
FE000000
FE000000
FE000000
FE000000
FE000000
FE000000
FE000000
FE000000
FFFFFFF8
FFFFFFF8
FFFFFFF8
FFFFFFF8
FFFFFFF8
FFFFFFF8
ENDCHAR
STARTCHAR lacute
ENCODING -1
SWIDTH 600 0
DWIDTH 43 0
BBX 31 70 7 0
BITMAP
00007F80
00007F80
0000FF00
0000FE00
0001FC00
0003FC00
0003F800
0007F000
0007E000
000FC000
001F8000
001F0000
00000000
00000000
00000000
1FFFC000
1FFFC000
1FFFC000
1FFFC000
07FFC000
000FC000
000FC000
000FC000
000FC000
000FC000
000FC000
000FC000
000FC000
000FC000
000FC000
000FC000
000FC000
000FC000
000FC000
000FC000
000FC000
000FC000
000FC000
000FC000
000FC000
000FC000
000FC000
000FC000
000FC000
000FC000
000FC000
000FC000
000FC000
000FC000
000FC000
000FC000
000FC000
000FC000
000FC000
000FC000
000FC000
000FC000
000FC000
000FC000
000FC000
000FC000
000FC000
000FC000
000FC000
000FC000
1FFFFFF0
FFFFFFFE
FFFFFFFE
FFFFFFFE
FFFFFFFE
ENDCHAR
STARTCHAR uni013B
ENCODING -1
SWIDTH 600 0
DWIDTH 43 0
BBX 29 67 8 -16
BITMAP
FE000000
FE000000
FE000000
FE000000
FE000000
FE000000
FE000000
FE000000
FE000000
FE000000
FE000000
FE000000
FE000000
FE000000
FE000000
FE000000
FE000000
FE000000
FE000000
FE000000
FE000000
FE000000
FE000000
FE000000
FE000000
FE000000
FE000000
FE000000
FE000000
FE000000
FE000000
FE000000
FE000000
FE000000
FE000000
FE000000
FE000000
FE000000
FE000000
FE000000
FE000000
FE000000
FE000000
FE000000
FE000000
FFFFFFF8
FFFFFFF8
FFFFFFF8
FFFFFFF8
FFFFFFF8
FFFFFFF8
00000000
00000000
00000000
00000000
000FC000
000FC000
001F8000
001F8000
001F8000
001F0000
001F0000
003E0000
003E0000
003C0000
007C0000
00780000
ENDCHAR
STARTCHAR uni013C
ENCODING -1
SWIDTH 600 0
DWIDTH 43 0
BBX 31 71 7 -16
BITMAP
1FFFC000
1FFFC000
1FFFC000
1FFFC000
07FFC000
000FC000
000FC000
000FC000
000FC000
000FC000
000FC000
000FC000
000FC000
000FC000
000FC000
000FC000
000FC000
000FC000
000FC000
000FC000
000FC000
000FC000
000FC000
000FC000
000FC000
000FC000
000FC000
000FC000
000FC000
000FC000
000FC000
000FC000
000FC000
000FC000
000FC000
000FC000
000FC000
000FC000
000FC000
000FC000
000FC000
000FC000
000FC000
000FC000
000FC000
000FC000
000FC000
000FC000
000FC000
000FC000
1FFFFFF0
FFFFFFFE
FFFFFFFE
FFFFFFFE
FFFFFFFE
00000000
00000000
00000000
00000000
0007E000
0007E000
000FC000
000FC000
000FC000
000F8000
000F8000
001F0000
001F0000
001E0000
003E0000
003C0000
ENDCHAR
STARTCHAR Lcaron
ENCODING -1
SWIDTH 600 0
DWIDTH 43 0
BBX 29 52 8 0
BITMAP
000007E0
FE0007E0
FE0007C0
FE0007C0
FE000FC0
FE000F80
FE000F80
FE000F80
FE000F00
FE001F00
FE001E00
FE001C00
FE000000
FE000000
FE000000
FE000000
FE000000
FE000000
FE000000
FE000000
FE000000
FE000000
FE000000
FE000000
FE000000
FE000000
FE000000
FE000000
FE000000
FE000000
FE000000
FE000000
FE000000
FE000000
FE000000
FE000000
FE000000
FE000000
FE000000
FE000000
FE000000
FE000000
FE000000
FE000000
FE000000
FE000000
FFFFFFF8
FFFFFFF8
FFFFFFF8
FFFFFFF8
FFFFFFF8
FFFFFFF8
ENDCHAR
STARTCHAR lcaron
ENCODING -1
SWIDTH 600 0
DWIDTH 43 0
BBX 32 55 7 0
BITMAP
1FFFC03F
1FFFC03F
1FFFC03E
1FFFC03E
07FFC07E
000FC07C
000FC07C
000FC07C
000FC078
000FC0F8
000FC0F0
000FC0E0
000FC000
000FC000
000FC000
000FC000
000FC000
000FC000
000FC000
000FC000
000FC000
000FC000
000FC000
000FC000
000FC000
000FC000
000FC000
000FC000
000FC000
000FC000
000FC000
000FC000
000FC000
000FC000
000FC000
000FC000
000FC000
000FC000
000FC000
000FC000
000FC000
000FC000
000FC000
000FC000
000FC000
000FC000
000FC000
000FC000
000FC000
000FC000
1FFFFFF0
FFFFFFFE
FFFFFFFE
FFFFFFFE
FFFFFFFE
ENDCHAR
STARTCHAR Ldot
ENCODING -1
SWIDTH 600 0
DWIDTH 43 0
BBX 29 51 8 0
BITMAP
FE000000
FE000000
FE000000
FE000000
FE000000
FE000000
FE000000
FE000000
FE000000
FE000000
FE000000
FE000000
FE000000
FE000000
FE000000
FE000000
FE000000
FE000000
FE000000
FE000000
FE000000
FE000F00
FE001F80
FE003F80
FE003F80
FE003F80
FE001F80
FE000F00
FE000000
FE000000
FE000000
FE000000
FE000000
FE000000
FE000000
FE000000
FE000000
FE000000
FE000000
FE000000
FE000000
FE000000
FE000000
FE000000
FE000000
FFFFFFF8
FFFFFFF8
FFFFFFF8
FFFFFFF8
FFFFFFF8
FFFFFFF8
ENDCHAR
STARTCHAR ldot
ENCODING -1
SWIDTH 600 0
DWIDTH 43 0
BBX 31 55 7 0
BITMAP
1FFFC000
1FFFC000
1FFFC000
1FFFC000
07FFC000
000FC000
000FC000
000FC000
000FC000
000FC000
000FC000
000FC000
000FC000
000FC000
000FC000
000FC000
000FC000
000FC000
000FC000
000FC000
000FC000
000FC000
000FC000
000FC000
000FC000
000FC000
000FC000
000FC000
000FC03C
000FC07E
000FC0FE
000FC0FE
000FC0FE
000FC07E
000FC03C
000FC000
000FC000
000FC000
000FC000
000FC000
000FC000
000FC000
000FC000
000FC000
000FC000
000FC000
000FC000
000FC000
000FC000
000FC000
1FFFFFF0
FFFFFFFE
FFFFFFFE
FFFFFFFE
FFFFFFFE
ENDCHAR
STARTCHAR Lslash
ENCODING -1
SWIDTH 600 0
DWIDTH 43 0
BBX 35 51 3 0
BITMAP
01FC000000
01FC000000
01FC000000
01FC000000
01FC000000
01FC000000
01FC000000
01FC000000
01FC000000
01FC000000
01FC000000
01FC000000
01FC000000
01FC000000
01FC000000
01FC000000
01FC000000
01FC010000
01FC070000
01FC0F8000
01FC3F8000
01FC7FC000
01FDFF0000
01FFFE0000
01FFF80000
01FFF00000
01FFC00000
01FF800000
03FE000000
07FC000000
1FFC000000
7FFC000000
FFFC000000
7FFC000000
7DFC000000
39FC000000
21FC000000
01FC000000
01FC000000
01FC000000
01FC000000
01FC000000
01FC000000
01FC000000
01FC000000
01FFFFFFE0
01FFFFFFE0
01FFFFFFE0
01FFFFFFE0
01FFFFFFE0
01FFFFFFE0
ENDCHAR
STARTCHAR lslash
ENCODING -1
SWIDTH 600 0
DWIDTH 43 0
BBX 31 55 7 0
BITMAP
1FFFC000
1FFFC000
1FFFC000
1FFFC000
07FFC000
000FC000
000FC000
000FC000
000FC000
000FC000
000FC000
000FC000
000FC000
000FC000
000FC000
000FC000
000FC000
000FC000
000FC000
000FC000
000FC180
000FC380
000FCFC0
000FDFE0
000FFFE0
000FFF80
000FFE00
000FFC00
001FF000
007FE000
00FFC000
03FFC000
0FFFC000
0FFFC000
07EFC000
038FC000
030FC000
000FC000
000FC000
000FC000
000FC000
000FC000
000FC000
000FC000
000FC000
000FC000
000FC000
000FC000
000FC000
000FC000
1FFFFFF0
FFFFFFFE
FFFFFFFE
FFFFFFFE
FFFFFFFE
ENDCHAR
STARTCHAR Nacute
ENCODING -1
SWIDTH 600 0
DWIDTH 43 0
BBX 33 68 5 0
BITMAP
00001FE000
00001FE000
00003FC000
00003F8000
00007F0000
0000FF0000
0000FE0000
0001FC0000
0001F80000
0003F00000
0007E00000
0007C00000
0000000000
0000000000
0000000000
0000000000
0000000000
FF00001F80
FF00001F80
FF80001F80
FF80001F80
FFC0001F80
FFC0001F80
FFE0001F80
FFE0001F80
FFE0001F80
FBF0001F80
FBF0001F80
FDF8001F80
FDF8001F80
FCFC001F80
FCFC001F80
FC7E001F80
FC7E001F80
FC3F001F80
FC3F001F80
FC1F801F80
FC1F801F80
FC0FC01F80
FC0FC01F80
FC07E01F80
FC07E01F80
FC03F01F80
FC03F01F80
FC03F01F80
FC01F81F80
FC01F81F80
FC00FC1F80
FC00FC1F80
FC007E1F80
FC007E1F80
FC003F1F80
FC003F1F80
FC001F9F80
FC001F9F80
FC000FDF80
FC000FDF80
FC0007FF80
FC0007FF80
FC0007FF80
FC0003FF80
FC0003FF80
FC0001FF80
FC0001FF80
FC0000FF80
FC0000FF80
FC00007F80
FC00007F80
ENDCHAR
STARTCHAR nacute
ENCODING -1
SWIDTH 600 0
DWIDTH 43 0
BBX 31 56 6 0
BITMAP
00001FE0
00001FE0
00003FC0
00003F80
00007F00
0000FF00
0000FE00
0001FC00
0001F800
0003F000
0007E000
0007C000
00000000
00000000
00000000
00000000
0003FC00
F81FFF80
F87FFFE0
FCFFFFF0
FDFFFFF0
FDFE1FF8
FFF007FC
FFC003FC
FF8001FC
FF8000FE
FF0000FE
FF0000FE
FE0000FE
FE00007E
FE00007E
FE00007E
FE00007E
FC00007E
FC00007E
FC00007E
FC00007E
FC00007E
FC00007E
FC00007E
FC00007E
FC00007E
FC00007E
FC00007E
FC00007E
FC00007E
FC00007E
FC00007E
FC00007E
FC00007E
FC00007E
FC00007E
FC00007E
FC00007E
FC00007E
FC00007E
ENDCHAR
STARTCHAR uni0145
ENCODING -1
SWIDTH 600 0
DWIDTH 43 0
BBX 33 67 5 -16
BITMAP
FF00001F80
FF00001F80
FF80001F80
FF80001F80
FFC0001F80
FFC0001F80
FFE0001F80
FFE0001F80
FFE0001F80
FBF0001F80
FBF0001F80
FDF8001F80
FDF8001F80
FCFC001F80
FCFC001F80
FC7E001F80
FC7E001F80
FC3F001F80
FC3F001F80
FC1F801F80
FC1F801F80
FC0FC01F80
FC0FC01F80
FC07E01F80
FC07E01F80
FC03F01F80
FC03F01F80
FC03F01F80
FC01F81F80
FC01F81F80
FC00FC1F80
FC00FC1F80
FC007E1F80
FC007E1F80
FC003F1F80
FC003F1F80
FC001F9F80
FC001F9F80
FC000FDF80
FC000FDF80
FC0007FF80
FC0007FF80
FC0007FF80
FC0003FF80
FC0003FF80
FC0001FF80
FC0001FF80
FC0000FF80
FC0000FF80
FC00007F80
FC00007F80
0000000000
0000000000
0000000000
0000000000
0003F00000
0003F00000
0007E00000
0007E00000
0007E00000
0007C00000
0007C00000
000F800000
000F800000
000F000000
001F000000
001E000000
ENDCHAR
STARTCHAR uni0146
ENCODING -1
SWIDTH 600 0
DWIDTH 43 0
BBX 31 56 6 -16
BITMAP
0003FC00
F81FFF80
F87FFFE0
FCFFFFF0
FDFFFFF0
FDFE1FF8
FFF007FC
FFC003FC
FF8001FC
FF8000FE
FF0000FE
FF0000FE
FE0000FE
FE00007E
FE00007E
FE00007E
FE00007E
FC00007E
FC00007E
FC00007E
FC00007E
FC00007E
FC00007E
FC00007E
FC00007E
FC00007E
FC00007E
FC00007E
FC00007E
FC00007E
FC00007E
FC00007E
FC00007E
FC00007E
FC00007E
FC00007E
FC00007E
FC00007E
FC00007E
FC00007E
00000000
00000000
00000000
00000000
0007E000
0007E000
000FC000
000FC000
000FC000
000F8000
000F8000
001F0000
001F0000
001E0000
003E0000
003C0000
ENDCHAR
STARTCHAR Ncaron
ENCODING -1
SWIDTH 600 0
DWIDTH 43 0
BBX 33 68 5 0
BITMAP
07C001F000
07E003F000
03F007E000
01F80FC000
00FC1F8000
007E3F0000
003F7E0000
003FFE0000
001FFC0000
000FF80000
000FF80000
0007F00000
0000000000
0000000000
0000000000
0000000000
0000000000
FF00001F80
FF00001F80
FF80001F80
FF80001F80
FFC0001F80
FFC0001F80
FFE0001F80
FFE0001F80
FFE0001F80
FBF0001F80
FBF0001F80
FDF8001F80
FDF8001F80
FCFC001F80
FCFC001F80
FC7E001F80
FC7E001F80
FC3F001F80
FC3F001F80
FC1F801F80
FC1F801F80
FC0FC01F80
FC0FC01F80
FC07E01F80
FC07E01F80
FC03F01F80
FC03F01F80
FC03F01F80
FC01F81F80
FC01F81F80
FC00FC1F80
FC00FC1F80
FC007E1F80
FC007E1F80
FC003F1F80
FC003F1F80
FC001F9F80
FC001F9F80
FC000FDF80
FC000FDF80
FC0007FF80
FC0007FF80
FC0007FF80
FC0003FF80
FC0003FF80
FC0001FF80
FC0001FF80
FC0000FF80
FC0000FF80
FC00007F80
FC00007F80
ENDCHAR
STARTCHAR ncaron
ENCODING -1
SWIDTH 600 0
DWIDTH 43 0
BBX 31 56 6 0
BITMAP
07C001F0
07E003F0
03F007E0
01F80FC0
00FC1F80
007E3F00
003F7E00
003FFE00
001FFC00
000FF800
000FF800
0007F000
00000000
00000000
00000000
00000000
0003FC00
F81FFF80
F87FFFE0
FCFFFFF0
FDFFFFF0
FDFE1FF8
FFF007FC
FFC003FC
FF8001FC
FF8000FE
FF0000FE
FF0000FE
FE0000FE
FE00007E
FE00007E
FE00007E
FE00007E
FC00007E
FC00007E
FC00007E
FC00007E
FC00007E
FC00007E
FC00007E
FC00007E
FC00007E
FC00007E
FC00007E
FC00007E
FC00007E
FC00007E
FC00007E
FC00007E
FC00007E
FC00007E
FC00007E
FC00007E
FC00007E
FC00007E
FC00007E
ENDCHAR
STARTCHAR napostrophe
ENCODING -1
SWIDTH 600 0
DWIDTH 43 0
BBX 41 51 -1 0
BITMAP
1FE000000000
1FE000000000
1FE000000000
1FC000000000
1FC000000000
1FC000000000
3F8000000000
3F8000000000
3F8000000000
3F0000000000
3F0000000000
7F0000FF0000
7E3E07FFE000
7E3E0FFFF800
7C3F3FFFFC00
7C3F7FFFFC00
F83F7F87FE00
F83FFC01FF00
003FF000FF00
003FE0007F00
003FE0003F80
003FC0003F80
003FC0003F80
003F80003F80
003F80001F80
003F80001F80
003F80001F80
003F80001F80
003F00001F80
003F00001F80
003F00001F80
003F00001F80
003F00001F80
003F00001F80
003F00001F80
003F00001F80
003F00001F80
003F00001F80
003F00001F80
003F00001F80
003F00001F80
003F00001F80
003F00001F80
003F00001F80
003F00001F80
003F00001F80
003F00001F80
003F00001F80
003F00001F80
003F00001F80
003F00001F80
ENDCHAR
STARTCHAR Eng
ENCODING -1
SWIDTH 600 0
DWIDTH 43 0
BBX 33 65 5 -14
BITMAP
FF00001F80
FF00001F80
FF80001F80
FF80001F80
FFC0001F80
FFC0001F80
FFE0001F80
FFE0001F80
FFF0001F80
FBF0001F80
F9F8001F80
FDF8001F80
FCFC001F80
FCFC001F80
FC7E001F80
FC7E001F80
FC3F001F80
FC3F001F80
FC1F801F80
FC1F801F80
FC0FC01F80
FC0FC01F80
FC07E01F80
FC07E01F80
FC03F01F80
FC03F01F80
FC01F81F80
FC01F81F80
FC00FC1F80
FC00FC1F80
FC007E1F80
FC007E1F80
FC003F1F80
FC003F1F80
FC001F9F80
FC001F9F80
FC000FDF80
FC000FDF80
FC0007EF80
FC0007FF80
FC0003FF80
FC0003FF80
FC0001FF80
FC0001FF80
FC0000FF80
FC0000FF80
FC00007F80
FC00007F80
FC00003F80
FC00003F80
FC00001F80
0000001F80
0000001F80
0000001F80
0000003F80
0000003F00
0000003F00
0000007F00
000001FE00
0003FFFE00
0003FFFC00
0003FFF800
0003FFF000
0003FFE000
0001FF0000
ENDCHAR
STARTCHAR eng
ENCODING -1
SWIDTH 600 0
DWIDTH 43 0
BBX 31 57 6 -17
BITMAP
0003FC00
F81FFF80
F87FFFE0
FCFFFFF0
FDFFFFF0
FDFE1FF8
FFF007FC
FFC003FC
FF8001FC
FF8000FE
FF0000FE
FF0000FE
FE0000FE
FE00007E
FE00007E
FE00007E
FE00007E
FC00007E
FC00007E
FC00007E
FC00007E
FC00007E
FC00007E
FC00007E
FC00007E
FC00007E
FC00007E
FC00007E
FC00007E
FC00007E
FC00007E
FC00007E
FC00007E
FC00007E
FC00007E
FC00007E
FC00007E
FC00007E
FC00007E
FC00007E
0000007E
0000007E
0000007E
0000007E
0000007E
0000007E
000000FE
000000FE
000000FE
000000FE
000001FC
0000C7FC
0000FFFC
0000FFF8
0000FFF0
0000FFE0
00007F00
ENDCHAR
STARTCHAR Omacron
ENCODING -1
SWIDTH 600 0
DWIDTH 43 0
BBX 37 62 3 -1
BITMAP
007FFFF800
007FFFF800
007FFFF800
007FFFF800
007FFFF800
0000000000
0000000000
0000000000
0000000000
0003FE0000
001FFFC000
007FFFF000
00FFFFF800
03FFFFFC00
07FFFFFE00
07FE01FF00
0FF800FF80
1FF0003F80
1FE0003FC0
1FC0001FC0
3FC0000FE0
3F80000FE0
7F80000FE0
7F000007F0
7F000007F0
7F000007F0
7F000007F0
FE000003F0
FE000003F8
FE000003F8
FE000003F8
FE000003F8
FE000003F8
FE000003F8
FE000003F8
FE000003F8
FE000003F8
FE000003F8
FE000003F8
FE000003F8
FE000003F8
FE000003F8
FE000003F8
FE000003F0
7F000007F0
7F000007F0
7F000007F0
7F000007F0
3F80000FE0
3F80000FE0
3FC0000FE0
1FC0001FC0
1FE0003FC0
1FF0003F80
0FF800FF80
07FE01FF00
07FFFFFE00
03FFFFFC00
01FFFFF800
007FFFF000
001FFFC000
0003FE0000
ENDCHAR
STARTCHAR omacron
ENCODING -1
SWIDTH 600 0
DWIDTH 43 0
BBX 35 50 4 -1
BITMAP
00FFFFF000
00FFFFF000
00FFFFF000
00FFFFF000
00FFFFF000
0000000000
0000000000
0000000000
0000000000
0007FC0000
003FFF8000
00FFFFE000
01FFFFF000
03FFFFF800
07FE1FFC00
0FF001FE00
1FE000FF00
1FC0007F00
3F80003F80
3F80003F80
7F00001FC0
7F00001FC0
7E00000FC0
7E00000FC0
FE00000FE0
FE00000FE0
FE00000FE0
FE00000FE0
FE00000FE0
FE00000FE0
FE00000FE0
FE00000FE0
FE00000FE0
FE00000FE0
FE00000FE0
7E00000FC0
7E00000FC0
7F00001FC0
7F00001FC0
3F00003F80
3F80003F80
1FC0007F00
1FE000FF00
0FF001FE00
07FF0FFC00
03FFFFF800
01FFFFF000
00FFFFE000
003FFF8000
0007FC0000
ENDCHAR
STARTCHAR Obreve
ENCODING -1
SWIDTH 600 0
DWIDTH 43 0
BBX 37 67 3 -1
BITMAP
00F0007800
00F0007800
00F000F800
007801F000
007F07F000
007FFFE000
003FFFE000
001FFFC000
000FFF0000
0001FC0000
0000000000
0000000000
0000000000
0000000000
0003FE0000
001FFFC000
007FFFF000
00FFFFF800
03FFFFFC00
07FFFFFE00
07FE01FF00
0FF800FF80
1FF0003F80
1FE0003FC0
1FC0001FC0
3FC0000FE0
3F80000FE0
7F80000FE0
7F000007F0
7F000007F0
7F000007F0
7F000007F0
FE000003F0
FE000003F8
FE000003F8
FE000003F8
FE000003F8
FE000003F8
FE000003F8
FE000003F8
FE000003F8
FE000003F8
FE000003F8
FE000003F8
FE000003F8
FE000003F8
FE000003F8
FE000003F8
FE000003F0
7F000007F0
7F000007F0
7F000007F0
7F000007F0
3F80000FE0
3F80000FE0
3FC0000FE0
1FC0001FC0
1FE0003FC0
1FF0003F80
0FF800FF80
07FE01FF00
07FFFFFE00
03FFFFFC00
01FFFFF800
007FFFF000
001FFFC000
0003FE0000
ENDCHAR
STARTCHAR obreve
ENCODING -1
SWIDTH 600 0
DWIDTH 43 0
BBX 35 55 4 -1
BITMAP
01E000F000
01E000F000
01E001F000
00F003E000
00FE0FE000
00FFFFC000
007FFFC000
003FFF8000
001FFE0000
0003F80000
0000000000
0000000000
0000000000
0000000000
0007FC0000
003FFF8000
00FFFFE000
01FFFFF000
03FFFFF800
07FE1FFC00
0FF001FE00
1FE000FF00
1FC0007F00
3F80003F80
3F80003F80
7F00001FC0
7F00001FC0
7E00000FC0
7E00000FC0
FE00000FE0
FE00000FE0
FE00000FE0
FE00000FE0
FE00000FE0
FE00000FE0
FE00000FE0
FE00000FE0
FE00000FE0
FE00000FE0
FE00000FE0
7E00000FC0
7E00000FC0
7F00001FC0
7F00001FC0
3F00003F80
3F80003F80
1FC0007F00
1FE000FF00
0FF001FE00
07FF0FFC00
03FFFFF800
01FFFFF000
00FFFFE000
003FFF8000
0007FC0000
ENDCHAR
STARTCHAR Ohungarumlaut
ENCODING -1
SWIDTH 600 0
DWIDTH 43 0
BBX 37 69 3 -1
BITMAP
0003FC1FE0
0003F81FC0
0007F83FC0
0007F03F80
000FE07F00
001FC0FE00
001F80FC00
003F01F800
003E01F000
007C03E000
00F807C000
00F0078000
0000000000
0000000000
0000000000
0000000000
0003FE0000
001FFFC000
007FFFF000
00FFFFF800
03FFFFFC00
07FFFFFE00
07FE01FF00
0FF800FF80
1FF0003F80
1FE0003FC0
1FC0001FC0
3FC0000FE0
3F80000FE0
7F80000FE0
7F000007F0
7F000007F0
7F000007F0
7F000007F0
FE000003F0
FE000003F8
FE000003F8
FE000003F8
FE000003F8
FE000003F8
FE000003F8
FE000003F8
FE000003F8
FE000003F8
FE000003F8
FE000003F8
FE000003F8
FE000003F8
FE000003F8
FE000003F8
FE000003F0
7F000007F0
7F000007F0
7F000007F0
7F000007F0
3F80000FE0
3F80000FE0
3FC0000FE0
1FC0001FC0
1FE0003FC0
1FF0003F80
0FF800FF80
07FE01FF00
07FFFFFE00
03FFFFFC00
01FFFFF800
007FFFF000
001FFFC000
0003FE0000
ENDCHAR
STARTCHAR ohungarumlaut
ENCODING -1
SWIDTH 600 0
DWIDTH 43 0
BBX 35 57 4 -1
BITMAP
0007F83FC0
0007F03F80
000FF07F80
000FE07F00
001FC0FE00
003F81FC00
003F01F800
007E03F000
007C03E000
00F807C000
01F00F8000
01E00F0000
0000000000
0000000000
0000000000
0000000000
0007FC0000
003FFF8000
00FFFFE000
01FFFFF000
03FFFFF800
07FE1FFC00
0FF001FE00
1FE000FF00
1FC0007F00
3F80003F80
3F80003F80
7F00001FC0
7F00001FC0
7E00000FC0
7E00000FC0
FE00000FE0
FE00000FE0
FE00000FE0
FE00000FE0
FE00000FE0
FE00000FE0
FE00000FE0
FE00000FE0
FE00000FE0
FE00000FE0
FE00000FE0
7E00000FC0
7E00000FC0
7F00001FC0
7F00001FC0
3F00003F80
3F80003F80
1FC0007F00
1FE000FF00
0FF001FE00
07FF0FFC00
03FFFFF800
01FFFFF000
00FFFFE000
003FFF8000
0007FC0000
ENDCHAR
STARTCHAR OE
ENCODING -1
SWIDTH 600 0
DWIDTH 43 0
BBX 41 53 1 -1
BITMAP
0007F8000000
003FFFFFFF80
00FFFFFFFF80
01FFFFFFFF80
03FFFFFFFF80
07FFFFFFFF80
0FF80FFFFF80
0FF007F00000
1FE007F00000
1FC007F00000
3F8007F00000
3F8007F00000
3F0007F00000
7F0007F00000
7F0007F00000
7F0007F00000
7E0007F00000
7E0007F00000
FE0007F00000
FE0007F00000
FE0007F00000
FE0007F00000
FE0007FFFF00
FE0007FFFF00
FE0007FFFF00
FE0007FFFF00
FE0007FFFF00
FE0007FFFF00
FE0007F00000
FE0007F00000
FE0007F00000
FE0007F00000
FE0007F00000
FE0007F00000
FE0007F00000
7E0007F00000
7E0007F00000
7F0007F00000
7F0007F00000
7F0007F00000
3F0007F00000
3F8007F00000
3F8007F00000
1FC007F00000
1FE007F00000
0FF007F00000
0FF80FFFFF80
07FFFFFFFF80
03FFFFFFFF80
01FFFFFFFF80
00FFFFFFFF80
003FFFFFFF80
000FF0000000
ENDCHAR
STARTCHAR oe
ENCODING -1
SWIDTH 600 0
DWIDTH 43 0
BBX 39 41 2 -1
BITMAP
007E001F00
01FF807FC0
07FFC0FFE0
0FFFE1FFF0
0FFFE1FFF0
1FE7F3F3F8
1F81FBE1F8
3F00FFC0FC
3F00FFC0FC
7F007F80FC
7E007F80FC
7E007F80FE
7E007F807E
FE003F807E
FE003F807E
FE003F007E
FE003FFFFE
FC003FFFFE
FC003FFFFE
FC003FFFFE
FC003FFFFE
FC003F0000
FC003F0000
FC003F0000
FE003F8000
FE003F8000
FE003F8000
7E003F8000
7E007F8000
7E007F8000
7E007F8000
7F007FC000
3F00FFC000
3F80FFE008
1F81FBF018
1FE7F3FFF8
0FFFF1FFF8
07FFE1FFF8
03FFC0FFF8
01FF807FF0
007E001F80
ENDCHAR
STARTCHAR Racute
ENCODING -1
SWIDTH 600 0
DWIDTH 43 0
BBX 34 68 7 0
BITMAP
0001FE0000
0001FE0000
0003FC0000
0003F80000
0007F00000
000FF00000
000FE00000
001FC00000
001F800000
003F000000
007E000000
007C000000
0000000000
0000000000
0000000000
0000000000
0000000000
FFFFC00000
FFFFFC0000
FFFFFF0000
FFFFFF8000
FFFFFFE000
FFFFFFE000
FE003FF000
FE000FF800
FE0007F800
FE0003F800
FE0003FC00
FE0001FC00
FE0001FC00
FE0001FC00
FE0001FC00
FE0001FC00
FE0001FC00
FE0001FC00
FE0001F800
FE0003F800
FE0003F800
FE0007F000
FE001FF000
FE007FE000
FFFFFFC000
FFFFFF8000
FFFFFE0000
FFFFF80000
FFFFF80000
FFFFF80000
FE01FC0000
FE01FC0000
FE00FE0000
FE007F0000
FE007F0000
FE003F8000
FE003F8000
FE001FC000
FE001FE000
FE000FE000
FE0007F000
FE0007F000
FE0003F800
FE0003FC00
FE0001FC00
FE0001FE00
FE0000FF00
FE00007F00
FE00007F80
FE00003F80
FE00003FC0
ENDCHAR
STARTCHAR racute
ENCODING -1
SWIDTH 600 0
DWIDTH 43 0
BBX 28 56 9 0
BITMAP
0001FE00
0001FE00
0003FC00
0003F800
0007F000
000FF000
000FE000
001FC000
001F8000
003F0000
007E0000
007C0000
00000000
00000000
00000000
00000000
0001FF00
F807FFF0
F81FFFF0
F83FFFE0
FC7FFFE0
FCFFFFE0
FDF800E0
FDE00000
FFC00000
FF800000
FF000000
FF000000
FE000000
FE000000
FE000000
FE000000
FE000000
FC000000
FC000000
FC000000
FC000000
FC000000
FC000000
FC000000
FC000000
FC000000
FC000000
FC000000
FC000000
FC000000
FC000000
FC000000
FC000000
FC000000
FC000000
FC000000
FC000000
FC000000
FC000000
FC000000
ENDCHAR
STARTCHAR uni0156
ENCODING -1
SWIDTH 600 0
DWIDTH 43 0
BBX 34 67 7 -16
BITMAP
FFFFC00000
FFFFFC0000
FFFFFF0000
FFFFFF8000
FFFFFFE000
FFFFFFE000
FE003FF000
FE000FF800
FE0007F800
FE0003F800
FE0003FC00
FE0001FC00
FE0001FC00
FE0001FC00
FE0001FC00
FE0001FC00
FE0001FC00
FE0001FC00
FE0001F800
FE0003F800
FE0003F800
FE0007F000
FE001FF000
FE007FE000
FFFFFFC000
FFFFFF8000
FFFFFE0000
FFFFF80000
FFFFF80000
FFFFF80000
FE01FC0000
FE01FC0000
FE00FE0000
FE007F0000
FE007F0000
FE003F8000
FE003F8000
FE001FC000
FE001FE000
FE000FE000
FE0007F000
FE0007F000
FE0003F800
FE0003FC00
FE0001FC00
FE0001FE00
FE0000FF00
FE00007F00
FE00007F80
FE00003F80
FE00003FC0
0000000000
0000000000
0000000000
0000000000
0003F00000
0003F00000
0007E00000
0007E00000
0007E00000
0007C00000
0007C00000
000F800000
000F800000
000F000000
001F000000
001E000000
ENDCHAR
STARTCHAR uni0157
ENCODING -1
SWIDTH 600 0
DWIDTH 43 0
BBX 30 56 7 -16
BITMAP
00007FC0
3E01FFFC
3E07FFFC
3E0FFFF8
3F1FFFF8
3F3FFFF8
3F7E0038
3F780000
3FF00000
3FE00000
3FC00000
3FC00000
3F800000
3F800000
3F800000
3F800000
3F800000
3F000000
3F000000
3F000000
3F000000
3F000000
3F000000
3F000000
3F000000
3F000000
3F000000
3F000000
3F000000
3F000000
3F000000
3F000000
3F000000
3F000000
3F000000
3F000000
3F000000
3F000000
3F000000
3F000000
00000000
00000000
00000000
00000000
1F800000
1F800000
3F000000
3F000000
3F000000
3E000000
3E000000
7C000000
7C000000
78000000
F8000000
F0000000
ENDCHAR
STARTCHAR Rcaron
ENCODING -1
SWIDTH 600 0
DWIDTH 43 0
BBX 34 68 7 0
BITMAP
1F0007C000
1F800FC000
0FC01F8000
07E03F0000
03F07E0000
01F8FC0000
00FDF80000
00FFF80000
007FF00000
003FE00000
003FE00000
001FC00000
0000000000
0000000000
0000000000
0000000000
0000000000
FFFFC00000
FFFFFC0000
FFFFFF0000
FFFFFF8000
FFFFFFE000
FFFFFFE000
FE003FF000
FE000FF800
FE0007F800
FE0003F800
FE0003FC00
FE0001FC00
FE0001FC00
FE0001FC00
FE0001FC00
FE0001FC00
FE0001FC00
FE0001FC00
FE0001F800
FE0003F800
FE0003F800
FE0007F000
FE001FF000
FE007FE000
FFFFFFC000
FFFFFF8000
FFFFFE0000
FFFFF80000
FFFFF80000
FFFFF80000
FE01FC0000
FE01FC0000
FE00FE0000
FE007F0000
FE007F0000
FE003F8000
FE003F8000
FE001FC000
FE001FE000
FE000FE000
FE0007F000
FE0007F000
FE0003F800
FE0003FC00
FE0001FC00
FE0001FE00
FE0000FF00
FE00007F00
FE00007F80
FE00003F80
FE00003FC0
ENDCHAR
STARTCHAR rcaron
ENCODING -1
SWIDTH 600 0
DWIDTH 43 0
BBX 28 56 9 0
BITMAP
3E000F80
3F001F80
1F803F00
0FC07E00
07E0FC00
03F1F800
01FBF000
01FFF000
00FFE000
007FC000
007FC000
003F8000
00000000
00000000
00000000
00000000
0001FF00
F807FFF0
F81FFFF0
F83FFFE0
FC7FFFE0
FCFFFFE0
FDF800E0
FDE00000
FFC00000
FF800000
FF000000
FF000000
FE000000
FE000000
FE000000
FE000000
FE000000
FC000000
FC000000
FC000000
FC000000
FC000000
FC000000
FC000000
FC000000
FC000000
FC000000
FC000000
FC000000
FC000000
FC000000
FC000000
FC000000
FC000000
FC000000
FC000000
FC000000
FC000000
FC000000
FC000000
ENDCHAR
STARTCHAR Sacute
ENCODING -1
SWIDTH 600 0
DWIDTH 43 0
BBX 33 69 5 -1
BITMAP
00001FE000
00001FE000
00003FC000
00003F8000
00007F0000
0000FF0000
0000FE0000
0001FC0000
0001F80000
0003F00000
0007E00000
0007C00000
0000000000
0000000000
0000000000
0000000000
000FFF0000
007FFFF800
01FFFFFE00
07FFFFFF00
0FFFFFFE00
1FFFFFFE00
1FF000FE00
3FC0001C00
3F80000000
7F00000000
7F00000000
7F00000000
7F00000000
7F00000000
7F00000000
7F00000000
7F00000000
3F80000000
3F80000000
3FC0000000
1FF0000000
1FFC000000
0FFF000000
07FFE00000
03FFF80000
00FFFF0000
003FFF8000
000FFFE000
0003FFF800
00007FFC00
00001FFE00
000007FE00
000001FF00
000000FF00
0000007F00
0000003F80
0000003F80
0000003F80
0000003F80
0000003F80
0000003F80
0000003F80
0000003F80
0000007F00
000000FF00
E00001FE00
FE0007FE00
FFFFFFFC00
FFFFFFF800
FFFFFFF000
FFFFFFC000
3FFFFF0000
01FFF00000
ENDCHAR
STARTCHAR sacute
ENCODING -1
SWIDTH 600 0
DWIDTH 43 0
BBX 29 57 7 -1
BITMAP
00007F80
00007F80
0000FF00
0000FE00
0001FC00
0003FC00
0003F800
0007F000
0007E000
000FC000
001F8000
001F0000
00000000
00000000
00000000
00000000
003FF800
01FFFF80
07FFFFF0
0FFFFFF0
1FFFFFE0
3FF83FE0
3F8003E0
7F000040
7F000000
7E000000
7E000000
7E000000
7F000000
7F800000
3FC00000
3FF00000
1FFE0000
0FFF8000
07FFF000
01FFFC00
007FFF00
001FFF80
0007FFC0
0000FFE0
00003FF0
00000FF0
000007F8
000003F8
000001F8
000001F8
000001F8
000003F8
000003F8
C00007F0
F8000FF0
FFC1FFE0
FFFFFFC0
FFFFFF80
FFFFFF00
3FFFFC00
03FFE000
ENDCHAR
STARTCHAR Scircumflex
ENCODING -1
SWIDTH 600 0
DWIDTH 43 0
BBX 33 69 5 -1
BITMAP
0003F80000
0007FC0000
0007FC0000
000FFE0000
001FFF0000
001FBF0000
003F1F8000
007E0FC000
00FC07E000
01F803F000
03F001F800
03E000F800
0000000000
0000000000
0000000000
0000000000
000FFF0000
007FFFF800
01FFFFFE00
07FFFFFF00
0FFFFFFE00
1FFFFFFE00
1FF000FE00
3FC0001C00
3F80000000
7F00000000
7F00000000
7F00000000
7F00000000
7F00000000
7F00000000
7F00000000
7F00000000
3F80000000
3F80000000
3FC0000000
1FF0000000
1FFC000000
0FFF000000
07FFE00000
03FFF80000
00FFFF0000
003FFF8000
000FFFE000
0003FFF800
00007FFC00
00001FFE00
000007FE00
000001FF00
000000FF00
0000007F00
0000003F80
0000003F80
0000003F80
0000003F80
0000003F80
0000003F80
0000003F80
0000003F80
0000007F00
000000FF00
E00001FE00
FE0007FE00
FFFFFFFC00
FFFFFFF800
FFFFFFF000
FFFFFFC000
3FFFFF0000
01FFF00000
ENDCHAR
STARTCHAR scircumflex
ENCODING -1
SWIDTH 600 0
DWIDTH 43 0
BBX 29 57 7 -1
BITMAP
000FE000
001FF000
001FF000
003FF800
007FFC00
007EFC00
00FC7E00
01F83F00
03F01F80
07E00FC0
0FC007E0
0F8003E0
00000000
00000000
00000000
00000000
003FF800
01FFFF80
07FFFFF0
0FFFFFF0
1FFFFFE0
3FF83FE0
3F8003E0
7F000040
7F000000
7E000000
7E000000
7E000000
7F000000
7F800000
3FC00000
3FF00000
1FFE0000
0FFF8000
07FFF000
01FFFC00
007FFF00
001FFF80
0007FFC0
0000FFE0
00003FF0
00000FF0
000007F8
000003F8
000001F8
000001F8
000001F8
000003F8
000003F8
C00007F0
F8000FF0
FFC1FFE0
FFFFFFC0
FFFFFF80
FFFFFF00
3FFFFC00
03FFE000
ENDCHAR
STARTCHAR Scedilla
ENCODING -1
SWIDTH 600 0
DWIDTH 43 0
BBX 33 69 5 -17
BITMAP
000FFF0000
007FFFF800
01FFFFFE00
07FFFFFF00
0FFFFFFE00
1FFFFFFE00
1FF000FE00
3FC0001C00
3F80000000
7F00000000
7F00000000
7F00000000
7F00000000
7F00000000
7F00000000
7F00000000
7F00000000
3F80000000
3F80000000
3FC0000000
1FF0000000
1FFC000000
0FFF000000
07FFE00000
03FFF80000
00FFFF0000
003FFF8000
000FFFE000
0003FFF800
00007FFC00
00001FFE00
000007FE00
000001FF00
000000FF00
0000007F00
0000003F80
0000003F80
0000003F80
0000003F80
0000003F80
0000003F80
0000003F80
0000003F80
0000007F00
000000FF00
E00001FE00
FE0007FE00
FFFFFFFC00
FFFFFFF800
FFFFFFF000
FFFFFFC000
3FFFFF0000
01FFF00000
0003E00000
0003C00000
0007C00000
0007E00000
000FF80000
0003FC0000
0000FE0000
00007E0000
00003E0000
00003E0000
00007E0000
0000FE0000
003FFC0000
003FF80000
003FF00000
003F800000
ENDCHAR
STARTCHAR scedilla
ENCODING -1
SWIDTH 600 0
DWIDTH 43 0
BBX 29 57 7 -17
BITMAP
003FF800
01FFFF80
07FFFFF0
0FFFFFF0
1FFFFFE0
3FF83FE0
3F8003E0
7F000040
7F000000
7E000000
7E000000
7E000000
7F000000
7F800000
3FC00000
3FF00000
1FFE0000
0FFF8000
07FFF000
01FFFC00
007FFF00
001FFF80
0007FFC0
0000FFE0
00003FF0
00000FF0
000007F8
000003F8
000001F8
000001F8
000001F8
000003F8
000003F8
C00007F0
F8000FF0
FFC1FFE0
FFFFFFC0
FFFFFF80
FFFFFF00
3FFFFC00
03FFE000
000F8000
000F0000
001F0000
001F8000
003FE000
000FF000
0003F800
0001F800
0000F800
0000F800
0001F800
0003F800
00FFF000
00FFE000
00FFC000
00FE0000
ENDCHAR
STARTCHAR Scaron
ENCODING -1
SWIDTH 600 0
DWIDTH 43 0
BBX 33 69 5 -1
BITMAP
03E000F800
03F001F800
01F803F000
00FC07E000
007E0FC000
003F1F8000
001FBF0000
001FFF0000
000FFE0000
0007FC0000
0007FC0000
0003F80000
0000000000
0000000000
0000000000
0000000000
000FFF0000
007FFFF800
01FFFFFE00
07FFFFFF00
0FFFFFFE00
1FFFFFFE00
1FF000FE00
3FC0001C00
3F80000000
7F00000000
7F00000000
7F00000000
7F00000000
7F00000000
7F00000000
7F00000000
7F00000000
3F80000000
3F80000000
3FC0000000
1FF0000000
1FFC000000
0FFF000000
07FFE00000
03FFF80000
00FFFF0000
003FFF8000
000FFFE000
0003FFF800
00007FFC00
00001FFE00
000007FE00
000001FF00
000000FF00
0000007F00
0000003F80
0000003F80
0000003F80
0000003F80
0000003F80
0000003F80
0000003F80
0000003F80
0000007F00
000000FF00
E00001FE00
FE0007FE00
FFFFFFFC00
FFFFFFF800
FFFFFFF000
FFFFFFC000
3FFFFF0000
01FFF00000
ENDCHAR
STARTCHAR scaron
ENCODING -1
SWIDTH 600 0
DWIDTH 43 0
BBX 29 57 7 -1
BITMAP
0F8003E0
0FC007E0
07E00FC0
03F01F80
01F83F00
00FC7E00
007EFC00
007FFC00
003FF800
001FF000
001FF000
000FE000
00000000
00000000
00000000
00000000
003FF800
01FFFF80
07FFFFF0
0FFFFFF0
1FFFFFE0
3FF83FE0
3F8003E0
7F000040
7F000000
7E000000
7E000000
7E000000
7F000000
7F800000
3FC00000
3FF00000
1FFE0000
0FFF8000
07FFF000
01FFFC00
007FFF00
001FFF80
0007FFC0
0000FFE0
00003FF0
00000FF0
000007F8
000003F8
000001F8
000001F8
000001F8
000003F8
000003F8
C00007F0
F8000FF0
FFC1FFE0
FFFFFFC0
FFFFFF80
FFFFFF00
3FFFFC00
03FFE000
ENDCHAR
STARTCHAR uni021A
ENCODING -1
SWIDTH 600 0
DWIDTH 43 0
BBX 36 67 3 -16
BITMAP
FFFFFFFFF0
FFFFFFFFF0
FFFFFFFFF0
FFFFFFFFF0
FFFFFFFFF0
FFFFFFFFF0
0001FC0000
0001FC0000
0001FC0000
0001FC0000
0001FC0000
0001FC0000
0001FC0000
0001FC0000
0001FC0000
0001FC0000
0001FC0000
0001FC0000
0001FC0000
0001FC0000
0001FC0000
0001FC0000
0001FC0000
0001FC0000
0001FC0000
0001FC0000
0001FC0000
0001FC0000
0001FC0000
0001FC0000
0001FC0000
0001FC0000
0001FC0000
0001FC0000
0001FC0000
0001FC0000
0001FC0000
0001FC0000
0001FC0000
0001FC0000
0001FC0000
0001FC0000
0001FC0000
0001FC0000
0001FC0000
0001FC0000
0001FC0000
0001FC0000
0001FC0000
0001FC0000
0001FC0000
0000000000
0000000000
0000000000
0000000000
0000FC0000
0000FC0000
0001F80000
0001F80000
0001F80000
0001F00000
0001F00000
0003E00000
0003E00000
0003C00000
0007C00000
0007800000
ENDCHAR
STARTCHAR uni021B
ENCODING -1
SWIDTH 600 0
DWIDTH 43 0
BBX 31 65 5 -16
BITMAP
001E0000
001E0000
001E0000
001E0000
003E0000
003E0000
003E0000
003E0000
007E0000
007E0000
07FFFFFE
FFFFFFFE
FFFFFFFE
FFFFFFFE
FFFFFFFE
007E0000
007E0000
007E0000
007E0000
007E0000
007E0000
007E0000
007E0000
007E0000
007E0000
007E0000
007E0000
007E0000
007E0000
007E0000
007E0000
007E0000
007E0000
007E0000
007E0000
007E0000
007E0000
007E0000
007E0000
007F0000
007F0000
007F0000
003F8000
003FC000
003FF81E
001FFFFE
000FFFFE
0007FFFE
0003FFFE
00007FF0
00000000
00000000
00000000
0000FC00
0000FC00
0001F800
0001F800
0001F800
0001F000
0001F000
0003E000
0003E000
0003C000
0007C000
00078000
ENDCHAR
STARTCHAR Tcaron
ENCODING -1
SWIDTH 600 0
DWIDTH 43 0
BBX 36 68 3 0
BITMAP
01F0007C00
01F800FC00
00FC01F800
007E03F000
003F07E000
001F8FC000
000FDF8000
000FFF8000
0007FF0000
0003FE0000
0003FE0000
0001FC0000
0000000000
0000000000
0000000000
0000000000
0000000000
FFFFFFFFF0
FFFFFFFFF0
FFFFFFFFF0
FFFFFFFFF0
FFFFFFFFF0
FFFFFFFFF0
0001FC0000
0001FC0000
0001FC0000
0001FC0000
0001FC0000
0001FC0000
0001FC0000
0001FC0000
0001FC0000
0001FC0000
0001FC0000
0001FC0000
0001FC0000
0001FC0000
0001FC0000
0001FC0000
0001FC0000
0001FC0000
0001FC0000
0001FC0000
0001FC0000
0001FC0000
0001FC0000
0001FC0000
0001FC0000
0001FC0000
0001FC0000
0001FC0000
0001FC0000
0001FC0000
0001FC0000
0001FC0000
0001FC0000
0001FC0000
0001FC0000
0001FC0000
0001FC0000
0001FC0000
0001FC0000
0001FC0000
0001FC0000
0001FC0000
0001FC0000
0001FC0000
0001FC0000
ENDCHAR
STARTCHAR tcaron
ENCODING -1
SWIDTH 600 0
DWIDTH 43 0
BBX 32 56 5 -1
BITMAP
0000003F
0000003F
0000003E
0000003E
0000007E
0000007C
001E007C
001E007C
001E0078
001E00F8
003E00F0
003E00E0
003E0000
003E0000
007E0000
007E0000
07FFFFFE
FFFFFFFE
FFFFFFFE
FFFFFFFE
FFFFFFFE
007E0000
007E0000
007E0000
007E0000
007E0000
007E0000
007E0000
007E0000
007E0000
007E0000
007E0000
007E0000
007E0000
007E0000
007E0000
007E0000
007E0000
007E0000
007E0000
007E0000
007E0000
007E0000
007E0000
007E0000
007F0000
007F0000
007F0000
003F8000
003FC000
003FF81E
001FFFFE
000FFFFE
0007FFFE
0003FFFE
00007FF0
ENDCHAR
STARTCHAR Tbar
ENCODING -1
SWIDTH 600 0
DWIDTH 43 0
BBX 36 51 3 0
BITMAP
FFFFFFFFF0
FFFFFFFFF0
FFFFFFFFF0
FFFFFFFFF0
FFFFFFFFF0
FFFFFFFFF0
0001FC0000
0001FC0000
0001FC0000
0001FC0000
0001FC0000
0001FC0000
0001FC0000
0001FC0000
0001FC0000
0001FC0000
0001FC0000
0001FC0000
0001FC0000
0001FC0000
0001FC0000
0001FC0000
0FFFFFFF00
0FFFFFFF00
0FFFFFFF00
0FFFFFFF00
0FFFFFFF00
0FFFFFFF00
0001FC0000
0001FC0000
0001FC0000
0001FC0000
0001FC0000
0001FC0000
0001FC0000
0001FC0000
0001FC0000
0001FC0000
0001FC0000
0001FC0000
0001FC0000
0001FC0000
0001FC0000
0001FC0000
0001FC0000
0001FC0000
0001FC0000
0001FC0000
0001FC0000
0001FC0000
0001FC0000
ENDCHAR
STARTCHAR tbar
ENCODING -1
SWIDTH 600 0
DWIDTH 43 0
BBX 31 50 5 -1
BITMAP
001E0000
001E0000
001E0000
001E0000
003E0000
003E0000
003E0000
003E0000
007E0000
007E0000
07FFFFFE
FFFFFFFE
FFFFFFFE
FFFFFFFE
FFFFFFFE
007E0000
007E0000
007E0000
007E0000
007E0000
007E0000
007E0000
007E0000
007E0000
0FFFFFC0
0FFFFFC0
0FFFFFC0
0FFFFFC0
0FFFFFC0
007E0000
007E0000
007E0000
007E0000
007E0000
007E0000
007E0000
007E0000
007E0000
007F0000
007F0000
007F0000
007F0000
003F8000
003FC000
003FF81E
001FFFFE
000FFFFE
0007FFFE
0003FFFE
00007FF0
ENDCHAR
STARTCHAR Utilde
ENCODING -1
SWIDTH 600 0
DWIDTH 43 0
BBX 35 67 4 -1
BITMAP
003C003C00
00FF803C00
01FFC03C00
01FFF07800
03FFFCF800
03E7FFF800
03C1FFF000
07807FF000
07801FE000
0780078000
0000000000
0000000000
0000000000
0000000000
0000000000
FE00000FE0
FE00000FE0
FE00000FE0
FE00000FE0
FE00000FE0
FE00000FE0
FE00000FE0
FE00000FE0
FE00000FE0
FE00000FE0
FE00000FE0
FE00000FE0
FE00000FE0
FE00000FE0
FE00000FE0
FE00000FE0
FE00000FE0
FE00000FE0
FE00000FE0
FE00000FE0
FE00000FE0
FE00000FE0
FE00000FE0
FE00000FE0
FE00000FE0
FE00000FE0
FE00000FE0
FE00000FE0
FE00000FE0
FE00000FE0
FE00000FE0
FE00000FE0
FE00000FE0
FE00000FE0
FE00000FE0
FE00000FE0
FE00000FE0
FE00000FE0
FE00000FE0
7E00001FC0
7F00001FC0
7F00001FC0
7F80003F80
3FC0007F80
3FE000FF00
1FF803FF00
0FFFFFFE00
07FFFFFC00
03FFFFF800
01FFFFF000
007FFFC000
000FFE0000
ENDCHAR
STARTCHAR utilde
ENCODING -1
SWIDTH 600 0
DWIDTH 43 0
BBX 31 55 6 -1
BITMAP
00F000F0
03FE00F0
07FF00F0
07FFC1E0
0FFFF3E0
0F9FFFE0
0F07FFC0
1E01FFC0
1E007F80
1E001E00
00000000
00000000
00000000
00000000
00000000
FC00007E
FC00007E
FC00007E
FC00007E
FC00007E
FC00007E
FC00007E
FC00007E
FC00007E
FC00007E
FC00007E
FC00007E
FC00007E
FC00007E
FC00007E
FC00007E
FC00007E
FC00007E
FC00007E
FC00007E
FC00007E
FC00007E
FC00007E
FC0000FE
FC0000FE
FC0000FE
FC0000FE
FE0000FE
FE0000FE
FE0001FE
FE0001FE
7F0003FE
7F8007FE
7FC00FFE
3FF07F7E
1FFFFF7E
1FFFFE7E
0FFFFC3E
03FFF03E
007F8000
ENDCHAR
STARTCHAR Umacron
ENCODING -1
SWIDTH 600 0
DWIDTH 43 0
BBX 35 62 4 -1
BITMAP
00FFFFF000
00FFFFF000
00FFFFF000
00FFFFF000
00FFFFF000
0000000000
0000000000
0000000000
0000000000
0000000000
FE00000FE0
FE00000FE0
FE00000FE0
FE00000FE0
FE00000FE0
FE00000FE0
FE00000FE0
FE00000FE0
FE00000FE0
FE00000FE0
FE00000FE0
FE00000FE0
FE00000FE0
FE00000FE0
FE00000FE0
FE00000FE0
FE00000FE0
FE00000FE0
FE00000FE0
FE00000FE0
FE00000FE0
FE00000FE0
FE00000FE0
FE00000FE0
FE00000FE0
FE00000FE0
FE00000FE0
FE00000FE0
FE00000FE0
FE00000FE0
FE00000FE0
FE00000FE0
FE00000FE0
FE00000FE0
FE00000FE0
FE00000FE0
FE00000FE0
FE00000FE0
FE00000FE0
7E00001FC0
7F00001FC0
7F00001FC0
7F80003F80
3FC0007F80
3FE000FF00
1FF803FF00
0FFFFFFE00
07FFFFFC00
03FFFFF800
01FFFFF000
007FFFC000
000FFE0000
ENDCHAR
STARTCHAR umacron
ENCODING -1
SWIDTH 600 0
DWIDTH 43 0
BBX 31 50 6 -1
BITMAP
03FFFFC0
03FFFFC0
03FFFFC0
03FFFFC0
03FFFFC0
00000000
00000000
00000000
00000000
00000000
FC00007E
FC00007E
FC00007E
FC00007E
FC00007E
FC00007E
FC00007E
FC00007E
FC00007E
FC00007E
FC00007E
FC00007E
FC00007E
FC00007E
FC00007E
FC00007E
FC00007E
FC00007E
FC00007E
FC00007E
FC00007E
FC00007E
FC00007E
FC0000FE
FC0000FE
FC0000FE
FC0000FE
FE0000FE
FE0000FE
FE0001FE
FE0001FE
7F0003FE
7F8007FE
7FC00FFE
3FF07F7E
1FFFFF7E
1FFFFE7E
0FFFFC3E
03FFF03E
007F8000
ENDCHAR
STARTCHAR Ubreve
ENCODING -1
SWIDTH 600 0
DWIDTH 43 0
BBX 35 67 4 -1
BITMAP
01E000F000
01E000F000
01E001F000
00F003E000
00FE0FE000
00FFFFC000
007FFFC000
003FFF8000
001FFE0000
0003F80000
0000000000
0000000000
0000000000
0000000000
0000000000
FE00000FE0
FE00000FE0
FE00000FE0
FE00000FE0
FE00000FE0
FE00000FE0
FE00000FE0
FE00000FE0
FE00000FE0
FE00000FE0
FE00000FE0
FE00000FE0
FE00000FE0
FE00000FE0
FE00000FE0
FE00000FE0
FE00000FE0
FE00000FE0
FE00000FE0
FE00000FE0
FE00000FE0
FE00000FE0
FE00000FE0
FE00000FE0
FE00000FE0
FE00000FE0
FE00000FE0
FE00000FE0
FE00000FE0
FE00000FE0
FE00000FE0
FE00000FE0
FE00000FE0
FE00000FE0
FE00000FE0
FE00000FE0
FE00000FE0
FE00000FE0
FE00000FE0
7E00001FC0
7F00001FC0
7F00001FC0
7F80003F80
3FC0007F80
3FE000FF00
1FF803FF00
0FFFFFFE00
07FFFFFC00
03FFFFF800
01FFFFF000
007FFFC000
000FFE0000
ENDCHAR
STARTCHAR ubreve
ENCODING -1
SWIDTH 600 0
DWIDTH 43 0
BBX 31 55 6 -1
BITMAP
078003C0
078003C0
078007C0
03C00F80
03F83F80
03FFFF00
01FFFF00
00FFFE00
007FF800
000FE000
00000000
00000000
00000000
00000000
00000000
FC00007E
FC00007E
FC00007E
FC00007E
FC00007E
FC00007E
FC00007E
FC00007E
FC00007E
FC00007E
FC00007E
FC00007E
FC00007E
FC00007E
FC00007E
FC00007E
FC00007E
FC00007E
FC00007E
FC00007E
FC00007E
FC00007E
FC00007E
FC0000FE
FC0000FE
FC0000FE
FC0000FE
FE0000FE
FE0000FE
FE0001FE
FE0001FE
7F0003FE
7F8007FE
7FC00FFE
3FF07F7E
1FFFFF7E
1FFFFE7E
0FFFFC3E
03FFF03E
007F8000
ENDCHAR
STARTCHAR Uring
ENCODING -1
SWIDTH 600 0
DWIDTH 43 0
BBX 35 72 4 -1
BITMAP
0001F80000
0007FE0000
000FFF0000
001FFF8000
003E078000
003C03C000
003C03C000
003C03C000
003C03C000
003C03C000
003E078000
001FFF8000
000FFF0000
0007FE0000
0001F80000
0000000000
0000000000
0000000000
0000000000
0000000000
FE00000FE0
FE00000FE0
FE00000FE0
FE00000FE0
FE00000FE0
FE00000FE0
FE00000FE0
FE00000FE0
FE00000FE0
FE00000FE0
FE00000FE0
FE00000FE0
FE00000FE0
FE00000FE0
FE00000FE0
FE00000FE0
FE00000FE0
FE00000FE0
FE00000FE0
FE00000FE0
FE00000FE0
FE00000FE0
FE00000FE0
FE00000FE0
FE00000FE0
FE00000FE0
FE00000FE0
FE00000FE0
FE00000FE0
FE00000FE0
FE00000FE0
FE00000FE0
FE00000FE0
FE00000FE0
FE00000FE0
FE00000FE0
FE00000FE0
FE00000FE0
FE00000FE0
7E00001FC0
7F00001FC0
7F00001FC0
7F80003F80
3FC0007F80
3FE000FF00
1FF803FF00
0FFFFFFE00
07FFFFFC00
03FFFFF800
01FFFFF000
007FFFC000
000FFE0000
ENDCHAR
STARTCHAR uring
ENCODING -1
SWIDTH 600 0
DWIDTH 43 0
BBX 31 60 6 -1
BITMAP
0007E000
001FF800
003FFC00
007FFE00
00F81E00
00F00F00
00F00F00
00F00F00
00F00F00
00F00F00
00F81E00
007FFE00
003FFC00
001FF800
0007E000
00000000
00000000
00000000
00000000
00000000
FC00007E
FC00007E
FC00007E
FC00007E
FC00007E
FC00007E
FC00007E
FC00007E
FC00007E
FC00007E
FC00007E
FC00007E
FC00007E
FC00007E
FC00007E
FC00007E
FC00007E
FC00007E
FC00007E
FC00007E
FC00007E
FC00007E
FC00007E
FC0000FE
FC0000FE
FC0000FE
FC0000FE
FE0000FE
FE0000FE
FE0001FE
FE0001FE
7F0003FE
7F8007FE
7FC00FFE
3FF07F7E
1FFFFF7E
1FFFFE7E
0FFFFC3E
03FFF03E
007F8000
ENDCHAR
STARTCHAR Uhungarumlaut
ENCODING -1
SWIDTH 600 0
DWIDTH 43 0
BBX 35 69 4 -1
BITMAP
0007F83FC0
0007F03F80
000FF07F80
000FE07F00
001FC0FE00
003F81FC00
003F01F800
007E03F000
007C03E000
00F807C000
01F00F8000
01E00F0000
0000000000
0000000000
0000000000
0000000000
0000000000
FE00000FE0
FE00000FE0
FE00000FE0
FE00000FE0
FE00000FE0
FE00000FE0
FE00000FE0
FE00000FE0
FE00000FE0
FE00000FE0
FE00000FE0
FE00000FE0
FE00000FE0
FE00000FE0
FE00000FE0
FE00000FE0
FE00000FE0
FE00000FE0
FE00000FE0
FE00000FE0
FE00000FE0
FE00000FE0
FE00000FE0
FE00000FE0
FE00000FE0
FE00000FE0
FE00000FE0
FE00000FE0
FE00000FE0
FE00000FE0
FE00000FE0
FE00000FE0
FE00000FE0
FE00000FE0
FE00000FE0
FE00000FE0
FE00000FE0
FE00000FE0
FE00000FE0
7E00001FC0
7F00001FC0
7F00001FC0
7F80003F80
3FC0007F80
3FE000FF00
1FF803FF00
0FFFFFFE00
07FFFFFC00
03FFFFF800
01FFFFF000
007FFFC000
000FFE0000
ENDCHAR
STARTCHAR uhungarumlaut
ENCODING -1
SWIDTH 600 0
DWIDTH 43 0
BBX 32 57 6 -1
BITMAP
001FE0FF
001FC0FE
003FC1FE
003F81FC
007F03F8
00FE07F0
00FC07E0
01F80FC0
01F00F80
03E01F00
07C03E00
07803C00
00000000
00000000
00000000
00000000
00000000
FC00007E
FC00007E
FC00007E
FC00007E
FC00007E
FC00007E
FC00007E
FC00007E
FC00007E
FC00007E
FC00007E
FC00007E
FC00007E
FC00007E
FC00007E
FC00007E
FC00007E
FC00007E
FC00007E
FC00007E
FC00007E
FC00007E
FC00007E
FC0000FE
FC0000FE
FC0000FE
FC0000FE
FE0000FE
FE0000FE
FE0001FE
FE0001FE
7F0003FE
7F8007FE
7FC00FFE
3FF07F7E
1FFFFF7E
1FFFFE7E
0FFFFC3E
03FFF03E
007F8000
ENDCHAR
STARTCHAR Uogonek
ENCODING -1
SWIDTH 600 0
DWIDTH 43 0
BBX 35 67 4 -16
BITMAP
FE00000FE0
FE00000FE0
FE00000FE0
FE00000FE0
FE00000FE0
FE00000FE0
FE00000FE0
FE00000FE0
FE00000FE0
FE00000FE0
FE00000FE0
FE00000FE0
FE00000FE0
FE00000FE0
FE00000FE0
FE00000FE0
FE00000FE0
FE00000FE0
FE00000FE0
FE00000FE0
FE00000FE0
FE00000FE0
FE00000FE0
FE00000FE0
FE00000FE0
FE00000FE0
FE00000FE0
FE00000FE0
FE00000FE0
FE00000FE0
FE00000FE0
FE00000FE0
FE00000FE0
FE00000FE0
FE00000FE0
FE00000FE0
FE00000FE0
FE00000FE0
FE00000FE0
7E00001FC0
7F00001FC0
7F00001FC0
7F80003F80
3FC0007F80
3FE000FF00
1FF803FF00
0FFFFFFE00
07FFFFFC00
03FFFFF800
01FFFFF000
007FFFC000
000FFE0000
0000F80000
0001F00000
0003E00000
0007C00000
0007C00000
000F800000
000F800000
000F800000
000F800000
000FC00000
000FE04000
0007FFC000
0003FFC000
0001FFC000
00007F8000
ENDCHAR
STARTCHAR uogonek
ENCODING -1
SWIDTH 600 0
DWIDTH 43 0
BBX 34 55 6 -16
BITMAP
FC00007E00
FC00007E00
FC00007E00
FC00007E00
FC00007E00
FC00007E00
FC00007E00
FC00007E00
FC00007E00
FC00007E00
FC00007E00
FC00007E00
FC00007E00
FC00007E00
FC00007E00
FC00007E00
FC00007E00
FC00007E00
FC00007E00
FC00007E00
FC00007E00
FC00007E00
FC00007E00
FC0000FE00
FC0000FE00
FC0000FE00
FC0000FE00
FE0000FE00
FE0000FE00
FE0001FE00
FE0001FE00
7F0003FE00
7F8007FE00
7FC00FFE00
3FF07F7E00
1FFFFF7E00
1FFFFE7E00
0FFFFC3E00
03FFF03E00
007F803E00
000000F800
000001F000
000003E000
000007C000
000007C000
00000F8000
00000F8000
00000F8000
00000F8000
00000FC000
00000FE040
000007FFC0
000003FFC0
000001FFC0
0000007F80
ENDCHAR
STARTCHAR Wcircumflex
ENCODING -1
SWIDTH 600 0
DWIDTH 43 0
BBX 43 68 0 0
BITMAP
00003F800000
00007FC00000
00007FC00000
0000FFE00000
0001FFF00000
0001FBF00000
0003F1F80000
0007E0FC0000
000FC07E0000
001F803F0000
003F001F8000
003E000F8000
000000000000
000000000000
000000000000
000000000000
000000000000
FC00000007E0
FC00000007E0
FC00000007E0
FC00000007E0
7E00000007C0
7E0000000FC0
7E0000000FC0
7E0000000FC0
7E0000000FC0
7E0000000FC0
7E0000000FC0
3E0000000FC0
3F0000000F80
3F0000000F80
3F0000000F80
3F0000001F80
3F003F801F80
3F003F801F80
1F003F801F80
1F807FC01F80
1F807FC01F00
1F807BC01F00
1F807BE01F00
1F80FBE01F00
1F80FBE01F00
0F80FBE03F00
0F81F1F03F00
0FC1F1F03F00
0FC1F1F03E00
0FC1F1F83E00
0FC3E0F83E00
0FC3E0F83E00
0FC3E0F83E00
07C3E07C3E00
07C7C07C7E00
07C7C07C7E00
07C7C03E7C00
07CF803E7C00
07EF803E7C00
07EF803E7C00
03EF801F7C00
03EF001F7C00
03FF001F7C00
03FF000F7C00
03FF000FF800
03FE000FF800
03FE0007F800
01FE0007F800
01FC0007F800
01FC0003F800
01FC0003F800
ENDCHAR
STARTCHAR wcircumflex
ENCODING -1
SWIDTH 600 0
DWIDTH 43 0
BBX 43 56 0 0
BITMAP
00003F800000
00007FC00000
00007FC00000
0000FFE00000
0001FFF00000
0001FBF00000
0003F1F80000
0007E0FC0000
000FC07E0000
001F803F0000
003F001F8000
003E000F8000
000000000000
000000000000
000000000000
000000000000
000000000000
FC003F8007E0
FC003F8007E0
FC003FC007E0
7C007FC007C0
7C007FC007C0
7E007FC00FC0
7E007BC00FC0
7E00FBE00FC0
3E00FBE00F80
3E00FBE00F80
3F00F3E00F80
3F00F1E01F80
3F01F1F01F80
1F01F1F01F00
1F01F1F01F00
1F01F1F01F00
1F83E0F83F00
1F83E0F83F00
0F83E0F83E00
0F83E0F83E00
0F83C0F83E00
0F87C07C3E00
0FC7C07C7E00
07C7C07C7C00
07C7C07C7C00
07C7803C7C00
07CF803E7C00
07CF803E7C00
03CF803E7800
03EF003EF800
03EF001EF800
03FF001FF800
03FF001FF800
01FF001FF000
01FE000FF000
01FE000FF000
01FE000FF000
01FE000FF000
00FC000FE000
ENDCHAR
STARTCHAR Ycircumflex
ENCODING -1
SWIDTH 600 0
DWIDTH 43 0
BBX 41 68 1 0
BITMAP
00007F000000
0000FF800000
0000FF800000
0001FFC00000
0003FFE00000
0003F7E00000
0007E3F00000
000FC1F80000
001F80FC0000
003F007E0000
007E003F0000
007C001F0000
000000000000
000000000000
000000000000
000000000000
000000000000
FE0000003F80
7F0000007F00
7F0000007F00
3F800000FE00
3F800000FC00
1FC00001FC00
0FC00003F800
0FE00003F800
07E00007F000
07F00007F000
03F8000FE000
03F8000FE000
01FC001FC000
01FC001F8000
00FE003F8000
00FE003F0000
007F007F0000
003F007E0000
003F80FE0000
001F81FC0000
001FC1F80000
000FC3F80000
000FE3F00000
0007E7F00000
0007F7E00000
0003FFE00000
0001FFC00000
0001FFC00000
0000FF800000
0000FF000000
00007F000000
00007F000000
00007F000000
00007F000000
00007F000000
00007F000000
00007F000000
00007F000000
00007F000000
00007F000000
00007F000000
00007F000000
00007F000000
00007F000000
00007F000000
00007F000000
00007F000000
00007F000000
00007F000000
00007F000000
00007F000000
ENDCHAR
STARTCHAR ycircumflex
ENCODING -1
SWIDTH 600 0
DWIDTH 43 0
BBX 37 73 3 -17
BITMAP
0001FC0000
0003FE0000
0003FE0000
0007FF0000
000FFF8000
000FDF8000
001F8FC000
003F07E000
007E03F000
00FC01F800
01F800FC00
01F0007C00
0000000000
0000000000
0000000000
0000000000
0000000000
FE000003F8
7E000003F0
7F000007F0
7F000007F0
3F000007E0
3F80000FE0
1F80000FE0
1FC0000FC0
1FC0001FC0
0FC0001F80
0FE0001F80
07E0003F80
07F0003F00
07F0003F00
03F0007F00
03F8007E00
01F8007E00
01F800FC00
01FC00FC00
00FC00FC00
00FE01F800
007E01F800
007E01F800
007F03F000
003F03F000
003F83E000
001F87E000
001F87E000
001FC7C000
000FCFC000
000FCFC000
0007EF8000
0007EF8000
0007FF0000
0003FF0000
0003FF0000
0001FE0000
0001FE0000
0000FE0000
0000FC0000
0000FC0000
0001F80000
0001F80000
0001F80000
0003F00000
0003F00000
0007E00000
0007E00000
000FC00000
001FC00000
61FF800000
7FFF800000
7FFF000000
7FFE000000
7FF8000000
3FE0000000
ENDCHAR
STARTCHAR Ydieresis
ENCODING -1
SWIDTH 600 0
DWIDTH 43 0
BBX 41 64 1 0
BITMAP
000F003C0000
001F807E0000
001FC0FE0000
001FC0FE0000
001FC0FE0000
001F807E0000
000F003C0000
000000000000
000000000000
000000000000
000000000000
000000000000
000000000000
FE0000003F80
7F0000007F00
7F0000007F00
3F800000FE00
3F800000FC00
1FC00001FC00
0FC00003F800
0FE00003F800
07E00007F000
07F00007F000
03F8000FE000
03F8000FE000
01FC001FC000
01FC001F8000
00FE003F8000
00FE003F0000
007F007F0000
003F007E0000
003F80FE0000
001F81FC0000
001FC1F80000
000FC3F80000
000FE3F00000
0007E7F00000
0007F7E00000
0003FFE00000
0001FFC00000
0001FFC00000
0000FF800000
0000FF000000
00007F000000
00007F000000
00007F000000
00007F000000
00007F000000
00007F000000
00007F000000
00007F000000
00007F000000
00007F000000
00007F000000
00007F000000
00007F000000
00007F000000
00007F000000
00007F000000
00007F000000
00007F000000
00007F000000
00007F000000
00007F000000
ENDCHAR
STARTCHAR Zacute
ENCODING -1
SWIDTH 600 0
DWIDTH 43 0
BBX 35 68 4 0
BITMAP
00001FE000
00001FE000
00003FC000
00003F8000
00007F0000
0000FF0000
0000FE0000
0001FC0000
0001F80000
0003F00000
0007E00000
0007C00000
0000000000
0000000000
0000000000
0000000000
0000000000
7FFFFFFFC0
7FFFFFFFC0
7FFFFFFFC0
7FFFFFFFC0
7FFFFFFFC0
7FFFFFFFC0
0000003F80
0000007F00
0000007F00
000000FE00
000000FC00
000001FC00
000003F800
000003F000
000007F000
00000FE000
00000FC000
00001FC000
00003F8000
00003F0000
00007F0000
0000FE0000
0000FC0000
0001FC0000
0003F80000
0003F00000
0007F00000
000FE00000
000FC00000
001FC00000
003F800000
003F000000
007F000000
00FE000000
00FC000000
01FC000000
03F8000000
03F0000000
07F0000000
0FE0000000
0FC0000000
1FC0000000
3F80000000
3F80000000
7F00000000
FFFFFFFFE0
FFFFFFFFE0
FFFFFFFFE0
FFFFFFFFE0
FFFFFFFFE0
FFFFFFFFE0
ENDCHAR
STARTCHAR zacute
ENCODING -1
SWIDTH 600 0
DWIDTH 43 0
BBX 30 56 6 0
BITMAP
00007F80
00007F80
0000FF00
0000FE00
0001FC00
0003FC00
0003F800
0007F000
0007E000
000FC000
001F8000
001F0000
00000000
00000000
00000000
00000000
00000000
7FFFFFF8
7FFFFFF8
7FFFFFF8
7FFFFFF8
7FFFFFF8
000003F8
000007F0
000007E0
00000FE0
00001FC0
00003F80
00003F00
00007E00
0000FE00
0001FC00
0003F800
0003F000
0007F000
000FE000
001FC000
001F8000
003F8000
007F0000
00FE0000
00FC0000
01F80000
03F80000
07F00000
07E00000
0FC00000
1FC00000
3F800000
7F000000
7E000000
FFFFFFFC
FFFFFFFC
FFFFFFFC
FFFFFFFC
FFFFFFFC
ENDCHAR
ENDFONT
